<?xml version="1.0" encoding="UTF-8" standalone="no"?>
<!DOCTYPE svg PUBLIC "-//W3C//DTD SVG 1.1//EN" "http://www.w3.org/Graphics/SVG/1.1/DTD/svg11.dtd">
<svg xmlns:xl="http://www.w3.org/1999/xlink" xmlns:dc="http://purl.org/dc/elements/1.1/" version="1.1" xmlns="http://www.w3.org/2000/svg" viewBox="-81 375 634 434" width="634" height="434">
  <defs>
    <clipPath id="inner_stroke_clip_path">
      <path d="M 240.99999 556.2061 L 377 556.2061 L 377 643.2061 L 240.99999 643.2061 Z"/>
    </clipPath>
    <clipPath id="inner_stroke_clip_path_2">
      <path d="M 240.99999 682.2061 L 377 682.2061 L 377 769.2061 L 240.99999 769.2061 Z"/>
    </clipPath>
    <clipPath id="inner_stroke_clip_path_3">
      <path d="M 397 556.2061 L 533 556.2061 L 533 643.2061 L 397 643.2061 Z"/>
    </clipPath>
    <clipPath id="inner_stroke_clip_path_4">
      <path d="M 240.99999 430.20613 L 377 430.20613 L 377 517.2061 L 240.99999 517.2061 Z"/>
    </clipPath>
    <clipPath id="inner_stroke_clip_path_5">
      <path d="M 397 430.20613 L 533 430.20613 L 533 517.2061 L 397 517.2061 Z"/>
    </clipPath>
    <clipPath id="inner_stroke_clip_path_6">
      <path d="M 84.99999 430.20613 L 221 430.20613 L 221 517.2061 L 84.99999 517.2061 Z"/>
    </clipPath>
  </defs>
  <g id="diagram_1" fill="none" fill-opacity="1" stroke="none" stroke-opacity="1" stroke-dasharray="none">
    <title>diagram_1</title>
    <g id="diagram_1_Layer_1">
      <title>Layer 1</title>
      <g id="Group_549">
        <g id="Group_539">
          <g id="Graphic_548">
            <rect x="64.91698" y="375.79388" width="488.083" height="432.41225" fill="#eaedef"/>
          </g>
          <g id="Group_540">
            <title>_294x96</title>
            <g id="Graphic_547">
              <path d="M 158.54114 408.0219 C 156.37827 408.0219 154.5707 407.30736 153.11844 405.8783 C 151.66618 404.44927 150.94522 402.66587 150.95557 400.5281 C 150.95557 398.3889 151.67652 396.6113 153.11844 395.19533 C 154.56036 393.7532 156.36793 393.03216 158.54114 393.03216 C 160.74095 393.03216 162.52784 393.8135 163.9018 395.37614 L 162.55665 396.65923 C 161.5894 395.4534 160.10296 394.7631 158.54114 394.7945 C 157.02165 394.75653 155.55357 395.33663 154.48354 396.3978 C 153.40948 397.4551 152.87246 398.83475 152.87246 400.53683 C 152.87246 402.2389 153.41022 403.60913 154.48575 404.6475 C 155.55315 405.7122 157.0209 406.29566 158.54114 406.25954 C 160.23865 406.25954 161.71602 405.5581 162.97327 404.1552 L 164.33836 405.46224 C 163.6473 406.2765 162.77546 406.92414 161.78989 407.3553 C 160.76878 407.8059 159.66036 408.03333 158.54114 408.0219 Z M 167.43641 393.3524 L 167.43641 407.6973 L 165.5594 407.6973 L 165.5594 393.3524 Z M 168.79043 402.7915 C 168.79043 401.2811 169.27353 400.03216 170.23973 399.0446 C 171.20224 398.0614 172.54192 397.52276 173.92947 397.5611 C 175.31138 397.52176 176.6453 398.061 177.59927 399.0446 C 178.5773 400.0336 179.0663 401.28257 179.0663 402.7915 C 179.0663 404.3004 178.5773 405.5501 177.59927 406.54056 C 176.64491 407.52337 175.31104 408.0618 173.92947 408.0219 C 172.5422 408.06107 171.20247 407.5232 170.23973 406.54056 C 169.27353 405.55156 168.79043 404.30187 168.79043 402.7915 Z M 170.66743 402.7915 C 170.66743 403.8473 170.9799 404.7027 171.60482 405.35768 C 172.20969 405.98656 173.05127 406.3429 173.93169 406.3429 C 174.8121 406.3429 175.6537 405.98656 176.25855 405.35768 C 176.88348 404.7027 177.19595 403.8473 177.19595 402.7915 C 177.19595 401.7357 176.882 400.88755 176.25412 400.2471 C 175.65568 399.6069 174.8117 399.24256 173.92726 399.24256 C 173.0428 399.24256 172.19883 399.6069 171.6004 400.2471 C 170.97842 400.9006 170.66743 401.74876 170.66743 402.7915 Z M 189.17376 407.6973 L 187.37875 407.6973 L 187.37875 406.34014 L 187.29675 406.34014 C 186.97788 406.8508 186.5236 407.2665 185.98263 407.54263 C 185.41937 407.85555 184.78363 408.0206 184.13665 408.0219 C 182.91338 408.0219 181.9723 407.6784 181.31339 406.9915 C 180.65448 406.30456 180.32502 405.32573 180.32502 404.055 L 180.32502 397.88133 L 182.19981 397.88133 L 182.19981 403.93517 C 182.24118 405.53268 183.06334 406.33143 184.66629 406.33143 C 185.39955 406.33833 186.09393 406.0079 186.5433 405.4383 C 187.04786 404.8391 187.31542 404.08103 187.29675 403.3034 L 187.29675 397.88133 L 189.17376 397.88133 Z M 195.2657 408.01753 C 193.97064 408.02107 192.73986 407.46315 191.90173 406.49263 C 190.98197 405.47377 190.48733 404.1512 190.5167 402.7893 C 190.48798 401.42755 190.98254 400.1052 191.90173 399.086 C 192.73986 398.1155 193.97064 397.55756 195.2657 397.5611 C 195.96385 397.55283 196.6536 397.7113 197.27568 398.02293 C 197.84456 398.2992 198.32693 398.72145 198.6718 399.245 L 198.7538 399.245 L 198.6718 397.88133 L 198.6718 393.3524 L 200.54658 393.3524 L 200.54658 407.6973 L 198.7538 407.6973 L 198.7538 406.34014 L 198.6718 406.34014 C 198.32693 406.8637 197.84456 407.28596 197.27568 407.56224 C 196.6534 407.8731 195.96367 408.03083 195.2657 408.0219 Z M 195.57153 406.3358 C 196.43841 406.3601 197.27032 405.9992 197.83634 405.3533 C 198.44797 404.69834 198.7538 403.84295 198.7538 402.78714 C 198.78875 401.8551 198.46062 400.94507 197.83634 400.24274 C 197.27416 399.58954 196.4417 399.2212 195.57153 399.24066 C 194.70342 399.22807 193.87448 399.5952 193.30893 400.24274 C 192.68465 400.94507 192.35652 401.8551 192.39148 402.78714 C 192.39148 403.83133 192.6973 404.6802 193.30893 405.3337 C 193.8742 405.98213 194.7029 406.35074 195.57153 406.34014 Z" fill="#5f6368"/>
            </g>
            <g id="Graphic_546">
              <path d="M 88.46042 408.0197 C 83.91307 408.0197 80.09258 404.3774 80.09258 399.90726 C 80.09258 395.43714 83.91307 391.7948 88.46042 391.7948 C 90.5732 391.76245 92.61016 392.5681 94.11138 394.0299 L 92.52247 395.594 C 91.43372 394.56043 89.97386 393.99125 88.46042 394.01027 C 86.87724 394.0107 85.36027 394.6348 84.24874 395.74303 C 83.1372 396.85124 82.52382 398.3511 82.54576 399.90726 C 82.52442 401.46303 83.13806 402.96234 84.24953 404.0701 C 85.36101 405.17783 86.87763 405.80163 88.46042 405.80207 C 90.61222 405.80207 91.8377 404.9525 92.62219 404.18133 C 93.26706 403.5474 93.68811 402.63683 93.84989 401.39077 L 88.40059 401.39077 L 88.40059 399.1753 L 96.04822 399.1753 C 96.13485 399.63137 96.17568 400.0947 96.1701 400.5586 C 96.1701 402.22075 95.70694 404.27936 94.21775 405.74326 C 92.76402 407.22676 90.9136 408.0197 88.46042 408.0197 Z" fill="#4285f4"/>
            </g>
            <g id="Graphic_545">
              <path d="M 107.60719 402.79585 C 107.60719 405.6833 105.226 408.02407 102.28865 408.02407 C 99.3513 408.02407 96.9701 405.6833 96.9701 402.79585 C 96.9701 399.9054 99.35377 397.5622 102.29419 397.5622 C 105.2346 397.5622 107.61827 399.9054 107.61827 402.79585 Z M 105.2759 402.79585 C 105.2759 400.91587 103.89086 399.6306 102.28421 399.6306 C 100.67757 399.6306 99.29032 400.91587 99.29032 402.79585 C 99.29032 404.67583 100.67757 405.95456 102.28421 405.95456 C 103.89086 405.95456 105.2759 404.6475 105.2759 402.79585 Z" fill="#ea4335"/>
            </g>
            <g id="Graphic_544">
              <path d="M 119.19498 402.79585 C 119.19498 405.6833 116.81378 408.02407 113.87643 408.02407 C 110.93908 408.02407 108.55788 405.6833 108.55788 402.79585 C 108.55788 399.9084 110.93908 397.56764 113.87643 397.56764 C 116.81378 397.56764 119.19498 399.9084 119.19498 402.79585 Z M 116.86368 402.79585 C 116.86368 400.91587 115.47864 399.6306 113.872 399.6306 C 112.26535 399.6306 110.8781 400.91587 110.8781 402.79585 C 110.8781 404.67583 112.26314 405.95456 113.872 405.95456 C 115.48086 405.95456 116.86368 404.6475 116.86368 402.79585 Z" fill="#fbbc04"/>
            </g>
            <g id="Graphic_543">
              <path d="M 130.27972 397.8944 L 130.27972 407.2616 C 130.27972 411.1196 127.96615 412.70767 125.23153 412.70767 C 123.16918 412.718 121.3069 411.4967 120.52461 409.62085 L 122.55674 408.7865 C 122.91796 409.6361 123.80217 410.6447 125.23153 410.6447 C 126.98 410.6447 128.06809 409.5773 128.06809 407.57967 L 128.06809 406.82593 L 127.98609 406.82593 C 127.27712 407.6058 126.25527 408.03995 125.19164 408.01317 C 122.53237 408.01317 120.0947 405.7367 120.0947 402.8089 C 120.0947 399.8811 122.53237 397.56546 125.19164 397.56546 C 126.25081 397.5404 127.26943 397.96603 127.98609 398.7331 L 128.06809 398.7331 L 128.06809 397.8944 Z M 128.22764 402.822 C 128.22764 400.98122 126.98 399.63714 125.39108 399.63714 C 123.80217 399.63714 122.43486 400.98122 122.43486 402.822 C 122.43486 404.66276 123.78222 405.95456 125.39108 405.95456 C 126.99994 405.95456 128.22764 404.63444 128.22764 402.81546 Z" fill="#4285f4"/>
            </g>
            <g id="Graphic_542">
              <rect x="131.94841" y="392.34813" width="2.3423767" height="15.349167" fill="#34a853"/>
            </g>
            <g id="Graphic_541">
              <path d="M 143.33453 404.5168 L 145.14505 405.70404 C 144.15799 407.15967 142.4925 408.02984 140.71293 408.0197 C 137.69687 408.0197 135.44314 405.72365 135.44314 402.7915 C 135.44314 399.68506 137.71682 397.5633 140.45144 397.5633 C 143.18606 397.5633 144.55337 399.7199 144.99658 400.88755 L 145.24478 401.4888 L 138.15338 404.3774 C 138.69632 405.4274 139.54063 405.9611 140.72844 405.9611 C 141.91625 405.9611 142.73176 405.38817 143.33453 404.5168 Z M 137.76335 402.63683 L 142.51016 400.69803 C 142.24866 400.0445 141.46418 399.5892 140.53786 399.5892 C 139.75613 399.62444 139.02167 399.96726 138.4998 400.5405 C 137.97794 401.1137 137.71254 401.8692 137.76335 402.63683 Z" fill="#ea4335"/>
            </g>
          </g>
        </g>
        <g id="Group_21">
          <g id="Graphic_24">
            <title>zone external - green</title>
            <rect x="-80.28302" y="375.76463" width="125.28301" height="126" fill="#e1f6fe"/>
            <text transform="translate(-70.28302 390.76463)" fill="#757575">
              <tspan font-family="Roboto" font-weight="bold" font-size="10" fill="#757575" x="0" y="9">Beacons</tspan>
              <tspan font-family="Roboto" font-size="10" fill="#757575" x="0" y="20">Proximity Notifications</tspan>
            </text>
          </g>
          <g id="Graphic_23">
            <path d="M -49.98387 450.6413 L -48.17053 452.45463 C -45.682457 449.96656 -41.634065 449.96656 -39.14599 452.45463 L -37.33265 450.6413 C -40.83282 447.1622 -46.4837 447.1622 -49.98387 450.6413 Z M -43.65826 442.9662 C -47.327116 442.9662 -50.86946 444.4211 -53.46296 447.0357 L -51.6707 448.82795 C -47.242774 444.4211 -40.07375 444.4211 -35.64582 448.82795 L -33.853563 447.0357 C -36.46815 444.4211 -39.989406 442.9662 -43.65826 442.9662 Z M -40.031577 454.3523 L -47.284945 454.3523 C -48.08619 454.3523 -48.71875 455.00596 -48.71875 455.7861 L -48.71875 468.0789 C -48.71875 468.88014 -48.08619 469.5338 -47.284945 469.5338 C -47.284945 469.5338 -47.284945 469.5338 -47.26386 469.5338 L -40.031577 469.5338 C -39.230333 469.5338 -38.576686 468.9012 -38.576686 468.1 L -38.576686 468.0789 L -38.576686 455.7861 C -38.5556 455.00596 -39.18816 454.3523 -39.96832 454.3523 C -40.01049 454.3523 -40.01049 454.3523 -40.031577 454.3523 Z M -39.862894 467.00354 L -47.45363 467.00354 L -47.45363 456.88256 L -39.862894 456.88256 Z" fill="#616161"/>
          </g>
          <g id="Graphic_22">
            <path d="M 16.894574 445.96715 L -3.6711347 445.96715 L -3.6711347 448.53786 L 16.894574 448.53786 Z M 18.17993 458.8207 L 18.17993 456.25 L 16.894574 449.8232 L -3.6711347 449.8232 L -4.9564915 456.25 L -4.9564915 458.8207 L -3.6711347 458.8207 L -3.6711347 466.53285 L 9.182433 466.53285 L 9.182433 458.8207 L 14.32386 458.8207 L 14.32386 466.53285 L 16.894574 466.53285 L 16.894574 458.8207 Z M 6.6117194 463.96214 L -1.1004212 463.96214 L -1.1004212 458.8207 L 6.6117194 458.8207 Z" fill="#616161"/>
          </g>
        </g>
        <g id="Group_14">
          <g id="Graphic_20">
            <title>zone external - green</title>
            <rect x="-80.28302" y="530.2854" width="125.28301" height="126" fill="#fef7e0"/>
            <text transform="translate(-70.28302 545.2854)" fill="#757575">
              <tspan font-family="Roboto" font-weight="bold" font-size="10" fill="#757575" x="0" y="9">Back Office</tspan>
              <tspan font-family="Roboto" font-size="10" fill="#757575" x="0" y="20">Business Systems</tspan>
            </text>
          </g>
          <g id="Graphic_19">
            <path d="M -41.89475 604.98664 L -41.89475 600.35936 L -53.46296 600.35936 L -53.46296 621.18214 L -30.326537 621.18214 L -30.326537 604.98664 Z M -48.835674 618.8685 L -51.149317 618.8685 L -51.149317 616.55485 L -48.835674 616.55485 Z M -48.835674 614.2412 L -51.149317 614.2412 L -51.149317 611.9276 L -48.835674 611.9276 Z M -48.835674 609.6139 L -51.149317 609.6139 L -51.149317 607.3003 L -48.835674 607.3003 Z M -48.835674 604.98664 L -51.149317 604.98664 L -51.149317 602.673 L -48.835674 602.673 Z M -44.20839 618.8685 L -46.52203 618.8685 L -46.52203 616.55485 L -44.20839 616.55485 Z M -44.20839 614.2412 L -46.52203 614.2412 L -46.52203 611.9276 L -44.20839 611.9276 Z M -44.20839 609.6139 L -46.52203 609.6139 L -46.52203 607.3003 L -44.20839 607.3003 Z M -44.20839 604.98664 L -46.52203 604.98664 L -46.52203 602.673 L -44.20839 602.673 Z M -32.64018 618.8685 L -41.89475 618.8685 L -41.89475 616.55485 L -39.581106 616.55485 L -39.581106 614.2412 L -41.89475 614.2412 L -41.89475 611.9276 L -39.581106 611.9276 L -39.581106 609.6139 L -41.89475 609.6139 L -41.89475 607.3003 L -32.64018 607.3003 Z M -34.95382 609.6139 L -37.267463 609.6139 L -37.267463 611.9276 L -34.95382 611.9276 Z M -34.95382 614.2412 L -37.267463 614.2412 L -37.267463 616.55485 L -34.95382 616.55485 Z" fill="#616161"/>
          </g>
          <g id="Group_15">
            <g id="Graphic_18">
              <path d="M -4.9564915 615.398 L -4.9564915 620.0253 L 18.17993 620.0253 L 18.17993 615.398 Z M -.3292071 618.8685 L -2.6428493 618.8685 L -2.6428493 616.55485 L -.3292071 616.55485 Z" fill="#616161"/>
            </g>
            <g id="Graphic_17">
              <path d="M -4.9564915 601.5162 L -4.9564915 606.1435 L 18.17993 606.1435 L 18.17993 601.5162 Z M -.3292071 604.98664 L -2.6428493 604.98664 L -2.6428493 602.673 L -.3292071 602.673 Z" fill="#616161"/>
            </g>
            <g id="Graphic_16">
              <path d="M -4.9564915 608.4571 L -4.9564915 613.0844 L 18.17993 613.0844 L 18.17993 608.4571 Z M -.3292071 611.9276 L -2.6428493 611.9276 L -2.6428493 609.6139 L -.3292071 609.6139 Z" fill="#616161"/>
            </g>
          </g>
        </g>
        <g id="Group_11">
          <g id="Graphic_13">
            <title>zone external - green</title>
            <rect x="-80.28302" y="682.2061" width="125.28301" height="126" fill="#e2f3ec"/>
            <text transform="translate(-70.28302 697.2061)" fill="#757575">
              <tspan font-family="Roboto" font-weight="bold" font-size="10" fill="#757575" x="0" y="9">Mobile Devices</tspan>
              <tspan font-family="Roboto" font-size="10" fill="#757575" x="0" y="20">Push Notifications</tspan>
            </text>
          </g>
          <g id="Graphic_12">
            <path d="M -50.867787 755.4458 L -29.130685 755.4458 L -29.130685 753.0306 L -50.867787 753.0306 C -52.196165 753.0306 -53.28302 754.1174 -53.28302 755.4458 L -53.28302 769.9372 C -53.28302 771.2656 -52.196165 772.3524 -50.867787 772.3524 L -46.03732 772.3524 L -46.03732 769.9372 L -50.867787 769.9372 Z M -38.79162 762.6915 L -43.622086 762.6915 L -43.622086 764.8451 C -45.11148 766.1533 -45.23224 768.40755 -43.92399 769.8969 C -43.823356 769.9976 -43.72272 770.1183 -43.622086 770.19885 L -43.622086 772.3524 L -38.79162 772.3524 L -38.79162 770.19885 C -37.302225 768.8906 -37.181464 766.6364 -38.489715 765.147 C -38.59035 765.04635 -38.690985 764.9256 -38.79162 764.8451 Z M -41.206853 769.3334 C -42.2132 769.3334 -43.01828 768.5283 -43.01828 767.522 C -43.01828 766.5156 -42.2132 765.7105 -41.206853 765.7105 C -40.200505 765.7105 -39.395428 766.5156 -39.395428 767.522 C -39.395428 768.5283 -40.200505 769.3334 -41.206853 769.3334 Z M -27.92307 757.861 L -35.16877 757.861 C -35.81283 757.9013 -36.33613 758.4246 -36.376386 759.06865 L -36.376386 771.1448 C -36.33613 771.7889 -35.81283 772.3122 -35.16877 772.3524 L -27.92307 772.3524 C -27.279006 772.3122 -26.755706 771.7889 -26.715452 771.1448 L -26.715452 759.06865 C -26.755706 758.4246 -27.279006 757.9013 -27.92307 757.861 Z M -29.130685 769.9372 L -33.961152 769.9372 L -33.961152 760.2763 L -29.130685 760.2763 Z" fill="#616161"/>
          </g>
        </g>
        <g id="Group_367">
          <g id="Graphic_123">
            <rect x="240.99999" y="556.2061" width="136" height="87" fill="white"/>
            <rect x="240.99999" y="556.2061" width="136" height="87" stroke="#dfdfdf" stroke-linecap="round" stroke-linejoin="round" stroke-width="2" clip-path="url(#inner_stroke_clip_path)"/>
          </g>
          <g id="Graphic_122">
            <rect x="257" y="604.2061" width="104" height="1" fill="#dfdfdf"/>
          </g>
          <g id="Graphic_120">
            <text transform="translate(279.6123 575.2061)" fill="#212121">
              <tspan font-family="Roboto" font-size="12" fill="#212121" x="0" y="11">Messaging</tspan>
            </text>
          </g>
          <g id="Graphic_119">
            <rect x="240.99999" y="642.2061" width="136" height="20" fill="#dfdfdf"/>
            <text transform="translate(240.99999 646.7061)" fill="#757575">
              <tspan font-family="Roboto" font-size="10" fill="#757575" x="23.842285" y="9">Queued Notification</tspan>
            </text>
          </g>
          <g id="Group_366">
            <g id="Graphic_121">
              <text transform="translate(302.2174 617.70614)" fill="#757575">
                <tspan font-family="Roboto" font-size="10" fill="#757575" x="0" y="9">Pub/Sub</tspan>
              </text>
            </g>
            <g id="Group_352">
              <g id="Graphic_363">
                <circle cx="291.8243" cy="619.062" r="1.88966547038153" fill="#669df6"/>
              </g>
              <g id="Graphic_362">
                <circle cx="276.57567" cy="619.062" r="1.88966547038155" fill="#669df6"/>
              </g>
              <g id="Graphic_361">
                <circle cx="284.2" cy="632.2605" r="1.8896654703815" fill="#669df6"/>
              </g>
              <g id="Group_357">
                <g id="Graphic_360">
                  <path d="M 283.76308 624.2177 L 284.63495 622.7076 L 292.2614 627.1107 L 291.38953 628.6208 Z" fill="#4285f4"/>
                </g>
                <g id="Graphic_359">
                  <path d="M 276.13938 627.10784 L 283.76583 622.7047 L 284.6377 624.2148 L 277.01125 628.618 Z" fill="#4285f4"/>
                </g>
                <g id="Graphic_358">
                  <rect x="283.33177" y="614.6552" width="1.7437426" height="8.806265" fill="#4285f4"/>
                </g>
              </g>
              <g id="Graphic_356">
                <circle cx="284.2" cy="623.4615" r="3.0497303730481" fill="#aecbfa"/>
              </g>
              <g id="Graphic_355">
                <circle cx="276.57567" cy="627.861" r="2.39308986210471" fill="#aecbfa"/>
              </g>
              <g id="Graphic_354">
                <circle cx="291.8243" cy="627.861" r="2.39308986210473" fill="#aecbfa"/>
              </g>
              <g id="Graphic_353">
                <circle cx="284.2" cy="614.6552" r="2.39308986210476" fill="#aecbfa"/>
              </g>
            </g>
          </g>
        </g>
        <g id="Group_416">
          <g id="Graphic_89">
            <rect x="240.99999" y="682.2061" width="136" height="87" fill="white"/>
            <rect x="240.99999" y="682.2061" width="136" height="87" stroke="#dfdfdf" stroke-linecap="round" stroke-linejoin="round" stroke-width="2" clip-path="url(#inner_stroke_clip_path_2)"/>
          </g>
          <g id="Graphic_88">
            <rect x="257" y="730.2061" width="104" height="1" fill="#dfdfdf"/>
          </g>
          <g id="Graphic_86">
            <text transform="translate(274.89257 701.2061)" fill="#212121">
              <tspan font-family="Roboto" font-size="12" fill="#212121" x="0" y="11">Notifications</tspan>
            </text>
          </g>
          <g id="Graphic_85">
            <rect x="240.99999" y="768.2061" width="136" height="20" fill="#dfdfdf"/>
            <text transform="translate(240.99999 772.7061)" fill="#757575">
              <tspan font-family="Roboto" font-size="10" fill="#757575" x="32.367676" y="9">Push to Devices</tspan>
            </text>
          </g>
          <g id="Group_415">
            <g id="Graphic_87">
              <text transform="translate(297.8415 743.2061)" fill="#757575">
                <tspan font-family="Roboto" font-size="10" fill="#757575" x="0" y="9">App Engine</tspan>
              </text>
            </g>
            <g id="Group_382">
              <title>Shape</title>
              <g id="Graphic_388">
                <path d="M 280.2165 747.7185 L 278.6915 749.2435 C 279.21102 749.64115 279.51842 750.25595 279.52482 750.9102 C 279.52043 751.48405 279.28766 752.0326 278.87795 752.43445 C 278.46825 752.8363 277.91536 753.0585 277.3415 753.0518 C 276.68727 753.0454 276.07247 752.738 275.67482 752.2185 L 274.14982 753.7435 C 274.95467 754.6657 276.11745 755.197 277.3415 755.2018 C 279.7163 755.2018 281.6415 753.2767 281.6415 750.9018 C 281.64275 749.6859 281.12418 748.5275 280.2165 747.7185 Z" fill="#4285f4"/>
              </g>
              <g id="Graphic_387">
                <path d="M 277.3415 743.0852 C 274.1792 743.0818 271.3264 744.9841 270.1139 747.9047 C 268.9014 750.8254 269.5681 754.1888 271.803 756.4261 C 274.0379 758.6634 277.40063 759.3337 280.32254 758.1243 C 283.24445 756.9149 285.14982 754.0641 285.14982 750.9018 C 285.14983 746.5881 281.65526 743.0898 277.3415 743.0852 M 277.3415 756.4185 C 275.0926 756.4185 273.0653 755.06335 272.20547 752.9853 C 271.34563 750.9073 271.8227 748.5159 273.4141 746.9269 C 275.0055 745.3379 277.3976 744.8644 279.47435 745.7273 C 281.5511 746.5903 282.9032 748.6196 282.89982 750.8685 C 282.90647 752.347 282.3238 753.7672 281.2807 754.815 C 280.23758 755.8628 278.82 756.45185 277.3415 756.4518" fill="#aecbfa"/>
              </g>
              <g id="Graphic_386">
                <path d="M 289.3665 750.1435 L 286.1665 749.1352 C 286.30386 749.7648 286.3737 750.40735 286.37482 751.0518 C 286.3756 751.5009 286.3422 751.9495 286.27482 752.3935 L 289.3665 752.3935 C 289.64982 752.3102 289.8415 752.1352 289.8415 751.8768 L 289.8415 750.6602 C 289.82472 750.3975 289.6268 750.1822 289.3665 750.1435" fill="#669df6"/>
              </g>
              <g id="Graphic_385">
                <path d="M 277.3415 742.1602 C 277.97168 742.1627 278.59995 742.2297 279.2165 742.3602 L 278.03316 739.1768 C 277.9943 738.9119 277.77536 738.71035 277.50816 738.6935 L 277.02482 738.6935 C 276.7576 738.71035 276.53867 738.9119 276.49982 739.1768 L 275.50816 742.3435 C 276.11156 742.221 276.72577 742.15955 277.3415 742.1602" fill="#669df6"/>
              </g>
              <g id="Graphic_384">
                <path d="M 268.30816 751.0518 C 268.30928 750.40735 268.37912 749.7648 268.5165 749.1352 L 265.3165 750.1435 C 265.05617 750.1822 264.85826 750.3975 264.8415 750.6602 L 264.8415 751.8768 C 264.8415 752.1352 265.03316 752.3102 265.3165 752.3935 L 268.40816 752.3935 C 268.3408 751.9495 268.30737 751.5009 268.30816 751.0518" fill="#669df6"/>
              </g>
              <g id="Graphic_383">
                <path d="M 277.3415 747.7685 C 275.6156 747.7685 274.2165 749.1676 274.2165 750.8935 C 274.2165 752.6194 275.6156 754.0185 277.3415 754.0185 C 279.06738 754.0185 280.4665 752.6194 280.4665 750.8935 C 280.4665 749.1676 279.06738 747.7685 277.3415 747.7685 Z M 277.3415 752.4602 C 276.7071 752.4635 276.13327 752.084 275.88815 751.4988 C 275.64303 750.9137 275.775 750.2385 276.2224 749.7887 C 276.6698 749.3389 277.3443 749.2033 277.93075 749.4453 C 278.5172 749.6873 278.8998 750.2591 278.89982 750.8935 C 278.90427 751.3097 278.74206 751.7103 278.44933 752.0062 C 278.1566 752.3021 277.7577 752.4685 277.3415 752.4685 Z" fill="#aecbfa"/>
              </g>
            </g>
          </g>
        </g>
        <g id="Group_425">
          <g id="Graphic_38">
            <rect x="397" y="556.2061" width="136" height="87" fill="white"/>
            <rect x="397" y="556.2061" width="136" height="87" stroke="#dfdfdf" stroke-linecap="round" stroke-linejoin="round" stroke-width="2" clip-path="url(#inner_stroke_clip_path_3)"/>
          </g>
          <g id="Graphic_37">
            <rect x="413" y="604.2061" width="104" height="1" fill="#dfdfdf"/>
          </g>
          <g id="Graphic_35">
            <text transform="translate(440.55176 575.2061)" fill="#212121">
              <tspan font-family="Roboto" font-size="12" fill="#212121" x="0" y="11">Analytics</tspan>
            </text>
          </g>
          <g id="Graphic_34">
            <rect x="397" y="642.2061" width="136" height="20" fill="#dfdfdf"/>
            <text transform="translate(397 646.7061)" fill="#757575">
              <tspan font-family="Roboto" font-size="10" fill="#757575" x="31.308105" y="9">Data Warehouse</tspan>
            </text>
          </g>
          <g id="Group_424">
            <g id="Graphic_36">
              <text transform="translate(458.5415 617.2061)" fill="#757575">
                <tspan font-family="Roboto" font-size="10" fill="#757575" x="0" y="9">BigQuery</tspan>
              </text>
            </g>
            <g id="Group_417">
              <title>Shape</title>
              <g id="Graphic_422">
                <path d="M 435.30363 621.5329 L 435.30363 624.2006 C 435.7188 624.9101 436.30303 625.5058 437.0043 625.93465 L 437.0043 621.5329 Z" fill="#aecbfa"/>
              </g>
              <g id="Graphic_421">
                <path d="M 438.4582 619.112 L 438.4582 626.6416 C 438.81787 626.69775 439.18126 626.7267 439.5453 626.7283 C 439.87564 626.7276 440.2055 626.7031 440.53234 626.6549 L 440.53234 619.112 Z" fill="#669df6"/>
              </g>
              <g id="Graphic_420">
                <path d="M 442.213 622.5733 L 442.213 625.8613 C 442.9244 625.4096 443.50774 624.78265 443.907 624.0406 L 443.907 622.5733 Z" fill="#aecbfa"/>
              </g>
              <g id="Graphic_419">
                <path d="M 446.3146 627.02174 L 444.8874 628.449 C 444.72647 628.6167 444.72647 628.8815 444.8874 629.0492 L 448.43544 632.5839 C 448.5133 632.6642 448.6204 632.7095 448.7322 632.7095 C 448.84406 632.7095 448.95113 632.6642 449.029 632.5839 L 450.45623 631.1634 C 450.6163 630.9979 450.6163 630.7353 450.45623 630.5698 L 446.9082 627.02174 C 446.7427 626.86165 446.4801 626.86165 446.3146 627.02174" fill="#4285f4"/>
              </g>
              <g id="Graphic_418">
                <path d="M 439.5853 612.7028 C 435.9359 612.692 432.63986 614.882 431.2358 618.2505 C 429.83176 621.619 430.5966 625.5017 433.1733 628.08606 C 435.75 630.6704 439.6304 631.44675 443.00304 630.0527 C 446.3757 628.6586 448.5755 625.3691 448.5755 621.7197 C 448.5755 616.7502 444.55476 612.7175 439.5853 612.7028 M 439.5853 628.3956 C 435.90196 628.3956 432.916 625.4097 432.916 621.7263 C 432.916 618.043 435.90196 615.05705 439.5853 615.05705 C 443.26865 615.05705 446.2546 618.043 446.2546 621.7263 C 446.2546 625.4097 443.26865 628.3956 439.5853 628.3956" fill="#669df6"/>
              </g>
            </g>
          </g>
        </g>
        <g id="Group_529">
          <g id="Graphic_104">
            <rect x="240.99999" y="430.20613" width="136" height="87" fill="white"/>
            <rect x="240.99999" y="430.20613" width="136" height="87" stroke="#dfdfdf" stroke-linecap="round" stroke-linejoin="round" stroke-width="2" clip-path="url(#inner_stroke_clip_path_4)"/>
          </g>
          <g id="Graphic_103">
            <rect x="257" y="478.2061" width="104" height="1" fill="#dfdfdf"/>
          </g>
          <g id="Graphic_101">
            <text transform="translate(279.10253 449.2061)" fill="#212121">
              <tspan font-family="Roboto" font-size="12" fill="#212121" x="0" y="11">Processing</tspan>
            </text>
          </g>
          <g id="Graphic_100">
            <rect x="240.99999" y="516.2061" width="136" height="20" fill="#dfdfdf"/>
            <text transform="translate(240.99999 520.7061)" fill="#757575">
              <tspan font-family="Roboto" font-size="10" fill="#757575" x="25.790527" y="9">Stream Processing</tspan>
            </text>
          </g>
          <g id="Group_527">
            <g id="Graphic_102">
              <text transform="translate(298.76987 491.2061)" fill="#757575">
                <tspan font-family="Roboto" font-size="10" fill="#757575" x="0" y="9">Dataflow</tspan>
              </text>
            </g>
            <g id="Group_432">
              <title>Shape</title>
              <g id="Graphic_444">
                <path d="M 287.47178 489.0428 L 287.1711 488.0161 L 285.61645 487.9428 L 283.73178 488.9988 L 285.40378 490.64146 L 285.38178 492.5481 L 286.49645 492.5628 L 286.51845 490.6561 L 291.18978 493.47946 L 291.1751 494.6528 L 293.11845 494.6821 L 293.11845 492.42346 Z" fill="#669df6"/>
              </g>
              <g id="Graphic_443">
                <path d="M 285.61645 487.9428 L 284.0471 488.3168 L 283.73178 488.9988 L 277.93845 492.2181 L 277.9091 494.4768 L 279.8671 494.5061 L 279.88178 493.32546 L 284.63378 490.6341 L 284.61178 492.5408 L 285.55045 492.5481 Z" fill="#aecbfa"/>
              </g>
              <g id="Graphic_442">
                <path d="M 285.61645 487.9428 L 281.85445 485.7061 L 279.94778 486.74746 L 283.73178 488.9988 L 285.61645 487.9428 Z" fill="#669df6"/>
              </g>
              <g id="Graphic_441">
                <path d="M 291.10178 500.07946 L 286.36445 502.7708 L 286.38645 500.87146 L 284.50178 500.84946 L 284.47245 502.7488 L 285.38178 505.46946 L 286.94378 505.3448 L 287.26645 504.41346 L 293.05978 501.1868 L 293.0891 498.8841 L 291.11645 498.8548 Z" fill="#669df6"/>
              </g>
              <g id="Graphic_440">
                <path d="M 285.38178 505.46946 L 281.56845 507.60346 L 281.5171 507.60346 L 279.68378 506.5181 L 283.52645 504.3621 L 285.38178 505.46946 Z" fill="#669df6"/>
              </g>
              <g id="Graphic_439">
                <path d="M 287.47178 489.0428 L 291.31445 486.8941 L 289.4811 485.8088 L 289.42978 485.8088 L 285.61645 487.9428 Z" fill="#4285f4"/>
              </g>
              <g id="Graphic_438">
                <path d="M 287.26645 504.41346 L 291.05045 506.6648 L 289.1951 507.7061 L 289.13645 507.7061 L 285.38178 505.46946 Z" fill="#4285f4"/>
              </g>
              <g id="Graphic_437">
                <path d="M 285.38178 505.46946 L 283.52645 504.3621 L 277.87978 500.9888 L 277.87978 498.78146 L 279.81578 498.78146 L 279.79378 499.9328 L 284.47245 502.7488 L 284.50178 500.84946 L 285.44778 500.8641 Z" fill="#aecbfa"/>
              </g>
              <g id="Graphic_436">
                <title>Oval</title>
                <circle cx="292.2311" cy="496.7501" r="1.25400200376899" fill="#aecbfa"/>
              </g>
              <g id="Graphic_435">
                <circle cx="278.7671" cy="496.5668" r="1.25400200376902" fill="#aecbfa"/>
              </g>
              <g id="Graphic_434">
                <circle cx="285.57245" cy="494.4988" r="1.25400200376902" fill="#aecbfa"/>
              </g>
              <g id="Graphic_433">
                <circle cx="285.46978" cy="498.91346" r="1.25400200376899" fill="#aecbfa"/>
              </g>
            </g>
          </g>
        </g>
        <g id="Group_512">
          <g id="Graphic_56">
            <rect x="397" y="430.20613" width="136" height="87" fill="white"/>
            <rect x="397" y="430.20613" width="136" height="87" stroke="#dfdfdf" stroke-linecap="round" stroke-linejoin="round" stroke-width="2" clip-path="url(#inner_stroke_clip_path_5)"/>
          </g>
          <g id="Graphic_55">
            <rect x="413" y="478.2061" width="104" height="1" fill="#dfdfdf"/>
          </g>
          <g id="Graphic_53">
            <text transform="translate(447.1289 449.2061)" fill="#212121">
              <tspan font-family="Roboto" font-size="12" fill="#212121" x="0" y="11">Events</tspan>
            </text>
          </g>
          <g id="Graphic_52">
            <rect x="397" y="516.2061" width="136" height="20" fill="#dfdfdf"/>
            <text transform="translate(397 520.7061)" fill="#757575">
              <tspan font-family="Roboto" font-size="10" fill="#757575" x="30.868652" y="9">Proximity Events</tspan>
            </text>
          </g>
          <g id="Graphic_54">
            <text transform="translate(444.51915 491.2061)" fill="#757575">
              <tspan font-family="Roboto" font-size="10" fill="#757575" x="0" y="9">Cloud Bigtable</tspan>
            </text>
          </g>
          <g id="Group_492">
            <title>Shape</title>
            <g id="Graphic_511">
              <path d="M 432.94074 490.52024 L 428.2422 487.7219 C 427.55053 487.2909 427.05094 486.6106 426.84673 485.8217 C 426.84673 485.7697 427.02487 485.4654 427.2698 485.5916 L 433.08177 489.05055 C 433.7795 489.4588 433.3564 491.27735 433.3564 491.27735 C 433.36517 490.9683 433.20617 490.6787 432.94074 490.52024 Z" fill="#669df6"/>
            </g>
            <g id="Graphic_510">
              <path d="M 434.35847 497.43816 C 434.3692 497.5827 434.3011 497.72176 434.1803 497.8019 L 433.00754 498.54414 L 433.00754 489.74086 C 433.00754 489.4365 433.1931 489.1099 432.94074 488.9615 L 433.96507 489.70374 C 434.22196 489.8607 434.3728 490.1453 434.35847 490.446 Z" fill="#aecbfa"/>
            </g>
            <g id="Graphic_509">
              <path d="M 428.2422 498.47734 C 428.16306 498.4771 428.0857 498.4539 428.0195 498.41053 L 424.16714 496.1169 L 424.16714 497.119 L 428.2422 499.5536 L 428.5688 498.9153 C 428.5688 498.9153 428.3164 498.47734 428.2422 498.47734 Z" fill="#669df6"/>
            </g>
            <g id="Graphic_508">
              <path d="M 428.46487 500.4889 C 428.3271 500.56844 428.1573 500.56844 428.0195 500.4889 L 424.16714 498.18043 L 424.16714 498.9227 C 424.16697 499.08 424.24847 499.22615 424.3824 499.3087 L 428.02693 501.4835 C 428.1588 501.56533 428.3256 501.56533 428.45745 501.4835 C 428.5596 501.3025 428.63465 501.1074 428.68013 500.90455 L 428.46487 500.48146 Z" fill="#669df6"/>
            </g>
            <g id="Graphic_507">
              <path d="M 428.2422 497.5124 L 432.31723 495.07775 L 432.31723 494.6101 C 432.3204 494.45204 432.23815 494.3045 432.102 494.22415 L 428.45745 492.0419 C 428.32347 491.9679 428.1609 491.9679 428.02693 492.0419 L 424.3824 494.22415 C 424.24623 494.3045 424.16396 494.45204 424.16714 494.6101 L 424.16714 495.07775 Z" fill="#aecbfa"/>
            </g>
            <g id="Graphic_506">
              <path d="M 428.2422 496.5029 L 424.3824 494.22415 C 424.24623 494.3045 424.16396 494.45204 424.16714 494.6101 L 424.16714 495.07775 L 428.2422 497.5124 L 428.55394 496.88146 Z" fill="#669df6"/>
            </g>
            <g id="Graphic_505">
              <path d="M 428.2422 498.47734 L 428.2422 499.5536 L 432.31723 497.119 L 432.31723 496.1169 L 428.46487 498.41053 C 428.3946 498.44436 428.31946 498.4669 428.2422 498.47734 Z" fill="#4285f4"/>
            </g>
            <g id="Graphic_504">
              <path d="M 428.46487 500.4889 C 428.39664 500.52665 428.32016 500.54705 428.2422 500.54826 C 428.2422 500.86 428.19765 501.5503 428.2422 501.5503 C 428.3253 501.5527 428.4075 501.5322 428.4797 501.49094 L 432.12425 499.3161 C 432.2582 499.2336 432.3397 499.08744 432.3395 498.9301 L 432.3395 498.18043 L 428.48714 500.48146 Z" fill="#4285f4"/>
            </g>
            <g id="Graphic_503">
              <path d="M 432.102 494.22415 L 428.2422 496.5029 L 428.2422 497.5124 L 432.31723 495.07775 L 432.31723 494.6101 C 432.3204 494.45204 432.23815 494.3045 432.102 494.22415 Z" fill="#4285f4"/>
            </g>
            <g id="Graphic_502">
              <path d="M 423.54364 502.8567 L 428.16796 505.6031 C 428.9023 506.046 429.4188 506.775 429.5931 507.61464 C 429.6077 507.6945 429.57264 507.7753 429.50434 507.8192 C 429.43603 507.86313 429.348 507.8615 429.28136 507.81506 L 423.2096 504.2225 C 422.6158 503.8736 423.1354 502.1367 423.1354 502.1367 C 423.13963 502.4307 423.29356 502.70215 423.54364 502.8567 Z" fill="#669df6"/>
            </g>
            <g id="Graphic_501">
              <path d="M 422.13333 503.07197 L 422.13333 495.7755 C 422.1308 495.6253 422.20676 495.4846 422.33374 495.40435 L 423.4917 494.74373 L 423.4917 503.55444 C 423.4917 503.85135 423.4917 504.2967 423.7218 504.47485 L 422.53416 503.7326 C 422.3028 503.5889 422.1539 503.3435 422.13333 503.07197 Z" fill="#aecbfa"/>
            </g>
            <g id="Graphic_500">
              <path d="M 426.20096 489.41426 C 425.94645 489.26553 425.63154 489.26553 425.37704 489.41426 L 420.69333 492.19034 C 419.99326 492.5989 419.15657 492.7035 418.37746 492.4798 C 418.2952 492.43596 418.24385 492.35034 418.24385 492.25714 C 418.24385 492.16394 418.2952 492.0783 418.37746 492.03446 L 425.3696 487.8629 C 425.6294 487.71447 426.20096 489.41426 426.20096 489.41426 Z" fill="#669df6"/>
            </g>
            <g id="Graphic_499">
              <path d="M 426.1861 487.8852 L 432.12425 491.3887 C 432.25626 491.44826 432.3427 491.57794 432.3469 491.7227 L 432.3469 493.0365 L 424.92426 488.6423 C 424.67157 488.487 424.35303 488.487 424.10034 488.6423 L 425.3696 487.8629 C 425.6205 487.71065 425.93524 487.71065 426.1861 487.8629 Z" fill="#aecbfa"/>
            </g>
            <g id="Graphic_498">
              <path d="M 430.276 503.9256 C 430.5287 504.08087 430.84723 504.08087 431.0999 503.9256 L 435.7688 501.1495 C 436.4762 500.7298 437.3276 500.6274 438.11434 500.86744 C 438.1938 500.908 438.24385 500.98974 438.24385 501.079 C 438.24385 501.16823 438.1938 501.24995 438.11434 501.2905 L 431.07023 505.4695 C 430.81043 505.61795 430.2463 503.91073 430.2463 503.91073 Z" fill="#669df6"/>
            </g>
            <g id="Graphic_497">
              <path d="M 424.3527 501.98826 C 424.25683 501.8847 424.19246 501.75596 424.16714 501.6171 L 424.16714 500.31816 L 431.5898 504.70496 C 431.8443 504.8537 432.15923 504.8537 432.41373 504.70496 L 431.0999 505.48434 C 430.8454 505.63306 430.5305 505.63306 430.276 505.48434 Z" fill="#aecbfa"/>
            </g>
            <g id="Graphic_496">
              <path d="M 421.8587 494.25384 C 421.59563 494.4074 421.4365 494.69156 421.443 494.9961 L 421.443 500.54084 C 421.4379 501.3835 421.08944 502.1877 420.4781 502.76764 C 420.42176 502.82357 420.33774 502.841 420.26383 502.81206 C 420.1899 502.78314 420.14004 502.7133 420.13663 502.63403 C 420.13663 502.4336 420.13663 494.2019 420.13663 494.2019 C 420.13663 493.89755 421.8661 494.2464 421.8661 494.2464 Z" fill="#669df6"/>
            </g>
            <g id="Graphic_495">
              <path d="M 425.7556 490.59446 C 425.8792 490.5213 426.03283 490.5213 426.1564 490.59446 L 427.2624 491.24766 L 420.50777 495.21136 C 420.2413 495.36343 420.07693 495.6468 420.07725 495.95363 L 420.07725 494.39487 C 420.07385 494.0892 420.2356 493.80543 420.50034 493.6526 Z" fill="#aecbfa"/>
            </g>
            <g id="Graphic_494">
              <path d="M 435.10816 498.2992 L 435.10816 492.7767 C 435.1089 491.9391 435.4458 491.13685 436.0434 490.5499 C 436.0434 490.5499 436.41455 490.43116 436.3923 490.78745 C 436.37 491.14374 436.3923 498.9895 436.3923 498.9895 C 436.0434 499.39775 434.596 498.9895 434.596 498.9895 C 434.8738 498.86245 435.0671 498.6019 435.10816 498.2992 Z" fill="#669df6"/>
            </g>
            <g id="Graphic_493">
              <path d="M 436.0137 499.6056 L 430.74363 502.7825 C 430.615 502.85674 430.45657 502.85674 430.32796 502.7825 L 429.2294 502.1367 L 436.0137 498.0468 C 436.27393 497.89135 436.43 497.60757 436.42197 497.30456 L 436.42197 498.8559 C 436.4071 499.17507 436.0137 499.6056 436.0137 499.6056 Z" fill="#aecbfa"/>
            </g>
          </g>
        </g>
        <g id="Graphic_530">
          <path d="M 376.6866 483.2061 L 388.1972 483.2061 C 388.47334 483.2061 388.6972 482.98227 388.6972 482.7061 C 388.6972 482.43 388.47334 482.2061 388.1972 482.2061 L 376.6866 482.2061 C 376.4105 482.2061 376.1866 482.43 376.1866 482.7061 C 376.1866 482.98227 376.4105 483.2061 376.6866 483.2061 Z M 396.1972 482.2061 L 388.1972 482.2061 L 388.1972 483.2061 L 396.1972 483.2061 Z M 391.84365 479.0597 L 395.84365 483.0597 L 395.84365 482.3526 L 391.84365 486.3526 L 392.55075 487.0597 L 396.55075 483.0597 L 396.9043 482.7061 L 396.55075 482.3526 L 392.55075 478.3526 Z" fill="#616161"/>
        </g>
        <g id="Graphic_531">
          <path d="M 383.8967 482.7061 L 383.8967 608.89745 C 383.8967 609.1762 384.12465 609.4011 384.4034 609.3974 L 388.79396 609.3386 C 389.0701 609.3349 389.2909 609.1081 389.28722 608.832 C 389.28353 608.55585 389.0567 608.335 388.78057 608.3387 L 384.39 608.3975 L 384.8967 608.89745 L 384.8967 482.7061 C 384.8967 482.43 384.67284 482.2061 384.3967 482.2061 C 384.12055 482.2061 383.8967 482.43 383.8967 482.7061 Z M 396.77986 608.2316 L 388.78057 608.3387 L 388.79396 609.3386 L 396.79324 609.2315 Z M 392.38457 605.1437 L 396.43776 609.0898 L 396.4283 608.3828 L 392.4822 612.436 L 393.1987 613.13354 L 397.1448 609.08035 L 397.4936 608.7221 L 397.13534 608.3733 L 393.08215 604.4272 Z" fill="#616161"/>
        </g>
        <g id="Graphic_532">
          <path d="M 220.37054 483.2061 L 231.09999 483.2061 C 231.37613 483.2061 231.59999 482.98227 231.59999 482.7061 C 231.59999 482.43 231.37613 482.2061 231.09999 482.2061 L 220.37054 482.2061 C 220.0944 482.2061 219.87054 482.43 219.87054 482.7061 C 219.87054 482.98227 220.0944 483.2061 220.37054 483.2061 Z M 239.09999 482.2061 L 231.09999 482.2061 L 231.09999 483.2061 L 239.09999 483.2061 Z M 234.74643 479.0597 L 238.74643 483.0597 L 238.74643 482.3526 L 234.74643 486.3526 L 235.45354 487.0597 L 239.45354 483.0597 L 239.8071 482.7061 L 239.45354 482.3526 L 235.45354 478.3526 Z" fill="#616161"/>
        </g>
        <g id="Graphic_533">
          <path d="M 308.5 536.2061 L 308.5 546.9218 C 308.5 547.1979 308.72385 547.4218 309 547.4218 C 309.27613 547.4218 309.5 547.1979 309.5 546.9218 L 309.5 536.2061 C 309.5 535.93 309.27613 535.7061 309 535.7061 C 308.72385 535.7061 308.5 535.93 308.5 536.2061 Z M 309.5 554.9218 L 309.5 546.9218 L 308.5 546.9218 L 308.5 554.9218 Z M 312.64644 550.5682 L 308.64644 554.5682 L 309.35354 554.5682 L 305.35354 550.5682 L 304.64644 551.27534 L 308.64644 555.27534 L 309 555.6289 L 309.35354 555.27534 L 313.35354 551.27534 Z" fill="#616161"/>
        </g>
        <g id="Graphic_534">
          <path d="M 308.5 662.2061 L 308.5 672.3061 C 308.5 672.58225 308.72385 672.8061 309 672.8061 C 309.27613 672.8061 309.5 672.58225 309.5 672.3061 L 309.5 662.2061 C 309.5 661.93 309.27613 661.7061 309 661.7061 C 308.72385 661.7061 308.5 661.93 308.5 662.2061 Z M 309.5 680.3061 L 309.5 672.3061 L 308.5 672.3061 L 308.5 680.3061 Z M 312.64644 675.95256 L 308.64644 679.95256 L 309.35354 679.95256 L 305.35354 675.95256 L 304.64644 676.6597 L 308.64644 680.6597 L 309 681.0132 L 309.35354 680.6597 L 313.35354 676.6597 Z" fill="#616161"/>
        </g>
        <g id="Graphic_535">
          <path d="M 54.89999 745.2061 L 240.99999 745.2061 C 241.27613 745.2061 241.49999 744.9823 241.49999 744.7061 C 241.49999 744.43 241.27613 744.2061 240.99999 744.2061 L 54.89999 744.2061 C 54.62385 744.2061 54.39999 744.43 54.39999 744.7061 C 54.39999 744.9823 54.62385 745.2061 54.89999 745.2061 Z M 46.89999 745.2061 L 54.89999 745.2061 L 54.89999 744.2061 L 46.89999 744.2061 Z M 51.253545 748.3526 L 47.253545 744.3526 L 47.253545 745.0597 L 51.253545 741.0597 L 50.54644 740.3526 L 46.54644 744.3526 L 46.192885 744.7061 L 46.54644 745.0597 L 50.54644 749.0597 Z" fill="#616161"/>
        </g>
        <g id="Graphic_536">
          <path d="M 45.332365 442.5046 L 53.891735 442.5046 L 53.391735 442.0046 L 53.391735 592.77384 L 53.891735 592.27384 L 45.332365 592.27384 C 45.05622 592.27384 44.832365 592.4977 44.832365 592.77384 C 44.832365 593.05 45.05622 593.27384 45.332365 593.27384 L 53.891735 593.27384 C 54.16788 593.27384 54.391735 593.05 54.391735 592.77384 L 54.391735 442.0046 C 54.391735 441.72846 54.16788 441.5046 53.891735 441.5046 L 45.332365 441.5046 C 45.05622 441.5046 44.832365 441.72846 44.832365 442.0046 C 44.832365 442.28075 45.05622 442.5046 45.332365 442.5046 Z" fill="#616161"/>
        </g>
        <g id="Graphic_537">
          <path d="M 54.51565 483.3843 L 76.53303 483.3843 C 76.809175 483.3843 77.03303 483.16046 77.03303 482.8843 C 77.03303 482.6082 76.809175 482.3843 76.53303 482.3843 L 54.51565 482.3843 C 54.23951 482.3843 54.01565 482.6082 54.01565 482.8843 C 54.01565 483.16046 54.23951 483.3843 54.51565 483.3843 Z M 84.53303 482.3843 L 76.53303 482.3843 L 76.53303 483.3843 L 84.53303 483.3843 Z M 80.17948 479.23787 L 84.17948 483.23787 L 84.17948 482.53076 L 80.17948 486.53076 L 80.88659 487.23787 L 84.88659 483.23787 L 85.24014 482.8843 L 84.88659 482.53076 L 80.88659 478.53076 Z" fill="#616161"/>
        </g>
        <g id="Group_349">
          <g id="Graphic_75">
            <rect x="84.99999" y="430.20613" width="136" height="87" fill="white"/>
            <rect x="84.99999" y="430.20613" width="136" height="87" stroke="#dfdfdf" stroke-linecap="round" stroke-linejoin="round" stroke-width="2" clip-path="url(#inner_stroke_clip_path_6)"/>
          </g>
          <g id="Graphic_74">
            <rect x="101" y="478.2061" width="104" height="1" fill="#dfdfdf"/>
          </g>
          <g id="Graphic_72">
            <text transform="translate(123.6123 449.2061)" fill="#212121">
              <tspan font-family="Roboto" font-size="12" fill="#212121" x="0" y="11">Messaging</tspan>
            </text>
          </g>
          <g id="Graphic_71">
            <rect x="84.99999" y="516.2061" width="136" height="20" fill="#dfdfdf"/>
            <text transform="translate(84.99999 520.7061)" fill="#757575">
              <tspan font-family="Roboto" font-size="10" fill="#757575" x="27.125977" y="9">Proximity Streams</tspan>
            </text>
          </g>
          <g id="Group_334">
            <g id="Graphic_73">
              <text transform="translate(144.8915 491.2061)" fill="#757575">
                <tspan font-family="Roboto" font-size="10" fill="#757575" x="0" y="9">Pub/Sub</tspan>
              </text>
            </g>
            <g id="Group_333">
              <g id="Graphic_332">
                <circle cx="134.53322" cy="493.062" r="1.88966547038148" fill="#669df6"/>
              </g>
              <g id="Graphic_331">
                <circle cx="119.28459" cy="493.062" r="1.88966547038149" fill="#669df6"/>
              </g>
              <g id="Graphic_330">
                <circle cx="126.9089" cy="506.26047" r="1.88966547038148" fill="#669df6"/>
              </g>
              <g id="Group_326">
                <g id="Graphic_329">
                  <path d="M 126.472 498.2177 L 127.34387 496.7076 L 134.97032 501.1107 L 134.09845 502.62083 Z" fill="#4285f4"/>
                </g>
                <g id="Graphic_328">
                  <path d="M 118.8483 501.10784 L 126.47475 496.7047 L 127.34662 498.21484 L 119.72017 502.61797 Z" fill="#4285f4"/>
                </g>
                <g id="Graphic_327">
                  <rect x="126.04068" y="488.65524" width="1.7437426" height="8.806265" fill="#4285f4"/>
                </g>
              </g>
              <g id="Graphic_325">
                <circle cx="126.9089" cy="497.4615" r="3.04973037304808" fill="#aecbfa"/>
              </g>
              <g id="Graphic_324">
                <circle cx="119.28459" cy="501.861" r="2.39308986210472" fill="#aecbfa"/>
              </g>
              <g id="Graphic_323">
                <circle cx="134.53322" cy="501.861" r="2.39308986210472" fill="#aecbfa"/>
              </g>
              <g id="Graphic_322">
                <circle cx="126.9089" cy="488.65524" r="2.39308986210471" fill="#aecbfa"/>
              </g>
            </g>
          </g>
        </g>
      </g>
    </g>
  </g>
</svg>
