<?xml version="1.0" encoding="UTF-8" standalone="no"?>
<!DOCTYPE svg PUBLIC "-//W3C//DTD SVG 1.1//EN" "http://www.w3.org/Graphics/SVG/1.1/DTD/svg11.dtd">
<svg xmlns:xl="http://www.w3.org/1999/xlink" xmlns:dc="http://purl.org/dc/elements/1.1/" version="1.1" xmlns="http://www.w3.org/2000/svg" viewBox="-57 368 786 396" width="786" height="396">
  <defs>
    <clipPath id="inner_stroke_clip_path">
      <path d="M 356.3 539 L 492.3 539 L 492.3 626 L 356.3 626 Z"/>
    </clipPath>
    <clipPath id="inner_stroke_clip_path_2">
      <path d="M 356.3 432 L 492.3 432 L 492.3 519 L 356.3 519 Z"/>
    </clipPath>
    <clipPath id="inner_stroke_clip_path_3">
      <path d="M 356.3 646 L 492.3 646 L 492.3 733 L 356.3 733 Z"/>
    </clipPath>
    <clipPath id="inner_stroke_clip_path_4">
      <path d="M 572.3 539 L 708.3 539 L 708.3 626 L 572.3 626 Z"/>
    </clipPath>
    <clipPath id="inner_stroke_clip_path_5">
      <path d="M 572.3 646 L 708.3 646 L 708.3 733 L 572.3 733 Z"/>
    </clipPath>
    <clipPath id="inner_stroke_clip_path_6">
      <path d="M 572.3 432 L 708.3 432 L 708.3 519 L 572.3 519 Z"/>
    </clipPath>
    <clipPath id="inner_stroke_clip_path_7">
      <path d="M 180.30002 539 L 316.3 539 L 316.3 626 L 180.30002 626 Z"/>
    </clipPath>
    <clipPath id="inner_stroke_clip_path_8">
      <path d="M -15.69999 636.5 L 120.30001 636.5 L 120.30001 723.5 L -15.69999 723.5 Z"/>
    </clipPath>
    <clipPath id="inner_stroke_clip_path_9">
      <path d="M -15.69999 465.5 L 120.30001 465.5 L 120.30001 552.5 L -15.69999 552.5 Z"/>
    </clipPath>
  </defs>
  <g id="diagram_2" fill="none" fill-opacity="1" stroke="none" stroke-opacity="1" stroke-dasharray="none">
    <title>diagram_2</title>
    <g id="diagram_2_Layer_1">
      <title>Layer 1</title>
      <g id="Group_452">
        <g id="Graphic_451">
          <rect x="-57" y="368" width="784.6" height="395.5" fill="#eaedef"/>
        </g>
        <g id="Group_443">
          <title>_294x96</title>
          <g id="Graphic_450">
            <path d="M 36.624163 400.228 C 34.461287 400.228 32.65372 399.5135 31.20146 398.08444 C 29.749203 396.6554 29.028244 394.872 29.038586 392.73424 C 29.038586 390.59502 29.759544 388.81743 31.20146 387.40146 C 32.64338 385.95934 34.450946 385.2383 36.624163 385.2383 C 38.823973 385.2383 40.610857 386.0196 41.984815 387.58227 L 40.639666 388.86536 C 39.67242 387.6595 38.185983 386.96924 36.624163 387.00063 C 35.10467 386.96266 33.636586 387.54275 32.566555 388.60395 C 31.492504 389.6612 30.95548 391.04088 30.95548 392.74295 C 30.95548 394.44502 31.493243 395.81525 32.56877 396.85363 C 33.636168 397.91835 35.10393 398.5018 36.624163 398.46567 C 38.321666 398.46567 39.79904 397.7642 41.056285 396.3613 L 42.42138 397.66836 C 41.730323 398.48264 40.85848 399.13026 39.87291 399.5614 C 38.8518 400.012 37.74338 400.23945 36.624163 400.228 Z M 45.51943 385.5585 L 45.51943 399.90343 L 43.64243 399.90343 L 43.64243 385.5585 Z M 46.873446 394.9976 C 46.873446 393.48724 47.35655 392.2383 48.32275 391.25073 C 49.28526 390.2675 50.624935 389.7289 52.01249 389.76722 C 53.3944 389.7279 54.728324 390.2671 55.68229 391.25073 C 56.66031 392.23973 57.14932 393.4887 57.14932 394.9976 C 57.14932 396.50654 56.66031 397.75623 55.68229 398.7467 C 54.727934 399.7295 53.39406 400.2679 52.01249 400.228 C 50.62522 400.2672 49.28549 399.72933 48.32275 398.7467 C 47.35655 397.7577 46.873446 396.508 46.873446 394.9976 Z M 48.75045 394.9976 C 48.75045 396.05343 49.062914 396.9088 49.687844 397.5638 C 50.292705 398.1927 51.13429 398.549 52.01471 398.549 C 52.89513 398.549 53.73671 398.1927 54.34157 397.5638 C 54.9665 396.9088 55.278966 396.05343 55.278966 394.9976 C 55.278966 393.9418 54.965024 393.09368 54.33714 392.4532 C 53.7387 391.81304 52.894725 391.4487 52.010276 391.4487 C 51.125827 391.4487 50.281854 391.81304 49.68341 392.4532 C 49.061437 393.10675 48.75045 393.9549 48.75045 394.9976 Z M 67.25678 399.90343 L 65.46177 399.90343 L 65.46177 398.54627 L 65.37977 398.54627 C 65.0609 399.05693 64.606614 399.47263 64.06565 399.74876 C 63.502394 400.0617 62.86665 400.22673 62.21967 400.228 C 60.996404 400.228 60.055316 399.88455 59.39641 399.1976 C 58.7375 398.5107 58.408044 397.53185 58.408044 396.2611 L 58.408044 390.08745 L 60.28283 390.08745 L 60.28283 396.1413 C 60.3242 397.7388 61.14636 398.53755 62.74931 398.53755 C 63.482565 398.54445 64.176954 398.21403 64.62631 397.6444 C 65.13088 397.04524 65.39844 396.28715 65.37977 395.50955 L 65.37977 390.08745 L 67.25678 390.08745 Z M 73.34873 400.22365 C 72.05366 400.2272 70.82288 399.6693 69.98475 398.69876 C 69.06499 397.6799 68.570346 396.3573 68.59971 394.99544 C 68.571 393.63367 69.065564 392.3113 69.98475 391.2921 C 70.82288 390.3216 72.05366 389.7637 73.34873 389.76722 C 74.04687 389.75895 74.73662 389.91743 75.3587 390.22905 C 75.92758 390.50532 76.40995 390.92757 76.754815 391.45114 L 76.83681 391.45114 L 76.754815 390.08745 L 76.754815 385.5585 L 78.6296 385.5585 L 78.6296 399.90343 L 76.83681 399.90343 L 76.83681 398.54627 L 76.754815 398.54627 C 76.40995 399.06984 75.92758 399.4921 75.3587 399.76836 C 74.73642 400.07923 74.04669 400.23696 73.34873 400.228 Z M 73.654545 398.5419 C 74.52143 398.5662 75.35334 398.20534 75.91936 397.55944 C 76.53099 396.90446 76.83681 396.04907 76.83681 394.99326 C 76.87177 394.06123 76.54364 393.1512 75.91936 392.44886 C 75.35718 391.79567 74.52471 391.42734 73.654545 391.4468 C 72.78644 391.4342 71.9575 391.8013 71.39195 392.44886 C 70.76767 393.1512 70.43954 394.06123 70.4745 394.99326 C 70.4745 396.03745 70.78031 396.8863 71.39195 397.53984 C 71.95722 398.18825 72.78591 398.55687 73.654545 398.54627 Z" fill="#5f6368"/>
          </g>
          <g id="Graphic_449">
            <path d="M -33.456556 400.22583 C -38.003913 400.22583 -41.824403 396.5835 -41.824403 392.1134 C -41.824403 387.64326 -38.003913 384.00094 -33.456556 384.00094 C -31.34378 383.96857 -29.306818 384.77423 -27.8056 386.236 L -29.394515 387.8001 C -30.483264 386.76655 -31.943123 386.1974 -33.456556 386.2164 C -35.039737 386.21683 -36.556707 386.84093 -37.668244 387.94915 C -38.77978 389.05736 -39.39316 390.55724 -39.371223 392.1134 C -39.392564 393.66915 -38.77892 395.16847 -37.667446 396.2762 C -36.555974 397.38395 -35.039347 398.00776 -33.456556 398.0082 C -31.30476 398.0082 -30.07928 397.1586 -29.294793 396.38745 C -28.64992 395.75353 -28.228867 394.84295 -28.067095 393.5969 L -33.51639 393.5969 L -33.51639 391.38144 L -25.868762 391.38144 C -25.782126 391.8375 -25.741302 392.3008 -25.74688 392.76473 C -25.74688 394.42687 -26.210036 396.4855 -27.69923 397.9494 C -29.152965 399.4329 -31.003376 400.22583 -33.456556 400.22583 Z" fill="#4285f4"/>
          </g>
          <g id="Graphic_448">
            <path d="M -14.309787 395.00197 C -14.309787 397.88944 -16.690982 400.2302 -19.628334 400.2302 C -22.565686 400.2302 -24.94688 397.88944 -24.94688 395.00197 C -24.94688 392.1115 -22.563206 389.7683 -19.622794 389.7683 C -16.682382 389.7683 -14.298707 392.1115 -14.298707 395.00197 Z M -16.641083 395.00197 C -16.641083 393.122 -18.026122 391.83673 -19.632766 391.83673 C -21.23941 391.83673 -22.626665 393.122 -22.626665 395.00197 C -22.626665 396.88195 -21.23941 398.1607 -19.632766 398.1607 C -18.026122 398.1607 -16.641083 396.85363 -16.641083 395.00197 Z" fill="#ea4335"/>
          </g>
          <g id="Graphic_447">
            <path d="M -2.722003 395.00197 C -2.722003 397.88944 -5.1031977 400.2302 -8.04055 400.2302 C -10.977902 400.2302 -13.359097 397.88944 -13.359097 395.00197 C -13.359097 392.1145 -10.977902 389.77376 -8.04055 389.77376 C -5.1031977 389.77376 -2.722003 392.1145 -2.722003 395.00197 Z M -5.0532995 395.00197 C -5.0532995 393.122 -6.438338 391.83673 -8.044982 391.83673 C -9.651626 391.83673 -11.038881 393.122 -11.038881 395.00197 C -11.038881 396.88195 -9.653842 398.1607 -8.044982 398.1607 C -6.436122 398.1607 -5.0532995 396.85363 -5.0532995 395.00197 Z" fill="#fbbc04"/>
          </g>
          <g id="Graphic_446">
            <path d="M 8.362735 390.1005 L 8.362735 399.46774 C 8.362735 403.32573 6.049167 404.9138 3.3145475 404.9138 C 1.2521996 404.9241 -.610082 403.7028 -1.3923664 401.82697 L .63976165 400.99264 C 1.0009796 401.8422 1.885188 402.85083 3.3145475 402.85083 C 5.06302 402.85083 6.151106 401.7834 6.151106 399.7858 L 6.151106 399.03206 L 6.0691115 399.03206 C 5.3601395 399.81194 4.338291 400.2461 3.2746584 400.2193 C .615385 400.2193 -1.8222823 397.94284 -1.8222823 395.01504 C -1.8222823 392.08724 .615385 389.7716 3.2746584 389.7716 C 4.3338313 389.74654 5.352448 390.17215 6.0691115 390.9392 L 6.151106 390.9392 L 6.151106 390.1005 Z M 6.310662 395.0281 C 6.310662 393.18735 5.06302 391.84326 3.474104 391.84326 C 1.885188 391.84326 .5178783 393.18735 .5178783 395.0281 C .5178783 396.8689 1.8652435 398.1607 3.474104 398.1607 C 5.082964 398.1607 6.310662 396.84056 6.310662 395.0216 Z" fill="#4285f4"/>
          </g>
          <g id="Graphic_445">
            <rect x="10.031429" y="384.55426" width="2.3423767" height="15.349167" fill="#34a853"/>
          </g>
          <g id="Graphic_444">
            <path d="M 21.41755 396.72293 L 23.228073 397.91017 C 22.24101 399.3658 20.575522 400.23596 18.79595 400.22583 C 15.779892 400.22583 13.526157 397.92977 13.526157 394.9976 C 13.526157 391.8912 15.799836 389.7694 18.534456 389.7694 C 21.269075 389.7694 22.636385 391.92604 23.079597 393.09368 L 23.327796 393.6949 L 16.2364 396.5835 C 16.779335 397.6335 17.623654 398.1672 18.811463 398.1672 C 19.999272 398.1672 20.814783 397.5943 21.41755 396.72293 Z M 15.846373 394.84295 L 20.593176 392.90415 C 20.331681 392.25063 19.547196 391.79534 18.620882 391.79534 C 17.839152 391.83057 17.104687 392.1734 16.582825 392.7466 C 16.060963 393.31985 15.795564 394.0753 15.846373 394.84295 Z" fill="#ea4335"/>
          </g>
        </g>
        <g id="Graphic_119">
          <rect x="356.3" y="539" width="136" height="87" fill="white"/>
          <rect x="356.3" y="539" width="136" height="87" stroke="#dfdfdf" stroke-linecap="round" stroke-linejoin="round" stroke-width="2" clip-path="url(#inner_stroke_clip_path)"/>
        </g>
        <g id="Graphic_118">
          <rect x="372.3" y="587" width="104" height="1" fill="#dfdfdf"/>
        </g>
        <g id="Graphic_116">
          <text transform="translate(403.5051 558)" fill="#212121">
            <tspan font-family="Roboto" font-size="12" fill="#212121" x="0" y="11">Storage</tspan>
          </text>
        </g>
        <g id="Graphic_133">
          <rect x="356.3" y="432" width="136" height="87" fill="white"/>
          <rect x="356.3" y="432" width="136" height="87" stroke="#dfdfdf" stroke-linecap="round" stroke-linejoin="round" stroke-width="2" clip-path="url(#inner_stroke_clip_path_2)"/>
        </g>
        <g id="Graphic_132">
          <rect x="372.3" y="480" width="104" height="1" fill="#dfdfdf"/>
        </g>
        <g id="Graphic_131">
          <text transform="translate(403.5051 451)" fill="#212121">
            <tspan font-family="Roboto" font-size="12" fill="#212121" x="0" y="11">Storage</tspan>
          </text>
        </g>
        <g id="Graphic_130">
          <text transform="translate(415.4661 493)" fill="#212121">
            <tspan font-family="Roboto" font-size="10" fill="#212121" x="0" y="9">BigQuery</tspan>
          </text>
        </g>
        <g id="Group_248">
          <title>Shape</title>
          <g id="Graphic_253">
            <path d="M 393.09605 498.0268 L 393.09605 500.6945 C 393.5112 501.404 394.09546 501.9997 394.7967 502.42853 L 394.7967 498.0268 Z" fill="#aecbfa"/>
          </g>
          <g id="Graphic_252">
            <path d="M 396.2506 495.60586 L 396.2506 503.1355 C 396.6103 503.1916 396.9737 503.2206 397.3377 503.2222 C 397.66807 503.22146 397.99794 503.19695 398.32477 503.1488 L 398.32477 495.60586 Z" fill="#669df6"/>
          </g>
          <g id="Graphic_251">
            <path d="M 400.00543 499.0672 L 400.00543 502.35517 C 400.71683 501.9035 401.30017 501.27654 401.69943 500.53446 L 401.69943 499.0672 Z" fill="#aecbfa"/>
          </g>
          <g id="Graphic_250">
            <path d="M 404.10704 503.5156 L 402.6798 504.94285 C 402.5189 505.1106 402.5189 505.37536 402.6798 505.5431 L 406.22787 509.0778 C 406.30574 509.1581 406.4128 509.2034 406.52465 509.2034 C 406.6365 509.2034 406.74356 509.1581 406.82143 509.0778 L 408.24866 507.65725 C 408.40875 507.4918 408.40875 507.22916 408.24866 507.0637 L 404.7006 503.5156 C 404.53513 503.35554 404.2725 503.35554 404.10704 503.5156" fill="#4285f4"/>
          </g>
          <g id="Graphic_249">
            <path d="M 397.37773 489.1967 C 393.72834 489.1859 390.4323 491.3759 389.02824 494.7444 C 387.6242 498.1129 388.38903 501.9956 390.96573 504.57994 C 393.5424 507.1643 397.4228 507.9406 400.79547 506.54657 C 404.1681 505.1525 406.3679 501.86295 406.3679 498.21355 C 406.36794 493.24407 402.3472 489.2114 397.37773 489.1967 M 397.37773 504.8895 C 393.6944 504.8895 390.70845 501.90356 390.70845 498.2202 C 390.70845 494.5369 393.6944 491.55093 397.37773 491.55093 C 401.06107 491.55093 404.047 494.5369 404.047 498.2202 C 404.047 501.90356 401.06107 504.8895 397.37773 504.8895" fill="#669df6"/>
          </g>
        </g>
        <g id="Group_276">
          <g id="Graphic_117">
            <text transform="translate(404.1861 600)" fill="#212121">
              <tspan font-family="Roboto" font-size="10" fill="#212121" x="0" y="9">Cloud Bigtable</tspan>
            </text>
          </g>
          <g id="Group_256">
            <title>Shape</title>
            <g id="Graphic_275">
              <path d="M 391.7682 600.0141 L 387.06967 597.2158 C 386.378 596.7848 385.8784 596.1045 385.6742 595.3156 C 385.6742 595.2636 385.85235 594.9593 386.0973 595.0855 L 391.90925 598.5444 C 392.607 598.9527 392.1839 600.7712 392.1839 600.7712 C 392.19265 600.4622 392.03365 600.1726 391.7682 600.0141 Z" fill="#669df6"/>
            </g>
            <g id="Graphic_274">
              <path d="M 393.18594 606.93205 C 393.1967 607.0766 393.12857 607.21564 393.0078 607.29576 L 391.835 608.038 L 391.835 599.23474 C 391.835 598.9304 392.0206 598.6038 391.7682 598.45536 L 392.79254 599.1976 C 393.04944 599.3546 393.20027 599.6392 393.18594 599.9399 Z" fill="#aecbfa"/>
            </g>
            <g id="Graphic_273">
              <path d="M 387.06967 607.9712 C 386.99053 607.971 386.91317 607.9478 386.847 607.9044 L 382.9946 605.6108 L 382.9946 606.6129 L 387.06967 609.0475 L 387.39626 608.40916 C 387.39626 608.40916 387.1439 607.9712 387.06967 607.9712 Z" fill="#669df6"/>
            </g>
            <g id="Graphic_272">
              <path d="M 387.29235 609.98276 C 387.15455 610.0623 386.9848 610.0623 386.847 609.98276 L 382.9946 607.6743 L 382.9946 608.4166 C 382.99445 608.5739 383.07594 608.72 383.20988 608.80256 L 386.8544 610.9774 C 386.98625 611.0592 387.1531 611.0592 387.2849 610.9774 C 387.3871 610.79636 387.46212 610.6013 387.5076 610.3984 L 387.29235 609.97534 Z" fill="#669df6"/>
            </g>
            <g id="Graphic_271">
              <path d="M 387.06967 607.0063 L 391.1447 604.57164 L 391.1447 604.104 C 391.1479 603.9459 391.0656 603.7984 390.92945 603.718 L 387.2849 601.5358 C 387.15095 601.4618 386.9884 601.4618 386.8544 601.5358 L 383.20988 603.718 C 383.0737 603.7984 382.99143 603.9459 382.9946 604.104 L 382.9946 604.57164 Z" fill="#aecbfa"/>
            </g>
            <g id="Graphic_270">
              <path d="M 387.06967 605.9968 L 383.20988 603.718 C 383.0737 603.7984 382.99143 603.9459 382.9946 604.104 L 382.9946 604.57164 L 387.06967 607.0063 L 387.3814 606.37535 Z" fill="#669df6"/>
            </g>
            <g id="Graphic_269">
              <path d="M 387.06967 607.9712 L 387.06967 609.0475 L 391.1447 606.6129 L 391.1447 605.6108 L 387.29235 607.9044 C 387.2221 607.93824 387.14694 607.9608 387.06967 607.9712 Z" fill="#4285f4"/>
            </g>
            <g id="Graphic_268">
              <path d="M 387.29235 609.98276 C 387.2241 610.0205 387.14764 610.0409 387.06967 610.04214 C 387.06967 610.3539 387.02513 611.0442 387.06967 611.0442 C 387.1528 611.0466 387.23497 611.02605 387.3072 610.9848 L 390.9517 608.81 C 391.08566 608.72745 391.16715 608.5813 391.167 608.424 L 391.167 607.6743 L 387.3146 609.97534 Z" fill="#4285f4"/>
            </g>
            <g id="Graphic_267">
              <path d="M 390.92945 603.718 L 387.06967 605.9968 L 387.06967 607.0063 L 391.1447 604.57164 L 391.1447 604.104 C 391.1479 603.9459 391.0656 603.7984 390.92945 603.718 Z" fill="#4285f4"/>
            </g>
            <g id="Graphic_266">
              <path d="M 382.3711 612.3506 L 386.99544 615.097 C 387.7298 615.5399 388.24625 616.2689 388.4206 617.1085 C 388.43518 617.1884 388.4001 617.2692 388.3318 617.3131 C 388.2635 617.357 388.17546 617.3554 388.10884 617.30894 L 382.0371 613.7164 C 381.4433 613.3675 381.96287 611.6306 381.96287 611.6306 C 381.9671 611.92455 382.12104 612.196 382.3711 612.3506 Z" fill="#669df6"/>
            </g>
            <g id="Graphic_265">
              <path d="M 380.9608 612.56585 L 380.9608 605.2694 C 380.9583 605.11916 381.03424 604.9785 381.1612 604.8982 L 382.31916 604.2376 L 382.31916 613.0483 C 382.31916 613.3452 382.31916 613.7906 382.54926 613.96874 L 381.36163 613.2265 C 381.1303 613.0828 380.9814 612.8374 380.9608 612.56585 Z" fill="#aecbfa"/>
            </g>
            <g id="Graphic_264">
              <path d="M 385.02843 598.90814 C 384.77393 598.7594 384.459 598.7594 384.2045 598.90814 L 379.5208 601.6842 C 378.82073 602.0928 377.98405 602.1974 377.20494 601.9737 C 377.1227 601.92984 377.07133 601.8442 377.07133 601.751 C 377.07133 601.6578 377.1227 601.5722 377.20494 601.52834 L 384.1971 597.3568 C 384.4569 597.20835 385.02843 598.90814 385.02843 598.90814 Z" fill="#669df6"/>
            </g>
            <g id="Graphic_263">
              <path d="M 385.0136 597.3791 L 390.9517 600.8826 C 391.08373 600.94215 391.1702 601.0718 391.1744 601.2166 L 391.1744 602.5304 L 383.75173 598.1362 C 383.49904 597.9809 383.1805 597.9809 382.9278 598.1362 L 384.1971 597.3568 C 384.44796 597.2045 384.7627 597.2045 385.0136 597.3568 Z" fill="#aecbfa"/>
            </g>
            <g id="Graphic_262">
              <path d="M 389.10348 613.41946 C 389.35616 613.57475 389.6747 613.57475 389.9274 613.41946 L 394.59625 610.6434 C 395.30365 610.2237 396.1551 610.1213 396.9418 610.3613 C 397.0213 610.4019 397.07133 610.4836 397.07133 610.5729 C 397.07133 610.6621 397.0213 610.7438 396.9418 610.7844 L 389.8977 614.9634 C 389.6379 615.1118 389.0738 613.4046 389.0738 613.4046 Z" fill="#669df6"/>
            </g>
            <g id="Graphic_261">
              <path d="M 383.1802 611.48214 C 383.0843 611.3786 383.01994 611.24985 382.9946 611.111 L 382.9946 609.81204 L 390.4173 614.19884 C 390.6718 614.3476 390.9867 614.3476 391.2412 614.19884 L 389.9274 614.9782 C 389.6729 615.12695 389.358 615.12695 389.10348 614.9782 Z" fill="#aecbfa"/>
            </g>
            <g id="Graphic_260">
              <path d="M 380.68617 603.7477 C 380.4231 603.9013 380.264 604.18544 380.2705 604.49 L 380.2705 610.0347 C 380.2654 610.8774 379.9169 611.68156 379.30555 612.2615 C 379.24923 612.31745 379.1652 612.3349 379.0913 612.30595 C 379.0174 612.277 378.9675 612.2072 378.9641 612.1279 C 378.9641 611.9275 378.9641 603.69576 378.9641 603.69576 C 378.9641 603.3914 380.6936 603.7403 380.6936 603.7403 Z" fill="#669df6"/>
            </g>
            <g id="Graphic_259">
              <path d="M 384.58307 600.08834 C 384.70666 600.0152 384.8603 600.0152 384.9839 600.08834 L 386.08987 600.74154 L 379.33524 604.70524 C 379.06877 604.8573 378.9044 605.1407 378.90473 605.4475 L 378.90473 603.88875 C 378.90133 603.5831 379.06306 603.2993 379.3278 603.1465 Z" fill="#aecbfa"/>
            </g>
            <g id="Graphic_258">
              <path d="M 393.93563 607.7931 L 393.93563 602.2706 C 393.93635 601.433 394.2733 600.6307 394.8709 600.0438 C 394.8709 600.0438 395.24202 599.92505 395.21976 600.2813 C 395.1975 600.6376 395.21976 608.4834 395.21976 608.4834 C 394.8709 608.8916 393.42347 608.4834 393.42347 608.4834 C 393.70127 608.3563 393.8946 608.0958 393.93563 607.7931 Z" fill="#669df6"/>
            </g>
            <g id="Graphic_257">
              <path d="M 394.8412 609.0995 L 389.5711 612.2764 C 389.4425 612.3506 389.28404 612.3506 389.15544 612.2764 L 388.0569 611.6306 L 394.8412 607.5407 C 395.1014 607.3852 395.2575 607.10145 395.24945 606.79844 L 395.24945 608.3498 C 395.2346 608.66895 394.8412 609.0995 394.8412 609.0995 Z" fill="#aecbfa"/>
            </g>
          </g>
        </g>
        <g id="Group_333">
          <g id="Graphic_101">
            <rect x="356.3" y="646" width="136" height="87" fill="white"/>
            <rect x="356.3" y="646" width="136" height="87" stroke="#dfdfdf" stroke-linecap="round" stroke-linejoin="round" stroke-width="2" clip-path="url(#inner_stroke_clip_path_3)"/>
          </g>
          <g id="Graphic_100">
            <rect x="372.3" y="694" width="104" height="1" fill="#dfdfdf"/>
          </g>
          <g id="Graphic_98">
            <text transform="translate(403.5051 665)" fill="#212121">
              <tspan font-family="Roboto" font-size="12" fill="#212121" x="0" y="11">Storage</tspan>
            </text>
          </g>
          <g id="Group_332">
            <g id="Graphic_99">
              <text transform="translate(403.47334 707)" fill="#212121">
                <tspan font-family="Roboto" font-size="10" fill="#212121" x="0" y="9">Cloud Storage</tspan>
              </text>
            </g>
            <g id="Group_319">
              <g id="Graphic_331">
                <rect x="376.35856" y="704.5" width="20" height="7" fill="#aecbfa"/>
              </g>
              <g id="Graphic_330">
                <rect x="394.35856" y="704.5" width="2" height="7" fill="#669df6"/>
              </g>
              <g id="Graphic_329">
                <path d="M 396.35856 704.5 L 394.35856 704.5 L 394.35856 711.5 Z" fill="#4285f4"/>
              </g>
              <g id="Graphic_328">
                <rect x="376.35856" y="704.5" width="2" height="7" fill="#669df6"/>
              </g>
              <g id="Graphic_327">
                <rect x="380.35856" y="707.5" width="6" height="1" fill="white"/>
              </g>
              <g id="Graphic_326">
                <path d="M 390.85856 706.5 L 390.85856 706.5 C 391.687 706.5 392.35856 707.1716 392.35856 708 L 392.35856 708 C 392.35856 708.8284 391.687 709.5 390.85856 709.5 L 390.85856 709.5 C 390.03013 709.5 389.35856 708.8284 389.35856 708 L 389.35856 708 C 389.35856 707.1716 390.03013 706.5 390.85856 706.5 Z" fill="white"/>
              </g>
              <g id="Graphic_325">
                <rect x="376.35856" y="713.5" width="20" height="7" fill="#aecbfa"/>
              </g>
              <g id="Graphic_324">
                <rect x="394.35856" y="713.5" width="2" height="7" fill="#669df6"/>
              </g>
              <g id="Graphic_323">
                <path d="M 396.35856 713.5 L 394.35856 713.5 L 394.35856 720.5 Z" fill="#4285f4"/>
              </g>
              <g id="Graphic_322">
                <rect x="376.35856" y="713.5" width="2" height="7" fill="#669df6"/>
              </g>
              <g id="Graphic_321">
                <rect x="380.35856" y="716.5" width="6" height="1" fill="white"/>
              </g>
              <g id="Graphic_320">
                <path d="M 390.85856 715.5 L 390.85856 715.5 C 391.687 715.5 392.35856 716.1716 392.35856 717 L 392.35856 717 C 392.35856 717.8284 391.687 718.5 390.85856 718.5 L 390.85856 718.5 C 390.03013 718.5 389.35856 717.8284 389.35856 717 L 389.35856 717 C 389.35856 716.1716 390.03013 715.5 390.85856 715.5 Z" fill="white"/>
              </g>
            </g>
          </g>
        </g>
        <g id="Group_373">
          <g id="Graphic_80">
            <rect x="572.3" y="539" width="136" height="87" fill="white"/>
            <rect x="572.3" y="539" width="136" height="87" stroke="#dfdfdf" stroke-linecap="round" stroke-linejoin="round" stroke-width="2" clip-path="url(#inner_stroke_clip_path_4)"/>
          </g>
          <g id="Graphic_79">
            <rect x="588.3" y="587" width="104" height="1" fill="#dfdfdf"/>
          </g>
          <g id="Graphic_77">
            <text transform="translate(610.4025 558)" fill="#212121">
              <tspan font-family="Roboto" font-size="12" fill="#212121" x="0" y="11">Processing</tspan>
            </text>
          </g>
          <g id="Group_372">
            <g id="Graphic_78">
              <text transform="translate(631.98 600)" fill="#212121">
                <tspan font-family="Roboto" font-size="10" fill="#212121" x="0" y="9">Dataproc</tspan>
              </text>
            </g>
            <g id="Group_357">
              <g id="Graphic_371">
                <title>Container</title>
              </g>
              <g id="Group_358">
                <title>Shape</title>
                <g id="Graphic_370">
                  <title>Rectangle-path</title>
                  <path d="M 621.65124 607.8438 L 610.7697 614.1259 L 609.72805 612.331 L 620.6096 606.0409 Z" fill="#aecbfa"/>
                </g>
                <g id="Graphic_369">
                  <path d="M 610.72966 612.0826 L 610.72966 599.5184 L 612.7249 599.5184 L 612.7329 610.56816 Z" fill="#aecbfa"/>
                </g>
                <g id="Graphic_368">
                  <path d="M 612.797 603.036 L 612.51654 600.50396 L 623.39805 606.77806 L 622.3644 608.58096 Z" fill="#aecbfa"/>
                </g>
                <g id="Graphic_367">
                  <path d="M 617.9573 603.645 L 612.51654 600.50396 L 612.797 603.028 L 614.3996 603.9495 C 615.5711 604.3667 616.8659 604.2556 617.9493 603.645 Z" fill="#4285f4"/>
                </g>
                <g id="Graphic_366">
                  <path d="M 611.2665 601.5296 C 610.5278 600.28394 610.5189 598.7366 611.2431 597.4825 C 611.96735 596.22834 613.312 595.4627 614.76015 595.4799 C 616.1994 595.4816 617.5308 596.24325 618.2618 597.4831 C 619.3681 599.4148 618.6991 601.8776 616.7674 602.98395 C 614.8357 604.0903 612.3729 603.4212 611.2665 601.48954 Z M 616.4589 598.5408 C 616.15615 598.0105 615.623 597.6521 615.0177 597.5719 C 614.4123 597.4917 613.8043 597.69895 613.3739 598.13214 C 613.0062 598.4993 612.8012 598.9987 612.805 599.5184 C 612.8711 600.5518 613.7286 601.3562 614.76416 601.3562 C 615.7997 601.3562 616.6572 600.5518 616.7233 599.5184 C 616.72115 599.1777 616.63 598.84344 616.4589 598.5488 Z" fill="#aecbfa"/>
                </g>
                <g id="Graphic_365">
                  <path d="M 610.72966 606.4976 L 610.72966 612.1066 L 612.7329 610.5922 L 612.7329 608.82936 C 612.45916 607.78546 611.7204 606.9255 610.72966 606.4976 Z" fill="#4285f4"/>
                </g>
                <g id="Graphic_364">
                  <path d="M 616.8195 610.63226 L 621.6272 607.8438 L 619.2634 606.8021 L 617.93326 607.6034 C 617.1922 608.44694 616.78726 609.5335 616.7954 610.6563 Z" fill="#4285f4"/>
                </g>
                <g id="Graphic_363">
                  <path d="M 605.25685 612.6515 C 604.1671 610.7344 604.8315 608.29705 606.7434 607.1981 C 608.6553 606.0992 611.0958 606.7519 612.20385 608.6585 C 613.3119 610.5651 612.67096 613.0087 610.7697 614.1259 C 609.845 614.6693 608.741 614.8192 607.7048 614.5421 C 606.66866 614.265 605.7869 613.584 605.25685 612.6515 Z M 610.4492 609.6547 C 610.1889 609.20325 609.7591 608.8744 609.2553 608.7412 C 608.7544 608.6052 608.21975 608.67745 607.7729 608.94154 C 606.83624 609.4826 606.51375 610.6794 607.05174 611.61785 C 607.6127 612.514 608.7826 612.80504 609.698 612.2761 C 610.6134 611.7471 610.9455 610.5882 610.4492 609.6547 Z" fill="#aecbfa"/>
                </g>
                <g id="Graphic_362">
                  <path d="M 617.8932 612.29894 C 617.2509 611.21516 617.1558 609.8924 617.6364 608.7279 C 618.11704 607.56335 619.1174 606.6927 620.3371 606.3774 C 622.10115 605.90574 623.9625 606.6739 624.88044 608.2524 C 625.5816 609.4959 625.5816 611.0154 624.88044 612.2589 C 624.3572 613.1872 623.4857 613.8689 622.4587 614.1531 C 621.4316 614.4373 620.33366 614.3006 619.4076 613.7733 C 618.7963 613.4185 618.2881 612.9103 617.93326 612.29894 Z M 623.0775 609.2941 C 622.9081 608.9967 622.6618 608.7504 622.3644 608.58096 C 621.5966 608.1296 620.6208 608.2542 619.9911 608.88395 C 619.3613 609.5137 619.23674 610.4895 619.6881 611.2573 C 619.8575 611.5547 620.1038 611.801 620.4012 611.9704 C 620.8523 612.2307 621.3878 612.30265 621.8916 612.17074 C 622.4797 612.0112 622.96035 611.5876 623.1926 611.0243 C 623.4248 610.461 623.3823 609.8217 623.0775 609.2941 Z" fill="#aecbfa"/>
                </g>
                <g id="Graphic_361">
                  <path d="M 612.7249 609.9271 C 612.7249 609.9271 610.2168 612.05054 609.72805 612.331 L 612.78096 610.56816 C 612.7782 610.3534 612.75945 610.1391 612.7249 609.9271 Z" fill="#669df6"/>
                </g>
                <g id="Graphic_360">
                  <path d="M 613.422 603.3165 C 613.422 603.3165 612.797 599.887 612.797 599.5184 L 612.797 603.028 C 612.9975 603.1403 613.2065 603.23674 613.422 603.3165 Z" fill="#669df6"/>
                </g>
                <g id="Graphic_359">
                  <path d="M 618.92686 607.0986 C 618.92686 607.0986 621.8756 608.33256 622.3644 608.613 L 619.3115 606.8502 C 619.17566 606.92055 619.0469 607.0037 618.92686 607.0986 Z" fill="#669df6"/>
                </g>
              </g>
            </g>
          </g>
        </g>
        <g id="Graphic_65">
          <rect x="572.3" y="646" width="136" height="87" fill="white"/>
          <rect x="572.3" y="646" width="136" height="87" stroke="#dfdfdf" stroke-linecap="round" stroke-linejoin="round" stroke-width="2" clip-path="url(#inner_stroke_clip_path_5)"/>
        </g>
        <g id="Graphic_64">
          <rect x="588.3" y="694" width="104" height="1" fill="#dfdfdf"/>
        </g>
        <g id="Graphic_62">
          <text transform="translate(617.8586 665)" fill="#212121">
            <tspan font-family="Roboto" font-size="12" fill="#212121" x="0" y="11">Analysis</tspan>
          </text>
        </g>
        <g id="Graphic_63">
          <text transform="translate(631.9 706.3333)" fill="#212121">
            <tspan font-family="Roboto" font-size="10" fill="#212121" x="0" y="9">Datalab</tspan>
          </text>
        </g>
        <g id="Group_374">
          <title>24x24</title>
          <g id="Graphic_375">
            <title>Combined-Shape</title>
            <path d="M 620.61774 708.7052 C 620.6875 708.7052 620.7467 708.7536 620.76756 708.8208 L 620.7756 708.8743 L 620.7756 709.80444 C 620.7756 709.8791 620.7304 709.94255 620.66765 709.9649 L 620.61774 709.9736 L 619.9863 709.9736 L 619.9863 711.64006 C 619.9863 711.6886 619.99426 711.7366 620.00964 711.78185 L 620.0382 711.8475 L 624.2962 719.69145 C 624.4148 719.9115 624.4318 720.1753 624.3471 720.4078 L 624.2962 720.52115 L 622.7517 723.4185 C 622.6331 723.6385 622.4283 723.7861 622.198 723.8238 L 622.08096 723.8333 L 612.91906 723.8333 C 612.68186 723.8333 612.46014 723.7172 612.3145 723.5223 L 612.2483 723.4185 L 610.7038 720.52115 C 610.5852 720.3011 610.56824 720.0373 610.65296 719.8048 L 610.7038 719.69145 L 614.9506 711.8475 C 614.9732 711.8054 614.9937 711.7596 615.00484 711.7122 L 615.01365 711.64006 L 615.01365 709.9736 L 614.3822 709.9736 C 614.3125 709.9736 614.2533 709.9251 614.2324 709.8579 L 614.22434 709.80444 L 614.22434 708.8743 C 614.22434 708.79954 614.2696 708.73616 614.3323 708.7138 L 614.3822 708.7052 Z M 618.8023 709.9736 L 616.1976 709.9736 L 616.1976 711.8986 C 616.1976 712.0079 616.1775 712.1157 616.1388 712.216 L 616.0939 712.3136 L 612.0228 719.9129 C 611.9675 720.0155 611.9564 720.1373 611.98965 720.2476 L 612.0229 720.3278 L 613.0756 722.2809 C 613.1309 722.3836 613.2238 722.4547 613.3296 722.4791 L 613.41096 722.4883 L 614.7078 722.4878 L 613.5616 720.35944 C 613.5063 720.25676 613.4952 720.135 613.5284 720.0247 L 613.5616 719.9446 L 614.5604 718.0912 L 621.99996 718.0902 L 621.40886 716.9874 L 618.65615 716.98764 L 618.20845 716.1569 L 620.9638 716.1559 L 620.1358 714.6092 L 617.3557 714.6094 L 616.908 713.7787 L 619.6896 713.7777 L 618.9061 712.3136 C 618.85515 712.21895 618.82225 712.1148 618.809 712.0072 L 618.8023 711.8986 Z M 622.49906 719.0206 L 619.7495 719.0214 L 620.1972 719.867 L 622.95216 719.8658 Z M 615.9252 705.172 C 616.3529 705.172 616.6997 705.5436 616.6997 706.0018 C 616.6997 706.46 616.3529 706.8315 615.9252 706.8315 C 615.4975 706.8315 615.1507 706.46 615.1507 706.0018 C 615.1507 705.5436 615.4975 705.172 615.9252 705.172 Z M 618.84736 703.3917 C 619.489 703.3917 620.00914 703.94885 620.00914 704.6362 C 620.00914 705.3235 619.489 705.8808 618.84736 705.8808 C 618.2057 705.8808 617.68565 705.3235 617.68565 704.6362 C 617.68565 703.94885 618.2057 703.3917 618.84736 703.3917 Z M 617.0869 700.8333 C 617.5146 700.8333 617.8614 701.2049 617.8614 701.6631 C 617.8614 702.1213 617.5146 702.4928 617.0869 702.4928 C 616.65924 702.4928 616.3124 702.1213 616.3124 701.6631 C 616.3124 701.2049 616.65924 700.8333 617.0869 700.8333 Z" fill="#4285f4"/>
          </g>
        </g>
        <g id="Group_390">
          <g id="Graphic_90">
            <rect x="572.3" y="432" width="136" height="87" fill="white"/>
            <rect x="572.3" y="432" width="136" height="87" stroke="#dfdfdf" stroke-linecap="round" stroke-linejoin="round" stroke-width="2" clip-path="url(#inner_stroke_clip_path_6)"/>
          </g>
          <g id="Graphic_89">
            <rect x="588.3" y="480" width="104" height="1" fill="#dfdfdf"/>
          </g>
          <g id="Graphic_88">
            <text transform="translate(617.13495 444)" fill="#212121">
              <tspan font-family="Roboto" font-size="12" fill="#212121" x=".26367188" y="11">Machine</tspan>
              <tspan font-family="Roboto" font-size="12" fill="#212121" x="0" y="25">Learning</tspan>
            </text>
          </g>
          <g id="Group_389">
            <g id="Graphic_87">
              <text transform="translate(627.255 493)" fill="#212121">
                <tspan font-family="Roboto" font-size="10" fill="#212121" x="0" y="9">AI Platform</tspan>
              </text>
            </g>
            <g id="Group_386">
              <title>Shape</title>
              <g id="Graphic_388">
                <path d="M 615.6637 501.6283 L 616.40636 500.37547 L 619.93224 500.37547 L 621.02 498.5 L 618.837 494.74906 L 615.7687 494.74906 L 614.7034 492.8961 L 613.5181 492.8961 L 613.5181 491.6208 L 615.4611 491.6208 L 616.5189 493.49625 L 618.1093 493.49625 L 615.9262 489.7453 L 611.6427 489.7453 L 611.6427 494.74906 L 613.3831 494.74906 L 614.1108 496.0019 L 611.6427 496.0019 L 611.6427 498.5 L 613.9157 498.5 L 614.966 496.62453 L 617.7717 496.62453 L 618.4919 497.87734 L 615.6937 497.87734 L 614.6434 499.7528 L 611.6427 499.7528 L 611.6427 504.1264 L 615.056 504.1264 L 614.3283 505.3792 L 611.6427 505.3792 L 611.6427 507.2547 L 615.9262 507.2547 L 619.20456 501.6283 L 617.119 501.6283 L 616.37635 502.8736 L 613.5181 502.8736 L 613.5181 501.6283 Z" fill="#4285f4"/>
              </g>
              <g id="Graphic_387">
                <path d="M 606.37635 501.6283 L 605.63366 500.37547 L 602.1078 500.37547 L 601.02 498.5 L 603.20305 494.74906 L 606.2713 494.74906 L 607.3366 492.8961 L 608.5219 492.8961 L 608.5219 491.6208 L 606.5789 491.6208 L 605.5211 493.49625 L 603.93074 493.49625 L 606.1138 489.7453 L 610.39735 489.7453 L 610.39735 494.74906 L 608.6569 494.74906 L 607.92924 496.0019 L 610.39735 496.0019 L 610.39735 498.5 L 608.1243 498.5 L 607.074 496.62453 L 604.2683 496.62453 L 603.54814 497.87734 L 606.34634 497.87734 L 607.3966 499.7528 L 610.39735 499.7528 L 610.39735 504.1264 L 606.984 504.1264 L 607.7117 505.3792 L 610.39735 505.3792 L 610.39735 507.2547 L 606.1138 507.2547 L 602.83546 501.6283 L 604.921 501.6283 L 605.6637 502.8736 L 608.5219 502.8736 L 608.5219 501.6283 Z" fill="#669df6"/>
              </g>
            </g>
          </g>
        </g>
        <g id="Graphic_425">
          <path d="M 502.2005 451.5625 L 562.4005 451.50504 C 562.6766 451.5048 562.90026 451.2807 562.9 451.00456 C 562.8997 450.7284 562.67566 450.5048 562.3995 450.50504 L 502.19954 450.5625 C 501.9234 450.56275 501.69975 450.7868 501.7 451.06296 C 501.7003 451.3391 501.92435 451.56274 502.2005 451.5625 Z M 570.3995 450.4974 L 562.3995 450.50504 L 562.4005 451.50504 L 570.40047 451.4974 Z M 566.04296 447.3551 L 570.0468 451.3513 L 570.0461 450.6442 L 566.0499 454.648 L 566.7577 455.35444 L 570.7539 451.3506 L 571.1071 450.99673 L 570.7532 450.6435 L 566.7494 446.64733 Z M 494.2005 451.5701 L 502.2005 451.5625 L 502.19954 450.5625 L 494.19954 450.5701 Z M 498.55705 454.7124 L 494.55323 450.7162 L 494.5539 451.42333 L 498.5501 447.4195 L 497.8423 446.7131 L 493.8461 450.7169 L 493.4929 451.0708 L 493.8468 451.424 L 497.8506 455.4202 Z" fill="#616161"/>
        </g>
        <g id="Graphic_426">
          <path d="M 499.0709 557.66866 L 566.293 478.0987 C 566.4712 477.88776 566.4447 477.5723 566.2337 477.3941 C 566.0228 477.2159 565.7073 477.2424 565.5291 477.45336 L 498.307 557.0233 C 498.1288 557.23425 498.15534 557.5497 498.3663 557.7279 C 498.5772 557.90614 498.8927 557.8796 499.0709 557.66866 Z M 570.6919 471.34224 L 565.5291 477.45336 L 566.293 478.0987 L 571.4558 471.9876 Z M 565.4788 472.6373 L 571.11574 472.16316 L 570.5756 471.70683 L 571.04976 477.3438 L 572.04624 477.25995 L 571.5721 471.623 L 571.53016 471.12477 L 571.0319 471.1667 L 565.395 471.64085 Z M 493.9081 563.7798 L 499.0709 557.66866 L 498.307 557.0233 L 493.14423 563.1344 Z M 499.1212 562.4847 L 493.48427 562.95886 L 494.0244 563.4152 L 493.55025 557.77824 L 492.55377 557.86206 L 493.02794 563.499 L 493.06985 563.99725 L 493.5681 563.95534 L 499.20504 563.4812 Z" fill="#f4b400"/>
        </g>
        <g id="Graphic_427">
          <path d="M 498.29613 477.8417 L 565.5391 557.6593 C 565.717 557.8705 566.03244 557.8975 566.2436 557.7196 C 566.4548 557.54165 566.4818 557.2262 566.3039 557.01504 L 499.0609 477.19743 C 498.883 476.98625 498.56756 476.9593 498.3564 477.1372 C 498.1452 477.3151 498.1182 477.63054 498.29613 477.8417 Z M 571.4582 563.13326 L 566.3039 557.01504 L 565.5391 557.6593 L 570.69344 563.77756 Z M 571.0596 557.7765 L 570.57765 563.4128 L 571.1184 562.9572 L 565.48214 562.4753 L 565.39695 563.47165 L 571.0332 563.9536 L 571.5314 563.9962 L 571.574 563.498 L 572.05595 557.8617 Z M 493.1418 471.7235 L 498.29613 477.8417 L 499.0609 477.19743 L 493.90657 471.0792 Z M 493.5404 477.08024 L 494.02236 471.44395 L 493.4816 471.89954 L 499.11787 472.3815 L 499.20306 471.3851 L 493.5668 470.9032 L 493.0686 470.8606 L 493.026 471.35876 L 492.54405 476.99504 Z" fill="#616161"/>
        </g>
        <g id="Graphic_428">
          <path d="M 498.4838 664.366 L 566.7692 505.50105 C 566.87826 505.24735 566.761 504.9533 566.5073 504.84424 C 566.2536 504.7352 565.95954 504.85245 565.8505 505.10615 L 497.56507 663.9711 C 497.456 664.2248 497.5733 664.5189 497.827 664.6279 C 498.0807 664.737 498.37475 664.6197 498.4838 664.366 Z M 569.0097 497.75635 L 565.8505 505.10615 L 566.7692 505.50105 L 569.9284 498.15125 Z M 564.39975 500.51354 L 569.65424 498.41824 L 569.0046 498.139 L 571.0999 503.3935 L 572.0288 503.0231 L 569.9335 497.7686 L 569.7483 497.30416 L 569.28384 497.48936 L 564.02935 499.58467 Z M 495.3246 671.7158 L 498.4838 664.366 L 497.56507 663.9711 L 494.4059 671.3209 Z M 499.93454 668.9586 L 494.68004 671.0539 L 495.3297 671.33315 L 493.2344 666.07866 L 492.3055 666.44906 L 494.4008 671.70355 L 494.586 672.168 L 495.05045 671.9828 L 500.30494 669.8875 Z" fill="#0f9d58"/>
        </g>
        <g id="Graphic_429">
          <path d="M 500.5755 583.9842 L 563.92955 583.6149 C 564.2057 583.6133 564.42824 583.38814 564.4266 583.112 C 564.425 582.8359 564.19986 582.6133 563.9237 582.6149 L 500.56967 582.9842 C 500.29353 582.9858 500.071 583.21096 500.0726 583.4871 C 500.0742 583.76324 500.29936 583.9858 500.5755 583.9842 Z M 571.9236 582.5683 L 563.9237 582.6149 L 563.92955 583.6149 L 571.9294 583.5683 Z M 567.5518 579.4473 L 571.575 583.4239 L 571.5709 582.7168 L 567.5943 586.74005 L 568.3055 587.443 L 572.2821 583.4198 L 572.6336 583.0642 L 572.278 582.7127 L 568.25474 578.73606 Z M 492.57563 584.0308 L 500.5755 583.9842 L 500.56967 582.9842 L 492.5698 583.0308 Z M 496.94745 587.1518 L 492.9242 583.1752 L 492.9283 583.8823 L 496.90494 579.85906 L 496.1937 579.1561 L 492.2171 583.1793 L 491.8656 583.53494 L 492.22123 583.8864 L 496.2445 587.86304 Z" fill="#f4b400"/>
        </g>
        <g id="Graphic_430">
          <path d="M 497.5752 505.4973 L 565.8408 663.8403 C 565.9501 664.09384 566.2443 664.2108 566.4979 664.10146 C 566.7515 663.9921 566.8684 663.69794 566.7591 663.4444 L 498.4935 505.1014 C 498.38416 504.8478 498.09 504.73086 497.8364 504.8402 C 497.5828 504.9495 497.4659 505.2437 497.5752 505.4973 Z M 569.9263 670.7907 L 566.7591 663.4444 L 565.8408 663.8403 L 569.008 671.1866 Z M 571.0921 665.5472 L 569.0025 670.804 L 569.6518 670.524 L 564.39506 668.43445 L 564.0257 669.3637 L 569.28244 671.4533 L 569.7471 671.638 L 569.9318 671.17336 L 572.02135 665.9166 Z M 494.408 498.15093 L 497.5752 505.4973 L 498.4935 505.1014 L 495.3263 497.75503 Z M 493.2422 503.39445 L 495.3318 498.1377 L 494.68245 498.4176 L 499.9392 500.5072 L 500.3086 499.5779 L 495.05184 497.48834 L 494.5872 497.30365 L 494.4025 497.7683 L 492.31293 503.02506 Z" fill="#616161"/>
        </g>
        <g id="Graphic_431">
          <path d="M 498.4395 611.2867 L 565.40766 687.8903 C 565.5894 688.0982 565.9053 688.1194 566.1132 687.9376 C 566.3211 687.7559 566.3423 687.44 566.1605 687.2321 L 499.19235 610.62856 C 499.0106 610.42066 498.6947 610.39946 498.4868 610.5812 C 498.2789 610.76296 498.2577 611.0788 498.4395 611.2867 Z M 571.4259 693.25505 L 566.1605 687.2321 L 565.40766 687.8903 L 570.673 693.9132 Z M 570.9294 687.9065 L 570.5506 693.55066 L 571.08294 693.0853 L 565.4388 692.7065 L 565.3718 693.7042 L 571.016 694.083 L 571.51486 694.1165 L 571.54834 693.6176 L 571.9271 687.9735 Z M 493.1741 605.2638 L 498.4395 611.2867 L 499.19235 610.62856 L 493.927 604.6056 Z M 493.67063 610.6123 L 494.0494 604.9682 L 493.51706 605.4336 L 499.1612 605.8124 L 499.2282 604.8146 L 493.584 604.4358 L 493.08515 604.40234 L 493.05167 604.9012 L 492.6729 610.5454 Z" fill="#f4b400"/>
        </g>
        <g id="Graphic_432">
          <path d="M 499.2153 686.79795 L 565.9116 611.00005 C 566.094 610.7927 566.0738 610.4768 565.8665 610.2944 C 565.6592 610.11196 565.34327 610.13214 565.16085 610.33945 L 498.46454 686.13736 C 498.2821 686.3447 498.3023 686.6606 498.5096 686.843 C 498.7169 687.02545 499.03286 687.0053 499.2153 686.79795 Z M 570.4456 604.3335 L 565.16085 610.33945 L 565.9116 611.00005 L 571.19635 604.9941 Z M 565.2075 605.5234 L 570.85285 605.1628 L 570.322 604.6957 L 570.6826 610.341 L 571.68055 610.2773 L 571.31996 604.63194 L 571.2881 604.13296 L 570.7891 604.1648 L 565.14376 604.5254 Z M 493.9305 692.8039 L 499.2153 686.79795 L 498.46454 686.13736 L 493.1798 692.1433 Z M 499.1686 691.614 L 493.5233 691.9746 L 494.05413 692.4417 L 493.69354 686.7964 L 492.6956 686.8601 L 493.05617 692.5055 L 493.08804 693.00445 L 493.587 692.9726 L 499.2324 692.612 Z" fill="#0f9d58"/>
        </g>
        <g id="Graphic_433">
          <path d="M 502.0407 714.1992 L 563.0694 714.1992 C 563.34554 714.1992 563.5694 713.9754 563.5694 713.6992 C 563.5694 713.4231 563.34554 713.1992 563.0694 713.1992 L 502.0407 713.1992 C 501.76456 713.1992 501.5407 713.4231 501.5407 713.6992 C 501.5407 713.9754 501.76456 714.1992 502.0407 714.1992 Z M 571.0694 713.1992 L 563.0694 713.1992 L 563.0694 714.1992 L 571.0694 714.1992 Z M 566.71585 710.0528 L 570.71585 714.0528 L 570.71585 713.3457 L 566.71585 717.3457 L 567.42295 718.0528 L 571.42295 714.0528 L 571.7765 713.6992 L 571.42295 713.3457 L 567.42295 709.3457 Z M 494.0407 714.1992 L 502.0407 714.1992 L 502.0407 713.1992 L 494.0407 713.1992 Z M 498.39426 717.3457 L 494.39426 713.3457 L 494.39426 714.0528 L 498.39426 710.0528 L 497.68715 709.3457 L 493.68715 713.3457 L 493.3336 713.6992 L 493.68715 714.0528 L 497.68715 718.0528 Z" fill="#0f9d58"/>
        </g>
        <g id="Graphic_434">
          <path d="M 347.23016 688.4072 L 339.54032 688.4072 L 340.04032 688.9072 L 340.04032 475.0774 L 339.54032 475.5774 L 346.4 475.5774 C 346.67616 475.5774 346.9 475.35356 346.9 475.0774 C 346.9 474.8013 346.67616 474.5774 346.4 474.5774 L 339.54032 474.5774 C 339.2642 474.5774 339.04032 474.8013 339.04032 475.0774 L 339.04032 688.9072 C 339.04032 689.18335 339.2642 689.4072 339.54032 689.4072 L 347.23016 689.4072 C 347.5063 689.4072 347.73016 689.18335 347.73016 688.9072 C 347.73016 688.6311 347.5063 688.4072 347.23016 688.4072 Z M 354.4 474.5774 L 346.4 474.5774 L 346.4 475.5774 L 354.4 475.5774 Z M 350.04646 471.43097 L 354.04646 475.43097 L 354.04646 474.72386 L 350.04646 478.72386 L 350.75357 479.43097 L 354.75357 475.43097 L 355.10713 475.0774 L 354.75357 474.72386 L 350.75357 470.72386 Z M 355.23016 688.4072 L 347.23016 688.4072 L 347.23016 689.4072 L 355.23016 689.4072 Z M 350.8766 685.26076 L 354.8766 689.26076 L 354.8766 688.55365 L 350.8766 692.55365 L 351.5837 693.26076 L 355.5837 689.26076 L 355.93726 688.9072 L 355.5837 688.55365 L 351.5837 684.55365 Z" fill="#616161"/>
        </g>
        <g id="Graphic_435">
          <path d="M 316.1727 582.8 L 347.76207 582.8 C 348.0382 582.8 348.26207 582.5762 348.26207 582.3 C 348.26207 582.0239 348.0382 581.8 347.76207 581.8 L 316.1727 581.8 C 315.89657 581.8 315.6727 582.0239 315.6727 582.3 C 315.6727 582.5762 315.89657 582.8 316.1727 582.8 Z M 355.76207 581.8 L 347.76207 581.8 L 347.76207 582.8 L 355.76207 582.8 Z M 351.4085 578.6536 L 355.4085 582.6536 L 355.4085 581.9465 L 351.4085 585.9465 L 352.11563 586.6536 L 356.11563 582.6536 L 356.46918 582.3 L 356.11563 581.9465 L 352.11563 577.9465 Z" fill="#616161"/>
        </g>
        <g id="Graphic_436">
          <path d="M 160.82642 582.86756 L 172.07446 582.83164 C 172.3506 582.83076 172.57374 582.6062 172.57286 582.33005 C 172.57198 582.0539 172.3474 581.83076 172.07127 581.83165 L 160.82323 581.8676 C 160.54709 581.86845 160.32394 582.093 160.32483 582.36916 C 160.3257 582.6453 160.55028 582.86844 160.82642 582.86756 Z M 180.07123 581.8061 L 172.07127 581.83165 L 172.07446 582.83164 L 180.07442 582.8061 Z M 175.70765 578.6736 L 179.7204 582.6608 L 179.71814 581.9537 L 175.73094 585.9664 L 176.4403 586.6713 L 180.4275 582.6585 L 180.77993 582.30384 L 180.42524 581.9514 L 176.4125 577.9642 Z" fill="#616161"/>
        </g>
        <g id="Graphic_437">
          <path d="M 141.30002 497.5 L 160.82482 497.5 L 160.32482 497 L 160.32482 668 L 160.82482 667.5 L 141.30002 667.5 C 141.02388 667.5 140.80002 667.72386 140.80002 668 C 140.80002 668.27614 141.02388 668.5 141.30002 668.5 L 160.82482 668.5 C 161.10097 668.5 161.32482 668.27614 161.32482 668 L 161.32482 497 C 161.32482 496.72386 161.10097 496.5 160.82482 496.5 L 141.30002 496.5 C 141.02388 496.5 140.80002 496.72386 140.80002 497 C 140.80002 497.27614 141.02388 497.5 141.30002 497.5 Z" fill="#616161"/>
        </g>
        <g id="Group_423">
          <g id="Graphic_148">
            <rect x="180.30002" y="539" width="136" height="87" fill="white"/>
            <rect x="180.30002" y="539" width="136" height="87" stroke="#dfdfdf" stroke-linecap="round" stroke-linejoin="round" stroke-width="2" clip-path="url(#inner_stroke_clip_path_7)"/>
          </g>
          <g id="Graphic_147">
            <rect x="196.30002" y="587" width="104" height="1" fill="#dfdfdf"/>
          </g>
          <g id="Graphic_145">
            <text transform="translate(215.32639 551)" fill="#212121">
              <tspan font-family="Roboto" font-size="12" fill="#212121" x="1.4882812" y="11">Time Series </tspan>
              <tspan font-family="Roboto" font-size="12" fill="#212121" x="3.076172" y="25">Processing</tspan>
            </text>
          </g>
          <g id="Group_422">
            <g id="Graphic_146">
              <text transform="translate(238.0082 600)" fill="#212121">
                <tspan font-family="Roboto" font-size="10" fill="#212121" x="0" y="9">Dataflow</tspan>
              </text>
            </g>
            <g id="Group_409">
              <title>Shape</title>
              <g id="Graphic_421">
                <path d="M 227.06114 597.8367 L 226.76048 596.81 L 225.2058 596.7367 L 223.32114 597.7927 L 224.99314 599.4353 L 224.97114 601.342 L 226.0858 601.3567 L 226.1078 599.45 L 230.77914 602.2733 L 230.76448 603.4467 L 232.7078 603.476 L 232.7078 601.2173 Z" fill="#669df6"/>
              </g>
              <g id="Graphic_420">
                <path d="M 225.2058 596.7367 L 223.63648 597.1107 L 223.32114 597.7927 L 217.5278 601.012 L 217.49848 603.2707 L 219.45648 603.3 L 219.47114 602.1193 L 224.22314 599.428 L 224.20114 601.3347 L 225.1398 601.342 Z" fill="#aecbfa"/>
              </g>
              <g id="Graphic_419">
                <path d="M 225.2058 596.7367 L 221.4438 594.5 L 219.53714 595.5413 L 223.32114 597.7927 L 225.2058 596.7367 Z" fill="#669df6"/>
              </g>
              <g id="Graphic_418">
                <path d="M 230.69114 608.8733 L 225.9538 611.5647 L 225.9758 609.6653 L 224.09114 609.6433 L 224.0618 611.5427 L 224.97114 614.2633 L 226.53314 614.1387 L 226.8558 613.2073 L 232.64914 609.9807 L 232.67848 607.678 L 230.7058 607.6487 Z" fill="#669df6"/>
              </g>
              <g id="Graphic_417">
                <path d="M 224.97114 614.2633 L 221.1578 616.3973 L 221.10648 616.3973 L 219.27314 615.312 L 223.1158 613.156 L 224.97114 614.2633 Z" fill="#669df6"/>
              </g>
              <g id="Graphic_416">
                <path d="M 227.06114 597.8367 L 230.9038 595.688 L 229.07048 594.6027 L 229.01914 594.6027 L 225.2058 596.7367 Z" fill="#4285f4"/>
              </g>
              <g id="Graphic_415">
                <path d="M 226.8558 613.2073 L 230.6398 615.4587 L 228.78448 616.5 L 228.7258 616.5 L 224.97114 614.2633 Z" fill="#4285f4"/>
              </g>
              <g id="Graphic_414">
                <path d="M 224.97114 614.2633 L 223.1158 613.156 L 217.46914 609.7827 L 217.46914 607.5753 L 219.40514 607.5753 L 219.38314 608.7267 L 224.0618 611.5427 L 224.09114 609.6433 L 225.03714 609.658 Z" fill="#aecbfa"/>
              </g>
              <g id="Graphic_413">
                <title>Oval</title>
                <circle cx="231.82048" cy="605.544" r="1.25400200376897" fill="#aecbfa"/>
              </g>
              <g id="Graphic_412">
                <circle cx="218.35648" cy="605.3607" r="1.25400200376897" fill="#aecbfa"/>
              </g>
              <g id="Graphic_411">
                <circle cx="225.1618" cy="603.2927" r="1.25400200376896" fill="#aecbfa"/>
              </g>
              <g id="Graphic_410">
                <circle cx="225.05914" cy="607.7073" r="1.25400200376897" fill="#aecbfa"/>
              </g>
            </g>
          </g>
        </g>
        <g id="Group_438">
          <g id="Graphic_23">
            <title>zone internal - blue</title>
            <rect x="-36.299988" y="592.5" width="176.6" height="151" fill="#e1f6fe"/>
            <rect x="-36.299988" y="592.5" width="176.6" height="151" stroke="white" stroke-linecap="round" stroke-linejoin="round" stroke-width="2"/>
            <text transform="translate(-26.299988 607.5)" fill="#757575">
              <tspan font-family="Roboto" font-size="10" fill="#757575" x="0" y="9">Streaming</tspan>
            </text>
          </g>
          <g id="Group_205">
            <g id="Graphic_22">
              <rect x="-15.69999" y="636.5" width="136" height="87" fill="white"/>
              <rect x="-15.69999" y="636.5" width="136" height="87" stroke="#dfdfdf" stroke-linecap="round" stroke-linejoin="round" stroke-width="2" clip-path="url(#inner_stroke_clip_path_8)"/>
            </g>
            <g id="Graphic_21">
              <rect x=".3000097" y="684.5" width="104" height="1" fill="#dfdfdf"/>
            </g>
            <g id="Graphic_19">
              <text transform="translate(19.326377 648.5)" fill="#212121">
                <tspan font-family="Roboto" font-size="12" fill="#212121" x="1.4882812" y="11">Time Series </tspan>
                <tspan font-family="Roboto" font-size="12" fill="#212121" x="5.566406" y="25">Streaming</tspan>
              </text>
            </g>
            <g id="Group_191">
              <g id="Graphic_20">
                <text transform="translate(45.12142 697.5)" fill="#212121">
                  <tspan font-family="Roboto" font-size="10" fill="#212121" x="0" y="9">Pub/Sub</tspan>
                </text>
              </g>
              <g id="Group_179">
                <g id="Graphic_190">
                  <circle cx="35.630953" cy="699.5559" r="1.88966547038152" fill="#669df6"/>
                </g>
                <g id="Graphic_189">
                  <circle cx="20.382325" cy="699.5559" r="1.88966547038151" fill="#669df6"/>
                </g>
                <g id="Graphic_188">
                  <circle cx="28.00664" cy="712.7543" r="1.8896654703815" fill="#669df6"/>
                </g>
                <g id="Group_184">
                  <g id="Graphic_187">
                    <path d="M 27.569733 704.7116 L 28.441604 703.20144 L 36.068053 707.6046 L 35.19618 709.1147 Z" fill="#4285f4"/>
                  </g>
                  <g id="Graphic_186">
                    <path d="M 19.946033 707.6017 L 27.572482 703.1986 L 28.444353 704.7087 L 20.817904 709.1118 Z" fill="#4285f4"/>
                  </g>
                  <g id="Graphic_185">
                    <rect x="27.138416" y="695.1491" width="1.7437426" height="8.806265" fill="#4285f4"/>
                  </g>
                </g>
                <g id="Graphic_183">
                  <circle cx="28.00664" cy="703.9554" r="3.04973037304806" fill="#aecbfa"/>
                </g>
                <g id="Graphic_182">
                  <circle cx="20.382325" cy="708.35485" r="2.39308986210475" fill="#aecbfa"/>
                </g>
                <g id="Graphic_181">
                  <circle cx="35.630953" cy="708.35485" r="2.39308986210475" fill="#aecbfa"/>
                </g>
                <g id="Graphic_180">
                  <circle cx="28.00664" cy="695.1491" r="2.39308986210475" fill="#aecbfa"/>
                </g>
              </g>
            </g>
          </g>
        </g>
        <g id="Group_440">
          <g id="Graphic_36">
            <title>zone internal - blue</title>
            <rect x="-36.299988" y="421.5" width="176.6" height="151" fill="#e1f6fe"/>
            <rect x="-36.299988" y="421.5" width="176.6" height="151" stroke="white" stroke-linecap="round" stroke-linejoin="round" stroke-width="2"/>
            <text transform="translate(-26.299988 436.5)" fill="#757575">
              <tspan font-family="Roboto" font-size="10" fill="#757575" x="0" y="9">Batch</tspan>
            </text>
          </g>
          <g id="Group_439">
            <g id="Graphic_35">
              <rect x="-15.69999" y="465.5" width="136" height="87" fill="white"/>
              <rect x="-15.69999" y="465.5" width="136" height="87" stroke="#dfdfdf" stroke-linecap="round" stroke-linejoin="round" stroke-width="2" clip-path="url(#inner_stroke_clip_path_9)"/>
            </g>
            <g id="Graphic_34">
              <rect x=".3000097" y="513.5" width="104" height="1" fill="#dfdfdf"/>
            </g>
            <g id="Graphic_32">
              <text transform="translate(6.8136816 484.5)" fill="#212121">
                <tspan font-family="Roboto" font-size="12" fill="#212121" x="0" y="11">Time Series Files</tspan>
              </text>
            </g>
            <g id="Group_206">
              <g id="Graphic_33">
                <text transform="translate(32.507404 526.5)" fill="#212121">
                  <tspan font-family="Roboto" font-size="10" fill="#212121" x="0" y="9">Cloud Storage</tspan>
                </text>
              </g>
              <g id="Group_204">
                <g id="Graphic_203">
                  <rect x="5.392625" y="524" width="20" height="7" fill="#aecbfa"/>
                </g>
                <g id="Graphic_202">
                  <rect x="23.392625" y="524" width="2" height="7" fill="#669df6"/>
                </g>
                <g id="Graphic_201">
                  <path d="M 25.392625 524 L 23.392625 524 L 23.392625 531 Z" fill="#4285f4"/>
                </g>
                <g id="Graphic_200">
                  <rect x="5.392625" y="524" width="2" height="7" fill="#669df6"/>
                </g>
                <g id="Graphic_199">
                  <rect x="9.392625" y="527" width="6" height="1" fill="white"/>
                </g>
                <g id="Graphic_198">
                  <path d="M 19.892625 526 L 19.892625 526 C 20.721052 526 21.392625 526.6716 21.392625 527.5 L 21.392625 527.5 C 21.392625 528.3284 20.721052 529 19.892625 529 L 19.892625 529 C 19.064198 529 18.392625 528.3284 18.392625 527.5 L 18.392625 527.5 C 18.392625 526.6716 19.064198 526 19.892625 526 Z" fill="white"/>
                </g>
                <g id="Graphic_197">
                  <rect x="5.392625" y="533" width="20" height="7" fill="#aecbfa"/>
                </g>
                <g id="Graphic_196">
                  <rect x="23.392625" y="533" width="2" height="7" fill="#669df6"/>
                </g>
                <g id="Graphic_195">
                  <path d="M 25.392625 533 L 23.392625 533 L 23.392625 540 Z" fill="#4285f4"/>
                </g>
                <g id="Graphic_194">
                  <rect x="5.392625" y="533" width="2" height="7" fill="#669df6"/>
                </g>
                <g id="Graphic_193">
                  <rect x="9.392625" y="536" width="6" height="1" fill="white"/>
                </g>
                <g id="Graphic_192">
                  <path d="M 19.892625 535 L 19.892625 535 C 20.721052 535 21.392625 535.6716 21.392625 536.5 L 21.392625 536.5 C 21.392625 537.3284 20.721052 538 19.892625 538 L 19.892625 538 C 19.064198 538 18.392625 537.3284 18.392625 536.5 L 18.392625 536.5 C 18.392625 535.6716 19.064198 535 19.892625 535 Z" fill="white"/>
                </g>
              </g>
            </g>
          </g>
        </g>
      </g>
    </g>
  </g>
</svg>
