<?xml version="1.0" encoding="UTF-8" standalone="no"?>
<!DOCTYPE svg PUBLIC "-//W3C//DTD SVG 1.1//EN" "http://www.w3.org/Graphics/SVG/1.1/DTD/svg11.dtd">
<svg xmlns:xl="http://www.w3.org/1999/xlink" version="1.1" xmlns:dc="http://purl.org/dc/elements/1.1/" xmlns="http://www.w3.org/2000/svg" viewBox="73 85 885 381" width="885" height="381">
  <defs>
    <clipPath id="inner_stroke_clip_path">
      <path d="M 224.20039 246.22394 L 360.2004 246.22394 L 360.2004 333.22394 L 224.20039 333.22394 Z"/>
    </clipPath>
    <clipPath id="inner_stroke_clip_path_2">
      <path d="M 77.20039 243.22394 L 183.20039 243.22394 L 183.20039 336.22394 L 77.20039 336.22394 Z"/>
    </clipPath>
    <clipPath id="inner_stroke_clip_path_3">
      <path d="M 422.5371 165.70893 L 558.5371 165.70893 L 558.5371 252.70893 L 422.5371 252.70893 Z"/>
    </clipPath>
    <clipPath id="inner_stroke_clip_path_4">
      <path d="M 421.39874 324.4892 L 557.39874 324.4892 L 557.39874 411.4892 L 421.39874 411.4892 Z"/>
    </clipPath>
    <clipPath id="inner_stroke_clip_path_5">
      <path d="M 617.3496 233.22394 L 753.3496 233.22394 L 753.3496 320.22394 L 617.3496 320.22394 Z"/>
    </clipPath>
    <clipPath id="inner_stroke_clip_path_6">
      <path d="M 777.2004 165.92926 L 913.2004 165.92926 L 913.2004 252.92926 L 777.2004 252.92926 Z"/>
    </clipPath>
    <clipPath id="inner_stroke_clip_path_7">
      <path d="M 777.2004 311.42926 L 913.2004 311.42926 L 913.2004 398.42926 L 777.2004 398.42926 Z"/>
    </clipPath>
  </defs>
  <g id="Diagram_1" stroke-dasharray="none" stroke-opacity="1" fill-opacity="1" stroke="none" fill="none">
    <title>Diagram 1</title>
    <g id="Diagram_1_Layer_1">
      <title>Layer 1</title>
      <g id="Graphic_728">
        <rect x="203.1504" y="89.12393" width="750.6492" height="372.75214" fill="#eaedef"/>
      </g>
      <g id="Group_720">
        <title>_294x96</title>
        <g id="Graphic_727">
          <path d="M 296.39792 120.99785 C 294.23164 120.99785 292.42123 120.26984 290.9667 118.81382 C 289.51215 117.3578 288.79005 115.54073 288.8004 113.36261 C 288.8004 111.18302 289.5225 109.37187 290.9667 107.92916 C 292.41088 106.45982 294.2213 105.72515 296.39792 105.72515 C 298.6012 105.72515 300.3909 106.52123 301.767 108.11338 L 300.41974 109.4207 C 299.45098 108.19209 297.9622 107.48878 296.39792 107.52076 C 294.87604 107.48207 293.40565 108.07312 292.33393 109.15435 C 291.2582 110.23157 290.72032 111.63728 290.72032 113.37149 C 290.72032 115.1057 291.25893 116.50179 292.33615 117.55978 C 293.40523 118.64459 294.8753 119.23904 296.39792 119.20224 C 298.0981 119.20224 299.5778 118.48755 300.83702 117.05816 L 302.20426 118.38989 C 301.5121 119.21954 300.6389 119.87938 299.65178 120.31867 C 298.62906 120.77778 297.5189 121.00951 296.39792 120.99785 Z M 305.3072 106.05142 L 305.3072 120.66714 L 303.42723 120.66714 L 303.42723 106.05142 Z M 306.66333 115.66872 C 306.66333 114.12984 307.1472 112.8573 308.1149 111.8511 C 309.07894 110.84932 310.42072 110.30052 311.81046 110.33959 C 313.19454 110.2995 314.53057 110.84892 315.48603 111.8511 C 316.4656 112.85877 316.95537 114.13132 316.95537 115.66872 C 316.95537 117.20613 316.4656 118.47941 315.48603 119.48856 C 314.53018 120.48993 313.1942 121.03852 311.81046 120.99785 C 310.421 121.03777 309.07917 120.48976 308.1149 119.48856 C 307.1472 118.48089 306.66333 117.20761 306.66333 115.66872 Z M 308.5433 115.66872 C 308.5433 116.74446 308.85624 117.616 309.48216 118.28335 C 310.08797 118.9241 310.93087 119.28717 311.81268 119.28717 C 312.6945 119.28717 313.5374 118.9241 314.1432 118.28335 C 314.7691 117.616 315.08207 116.74446 315.08207 115.66872 C 315.08207 114.59298 314.76764 113.72884 314.13877 113.07629 C 313.5394 112.42402 312.6941 112.05279 311.80824 112.05279 C 310.9224 112.05279 310.0771 112.42402 309.4777 113.07629 C 308.85476 113.74215 308.5433 114.6063 308.5433 115.66872 Z M 327.07873 120.66714 L 325.2809 120.66714 L 325.2809 119.28436 L 325.19877 119.28436 C 324.8794 119.80467 324.4244 120.22821 323.88258 120.50955 C 323.31844 120.82838 322.6817 120.99655 322.0337 120.99785 C 320.8085 120.99785 319.86594 120.6479 319.206 119.94801 C 318.54605 119.24811 318.21607 118.2508 318.21607 116.95606 L 318.21607 110.66586 L 320.0938 110.66586 L 320.0938 116.83398 C 320.13524 118.46165 320.9587 119.27549 322.56417 119.27549 C 323.29858 119.28252 323.99406 118.94586 324.44412 118.36547 C 324.9495 117.755 325.21747 116.9826 325.19877 116.19032 L 325.19877 110.66586 L 327.07873 110.66586 Z M 333.18026 120.99342 C 331.88316 120.99702 330.65044 120.42857 329.811 119.43973 C 328.8898 118.40164 328.39436 117.05409 328.42377 115.6665 C 328.39502 114.27903 328.89036 112.93171 329.811 111.89327 C 330.65044 110.90443 331.88316 110.33598 333.18026 110.33959 C 333.8795 110.33116 334.57033 110.49263 335.1934 110.81013 C 335.76317 111.09162 336.2463 111.52184 336.5917 112.0553 L 336.67383 112.0553 L 336.5917 110.66586 L 336.5917 106.05142 L 338.46945 106.05142 L 338.46945 120.66714 L 336.67383 120.66714 L 336.67383 119.28436 L 336.5917 119.28436 C 336.2463 119.81782 335.76317 120.24804 335.1934 120.52953 C 334.57014 120.84626 333.8793 121.00697 333.18026 120.99785 Z M 333.48656 119.27993 C 334.3548 119.30469 335.18803 118.937 335.75494 118.27891 C 336.36753 117.61157 336.67383 116.74002 336.67383 115.66428 C 336.70885 114.71465 336.3802 113.78745 335.75494 113.07185 C 335.19187 112.40633 334.3581 112.03105 333.48656 112.05086 C 332.6171 112.03803 331.78684 112.41209 331.2204 113.07185 C 330.59514 113.78745 330.2665 114.71465 330.3015 115.66428 C 330.3015 116.72819 330.6078 117.59307 331.2204 118.25893 C 331.78657 118.91959 332.61656 119.29516 333.48656 119.28436 Z" fill="#5f6368"/>
        </g>
        <g id="Graphic_726">
          <path d="M 226.20695 120.99564 C 221.65244 120.99564 217.82594 117.28455 217.82594 112.73004 C 217.82594 108.17553 221.65244 104.46445 226.20695 104.46445 C 228.32305 104.43147 230.36322 105.25234 231.8668 106.7417 L 230.27539 108.33534 C 229.18492 107.28227 227.72277 106.70235 226.20695 106.72173 C 224.62128 106.72217 223.10193 107.35805 221.98864 108.48719 C 220.87535 109.61633 220.261 111.14452 220.28298 112.73004 C 220.2616 114.31518 220.87622 115.8428 221.98944 116.97145 C 223.10266 118.1001 224.62167 118.73569 226.20695 118.73614 C 228.36214 118.73614 229.58955 117.87051 230.37527 117.08479 C 231.02115 116.4389 231.44287 115.51113 231.6049 114.24155 L 226.14703 114.24155 L 226.14703 111.98427 L 233.80669 111.98427 C 233.89346 112.44894 233.93435 112.92102 233.92876 113.39369 C 233.92876 115.0872 233.46488 117.18467 231.97334 118.67621 C 230.51732 120.18772 228.664 120.99564 226.20695 120.99564 Z" fill="#4285f4"/>
        </g>
        <g id="Graphic_725">
          <path d="M 245.38384 115.67316 C 245.38384 118.61513 242.9989 121.00007 240.05693 121.00007 C 237.11496 121.00007 234.73002 118.61513 234.73002 115.67316 C 234.73002 112.72812 237.11744 110.3407 240.06248 110.3407 C 243.00752 110.3407 245.39494 112.72812 245.39494 115.67316 Z M 243.04888 115.67316 C 243.04888 113.75769 241.66166 112.44816 240.0525 112.44816 C 238.44332 112.44816 237.05388 113.75769 237.05388 115.67316 C 237.05388 117.58863 238.44332 118.8915 240.0525 118.8915 C 241.66166 118.8915 243.04888 117.55978 243.04888 115.67316 Z" fill="#ea4335"/>
        </g>
        <g id="Graphic_724">
          <path d="M 256.98986 115.67316 C 256.98986 118.61513 254.60492 121.00007 251.66294 121.00007 C 248.72097 121.00007 246.33603 118.61513 246.33603 115.67316 C 246.33603 112.73119 248.72097 110.34625 251.66294 110.34625 C 254.60492 110.34625 256.98986 112.73119 256.98986 115.67316 Z M 254.6549 115.67316 C 254.6549 113.75769 253.26768 112.44816 251.6585 112.44816 C 250.04933 112.44816 248.6599 113.75769 248.6599 115.67316 C 248.6599 117.58863 250.0471 118.8915 251.6585 118.8915 C 253.2699 118.8915 254.6549 117.55978 254.6549 115.67316 Z" fill="#fbbc04"/>
        </g>
        <g id="Graphic_723">
          <path d="M 268.09203 110.67918 L 268.09203 120.22323 C 268.09203 124.15405 265.77483 125.7721 263.0359 125.7721 C 260.9703 125.78261 259.1051 124.53826 258.3216 122.627 L 260.3569 121.77692 C 260.7187 122.64254 261.6043 123.67019 263.0359 123.67019 C 264.78713 123.67019 265.87693 122.58261 265.87693 120.54729 L 265.87693 119.77932 L 265.7948 119.77932 C 265.0847 120.57393 264.06126 121.01626 262.99595 120.98898 C 260.3325 120.98898 257.891 118.66955 257.891 115.68648 C 257.891 112.7034 260.3325 110.34403 262.99595 110.34403 C 264.0568 110.31851 265.077 110.75216 265.7948 111.5337 L 265.87693 111.5337 L 265.87693 110.67918 Z M 266.03673 115.6998 C 266.03673 113.82428 264.78713 112.45482 263.1957 112.45482 C 261.6043 112.45482 260.23484 113.82428 260.23484 115.6998 C 260.23484 117.57531 261.58432 118.8915 263.1957 118.8915 C 264.8071 118.8915 266.03673 117.54646 266.03673 115.69314 Z" fill="#4285f4"/>
        </g>
        <g id="Graphic_722">
          <rect x="269.76335" y="105.02821" width="2.3460616" height="15.638931" fill="#34a853"/>
        </g>
        <g id="Graphic_721">
          <path d="M 281.1674 117.4266 L 282.98076 118.63626 C 281.99214 120.11936 280.32403 121.00596 278.54166 120.99564 C 275.52086 120.99564 273.26358 118.65623 273.26358 115.66872 C 273.26358 112.50365 275.54084 110.34181 278.27976 110.34181 C 281.01868 110.34181 282.38814 112.53916 282.83205 113.72884 L 283.08064 114.34143 L 275.9781 117.28455 C 276.52188 118.35437 277.36752 118.89816 278.5572 118.89816 C 279.74688 118.89816 280.56367 118.31442 281.1674 117.4266 Z M 275.58745 115.51113 L 280.34172 113.53574 C 280.0798 112.86987 279.2941 112.40599 278.36632 112.40599 C 277.58336 112.44188 276.84774 112.79117 276.32506 113.37522 C 275.80237 113.95928 275.53656 114.729 275.58745 115.51113 Z" fill="#ea4335"/>
        </g>
      </g>
      <g id="Graphic_652">
        <title>zone internal - blue</title>
        <rect x="401.2004" y="120.51082" width="176.3967" height="182.59905" fill="#e1f6fe"/>
        <rect x="401.2004" y="120.51082" width="176.3967" height="182.59905" stroke="white" stroke-linecap="round" stroke-linejoin="round" stroke-width="2"/>
        <text transform="translate(411.2004 135.51082)" fill="#757575">
          <tspan font-family="Roboto" font-size="10" fill="#757575" x="0" y="9">Up to 80% cheaper</tspan>
        </text>
      </g>
      <g id="Graphic_577">
        <title>Stroke-21</title>
        <line x1="621.40346" y1="351.22884" x2="749.2958" y2="351.22884" stroke="white" stroke-linecap="butt" stroke-linejoin="round" stroke-width="1.732"/>
      </g>
      <g id="Graphic_576">
        <title>Stroke-22</title>
        <line x1="626.2419" y1="355.89544" x2="744.4573" y2="355.89544" stroke="white" stroke-linecap="butt" stroke-linejoin="round" stroke-width="1.601"/>
      </g>
      <g id="Graphic_574">
        <path d="M 599.6446 290.22394 L 607.4496 290.22394 C 607.72575 290.22394 607.9496 290.0001 607.9496 289.72394 C 607.9496 289.4478 607.72575 289.22394 607.4496 289.22394 L 599.6446 289.22394 C 599.3684 289.22394 599.1446 289.4478 599.1446 289.72394 C 599.1446 290.0001 599.3684 290.22394 599.6446 290.22394 Z M 615.4496 289.22394 L 607.4496 289.22394 L 607.4496 290.22394 L 615.4496 290.22394 Z M 611.09606 286.0775 L 615.09606 290.0775 L 615.09606 289.3704 L 611.09606 293.3704 L 611.8032 294.0775 L 615.8032 290.0775 L 616.1567 289.72394 L 615.8032 289.3704 L 611.8032 285.3704 Z" fill="#616161"/>
      </g>
      <g id="Graphic_573">
        <path d="M 684.8496 347.22394 L 684.8496 368.12393 C 684.8496 368.40007 685.0735 368.62393 685.3496 368.62393 L 767.3004 368.62393 C 767.5765 368.62393 767.8004 368.40007 767.8004 368.12393 C 767.8004 367.8478 767.5765 367.62393 767.3004 367.62393 L 685.3496 367.62393 L 685.8496 368.12393 L 685.8496 347.22394 C 685.8496 346.9478 685.62575 346.72394 685.3496 346.72394 C 685.0735 346.72394 684.8496 346.9478 684.8496 347.22394 Z M 775.3004 367.62393 L 767.3004 367.62393 L 767.3004 368.62393 L 775.3004 368.62393 Z M 770.9468 364.4775 L 774.9468 368.4775 L 774.9468 367.7704 L 770.9468 371.7704 L 771.6539 372.4775 L 775.6539 368.4775 L 776.0075 368.12393 L 775.6539 367.7704 L 771.6539 363.77038 Z" fill="#616161"/>
      </g>
      <g id="Graphic_572">
        <path d="M 913.2004 368.33315 L 923.8463 368.33315 C 924.1225 368.33315 924.3463 368.1093 924.3463 367.83315 C 924.3463 367.557 924.1225 367.33315 923.8463 367.33315 L 913.2004 367.33315 C 912.9242 367.33315 912.7004 367.557 912.7004 367.83315 C 912.7004 368.1093 912.9242 368.33315 913.2004 368.33315 Z M 931.8463 367.33315 L 923.8463 367.33315 L 923.8463 368.33315 L 931.8463 368.33315 Z M 927.4928 364.1867 L 931.4928 368.1867 L 931.4928 367.4796 L 927.4928 371.4796 L 928.1999 372.1867 L 932.1999 368.1867 L 932.5534 367.83315 L 932.1999 367.4796 L 928.1999 363.4796 Z" fill="#616161"/>
      </g>
      <g id="Graphic_571">
        <path d="M 913.2004 209.92926 L 933.4882 209.92926 L 932.9882 209.42926 L 932.9882 449.97987 L 933.4882 449.47987 L 130.20039 449.47987 L 130.70039 449.97987 L 130.70039 346.12394 C 130.70039 345.8478 130.47653 345.62394 130.20039 345.62394 C 129.92424 345.62394 129.70039 345.8478 129.70039 346.12394 L 129.70039 449.97987 C 129.70039 450.256 129.92424 450.47987 130.20039 450.47987 L 933.4882 450.47987 C 933.7643 450.47987 933.9882 450.256 933.9882 449.97987 L 933.9882 209.42926 C 933.9882 209.15312 933.7643 208.92926 933.4882 208.92926 L 913.2004 208.92926 C 912.9242 208.92926 912.7004 209.15312 912.7004 209.42926 C 912.7004 209.7054 912.9242 209.92926 913.2004 209.92926 Z M 129.70039 338.12394 L 129.70039 346.12394 L 130.70039 346.12394 L 130.70039 338.12394 Z M 126.55394 342.4775 L 130.55394 338.4775 L 129.84683 338.4775 L 133.84683 342.4775 L 134.55394 341.7704 L 130.55394 337.7704 L 130.20039 337.41683 L 129.84683 337.7704 L 125.84683 341.7704 Z" fill="#616161"/>
      </g>
      <g id="Graphic_570">
        <path d="M 777.2004 208.92926 L 685.3496 208.92926 C 685.0735 208.92926 684.8496 209.15312 684.8496 209.42926 L 684.8496 223.32394 C 684.8496 223.60008 685.0735 223.82394 685.3496 223.82394 C 685.62575 223.82394 685.8496 223.60008 685.8496 223.32394 L 685.8496 209.42926 L 685.3496 209.92926 L 777.2004 209.92926 C 777.4765 209.92926 777.7004 209.7054 777.7004 209.42926 C 777.7004 209.15312 777.4765 208.92926 777.2004 208.92926 Z M 685.8496 231.32394 L 685.8496 223.32394 L 684.8496 223.32394 L 684.8496 231.32394 Z M 688.99606 226.9704 L 684.99606 230.9704 L 685.7032 230.9704 L 681.7032 226.9704 L 680.99606 227.6775 L 684.99606 231.6775 L 685.3496 232.03105 L 685.7032 231.6775 L 689.7032 227.6775 Z" fill="#616161"/>
      </g>
      <g id="Graphic_569">
        <path d="M 557.39874 368.4892 L 598.62674 368.4892 C 598.9029 368.4892 599.12674 368.26532 599.12674 367.9892 L 599.12674 209.20893 C 599.12674 208.93278 598.9029 208.70893 598.62674 208.70893 L 558.5371 208.70893 C 558.26095 208.70893 558.0371 208.93278 558.0371 209.20893 C 558.0371 209.48507 558.26095 209.70893 558.5371 209.70893 L 598.62674 209.70893 L 598.12674 209.20893 L 598.12674 367.9892 L 598.62674 367.4892 L 557.39874 367.4892 C 557.1226 367.4892 556.89874 367.71304 556.89874 367.9892 C 556.89874 368.26532 557.1226 368.4892 557.39874 368.4892 Z" fill="#616161"/>
      </g>
      <g id="Graphic_568">
        <path d="M 411.49874 367.4892 L 380.2347 367.4892 L 380.7347 367.9892 L 380.7347 209.20893 L 380.2347 209.70893 L 412.6371 209.70893 C 412.91323 209.70893 413.1371 209.48507 413.1371 209.20893 C 413.1371 208.93278 412.91323 208.70893 412.6371 208.70893 L 380.2347 208.70893 C 379.95856 208.70893 379.7347 208.93278 379.7347 209.20893 L 379.7347 367.9892 C 379.7347 368.26532 379.95856 368.4892 380.2347 368.4892 L 411.49874 368.4892 C 411.7749 368.4892 411.99874 368.26532 411.99874 367.9892 C 411.99874 367.71304 411.7749 367.4892 411.49874 367.4892 Z M 420.6371 208.70893 L 412.6371 208.70893 L 412.6371 209.70893 L 420.6371 209.70893 Z M 416.28354 205.56248 L 420.28354 209.56248 L 420.28354 208.85537 L 416.28354 212.85537 L 416.99064 213.56248 L 420.99064 209.56248 L 421.3442 209.20893 L 420.99064 208.85537 L 416.99064 204.85537 Z M 419.49874 367.4892 L 411.49874 367.4892 L 411.49874 368.4892 L 419.49874 368.4892 Z M 415.1452 364.34274 L 419.1452 368.34274 L 419.1452 367.63563 L 415.1452 371.63563 L 415.8523 372.34274 L 419.8523 368.34274 L 420.20585 367.9892 L 419.8523 367.63563 L 415.8523 363.63563 Z" fill="#616161"/>
      </g>
      <g id="Graphic_567">
        <path d="M 379.68896 289.22394 L 360.21143 289.22394 C 359.9292 289.22394 359.7004 289.4478 359.7004 289.72394 C 359.7004 290.0001 359.9292 290.22394 360.21143 290.22394 L 379.68896 290.22394 C 379.9712 290.22394 380.2 290.0001 380.2 289.72394 C 380.2 289.4478 379.9712 289.22394 379.68896 289.22394 Z" fill="#616161"/>
      </g>
      <g id="Graphic_566">
        <path d="M 214.30039 289.22394 L 183.20039 289.22394 C 182.92424 289.22394 182.70039 289.4478 182.70039 289.72394 C 182.70039 290.0001 182.92424 290.22394 183.20039 290.22394 L 214.30039 290.22394 C 214.57653 290.22394 214.80039 290.0001 214.80039 289.72394 C 214.80039 289.4478 214.57653 289.22394 214.30039 289.22394 Z M 222.30039 289.22394 L 214.30039 289.22394 L 214.30039 290.22394 L 222.30039 290.22394 Z M 217.94683 286.0775 L 221.94683 290.0775 L 221.94683 289.3704 L 217.94683 293.3704 L 218.65394 294.0775 L 222.65394 290.0775 L 223.0075 289.72394 L 222.65394 289.3704 L 218.65394 285.3704 Z" fill="#616161"/>
      </g>
      <g id="Group_653">
        <g id="Graphic_675">
          <rect x="224.20039" y="246.22394" width="136" height="87" fill="white"/>
          <rect x="224.20039" y="246.22394" width="136" height="87" stroke="#dfdfdf" stroke-linecap="round" stroke-linejoin="round" stroke-width="2" clip-path="url(#inner_stroke_clip_path)"/>
        </g>
        <g id="Graphic_674">
          <rect x="240.2004" y="294.22394" width="104" height="1" fill="#dfdfdf"/>
        </g>
        <g id="Graphic_673">
          <text transform="translate(262.33515 265.22394)" fill="#212121">
            <tspan font-family="Roboto" font-size="12" fill="#212121" x="0" y="11">Head Node</tspan>
          </text>
        </g>
        <g id="Group_654">
          <g id="Graphic_672">
            <text transform="translate(267.7367 307.22394)" fill="#757575">
              <tspan font-family="Roboto" font-size="10" fill="#757575" x="0" y="9">Compute Engine</tspan>
            </text>
          </g>
          <g id="Group_655">
            <g id="Graphic_671">
              <rect x="247.6682" y="309.7243" width="5.99925" height="5.99925" fill="#aecbfa"/>
            </g>
            <g id="Graphic_670">
              <rect x="249.67045" y="302.7277" width="2.0022497" height="3.9970004" fill="#669df6"/>
            </g>
            <g id="Graphic_669">
              <rect x="245.66595" y="302.7277" width="2.0022497" height="3.9970004" fill="#669df6"/>
            </g>
            <g id="Graphic_668">
              <rect x="253.66745" y="302.7277" width="2.0022497" height="3.9970004" fill="#669df6"/>
            </g>
            <g id="Graphic_667">
              <rect x="249.67045" y="318.7232" width="2.0022497" height="3.9970004" fill="#4285f4"/>
            </g>
            <g id="Graphic_666">
              <rect x="245.66595" y="318.7232" width="2.0022497" height="3.9970004" fill="#4285f4"/>
            </g>
            <g id="Graphic_665">
              <rect x="253.66745" y="318.7232" width="2.0022497" height="3.9970004" fill="#4285f4"/>
            </g>
            <g id="Graphic_664">
              <rect x="256.66708" y="311.72657" width="3.9970004" height="2.0022497" fill="#4285f4"/>
            </g>
            <g id="Graphic_663">
              <rect x="256.66708" y="315.72357" width="3.9970004" height="2.0022497" fill="#4285f4"/>
            </g>
            <g id="Graphic_662">
              <rect x="256.66708" y="307.72207" width="3.9970004" height="2.0022497" fill="#4285f4"/>
            </g>
            <g id="Graphic_661">
              <rect x="240.66408" y="311.71907" width="3.9970004" height="2.0022497" fill="#669df6"/>
            </g>
            <g id="Graphic_660">
              <rect x="240.67158" y="315.72357" width="3.9970004" height="2.0022497" fill="#669df6"/>
            </g>
            <g id="Graphic_659">
              <rect x="240.67158" y="307.72207" width="3.9970004" height="2.0022497" fill="#669df6"/>
            </g>
            <g id="Graphic_658">
              <path d="M 243.6712 305.7273 L 243.6712 319.72057 L 257.66445 319.72057 L 257.66445 305.7273 Z M 255.6697 317.7258 L 245.66595 317.7258 L 245.66595 307.72207 L 255.6697 307.72207 Z" fill="#aecbfa"/>
            </g>
            <g id="Graphic_657">
              <path d="M 247.6682 315.72357 L 253.66745 315.72357 L 250.66783 312.72394 Z" fill="#669df6"/>
            </g>
            <g id="Graphic_656">
              <path d="M 250.66783 312.72394 L 253.66745 315.72357 L 253.66745 309.7243 Z" fill="#4285f4"/>
            </g>
          </g>
        </g>
      </g>
      <g id="Group_676">
        <title>users</title>
        <g id="Graphic_678">
          <rect x="77.20039" y="243.22394" width="106" height="93" fill="white"/>
          <rect x="77.20039" y="243.22394" width="106" height="93" stroke="#dfdfdf" stroke-linecap="round" stroke-linejoin="round" stroke-width="2" clip-path="url(#inner_stroke_clip_path_2)"/>
          <text transform="translate(83.20039 302.22394)" fill="#212121">
            <tspan font-family="Roboto" font-size="12" fill="#212121" x="31.70117" y="11">Users</tspan>
          </text>
        </g>
        <g id="Graphic_677">
          <title>Shape_1_</title>
          <path d="M 133.47311 275.40576 C 134.82311 275.40576 135.92766 274.3012 135.92766 272.9512 C 135.92766 271.6012 134.82311 270.49667 133.47311 270.49667 C 132.12311 270.49667 131.01857 271.6012 131.01857 272.9512 C 131.01857 274.3012 132.12311 275.40576 133.47311 275.40576 Z M 126.92766 275.40576 C 128.27766 275.40576 129.3822 274.3012 129.3822 272.9512 C 129.3822 271.6012 128.27766 270.49667 126.92766 270.49667 C 125.57766 270.49667 124.47311 271.6012 124.47311 272.9512 C 124.47311 274.3012 125.57766 275.40576 126.92766 275.40576 Z M 126.92766 277.04212 C 125.01857 277.04212 121.20039 277.99667 121.20039 279.90576 L 121.20039 281.9512 L 132.65493 281.9512 L 132.65493 279.90576 C 132.65493 277.99667 128.83675 277.04212 126.92766 277.04212 Z M 133.47311 277.04212 C 133.2413 277.04212 132.96857 277.05576 132.6822 277.08303 C 133.63675 277.76485 134.2913 278.69212 134.2913 279.90576 L 134.2913 281.9512 L 139.20039 281.9512 L 139.20039 279.90576 C 139.20039 277.99667 135.3822 277.04212 133.47311 277.04212 Z" fill="#616161"/>
        </g>
      </g>
      <g id="Group_626">
        <g id="Group_629">
          <g id="Graphic_651">
            <rect x="422.5371" y="165.70893" width="136" height="87" fill="white"/>
            <rect x="422.5371" y="165.70893" width="136" height="87" stroke="#dfdfdf" stroke-linecap="round" stroke-linejoin="round" stroke-width="2" clip-path="url(#inner_stroke_clip_path_3)"/>
          </g>
          <g id="Graphic_650">
            <rect x="438.5371" y="213.70893" width="104" height="1" fill="#dfdfdf"/>
          </g>
          <g id="Graphic_649">
            <text transform="translate(466.5371 226.70893)" fill="#757575">
              <tspan font-family="Roboto" font-size="10" fill="#757575" x="0" y="9">Preemptible VM</tspan>
            </text>
          </g>
          <g id="Graphic_648">
            <text transform="translate(447.2744 184.70893)" fill="#212121">
              <tspan font-family="Roboto" font-size="12" fill="#212121" x="0" y="11">Compute Nodes</tspan>
            </text>
          </g>
          <g id="Graphic_647">
            <rect x="422.5371" y="251.70893" width="136" height="20" fill="#dfdfdf"/>
            <text transform="translate(422.5371 256.20893)" fill="#757575">
              <tspan font-family="Roboto" font-size="10" fill="#757575" x="27.228516" y="9">Multiple Instances</tspan>
            </text>
          </g>
          <g id="Group_630">
            <g id="Graphic_646">
              <rect x="445.5412" y="229.2093" width="5.99925" height="5.99925" fill="#aecbfa"/>
            </g>
            <g id="Graphic_645">
              <rect x="447.54346" y="222.21267" width="2.0022497" height="3.9970004" fill="#669df6"/>
            </g>
            <g id="Graphic_644">
              <rect x="443.53897" y="222.21267" width="2.0022497" height="3.9970004" fill="#669df6"/>
            </g>
            <g id="Graphic_643">
              <rect x="451.54047" y="222.21267" width="2.0022497" height="3.9970004" fill="#669df6"/>
            </g>
            <g id="Graphic_642">
              <rect x="447.54346" y="238.20818" width="2.0022497" height="3.9970004" fill="#4285f4"/>
            </g>
            <g id="Graphic_641">
              <rect x="443.53897" y="238.20818" width="2.0022497" height="3.9970004" fill="#4285f4"/>
            </g>
            <g id="Graphic_640">
              <rect x="451.54047" y="238.20818" width="2.0022497" height="3.9970004" fill="#4285f4"/>
            </g>
            <g id="Graphic_639">
              <rect x="454.5401" y="231.21155" width="3.9970004" height="2.0022497" fill="#4285f4"/>
            </g>
            <g id="Graphic_638">
              <rect x="454.5401" y="235.20855" width="3.9970004" height="2.0022497" fill="#4285f4"/>
            </g>
            <g id="Graphic_637">
              <rect x="454.5401" y="227.20705" width="3.9970004" height="2.0022497" fill="#4285f4"/>
            </g>
            <g id="Graphic_636">
              <rect x="438.5371" y="231.20405" width="3.9970004" height="2.0022497" fill="#669df6"/>
            </g>
            <g id="Graphic_635">
              <rect x="438.5446" y="235.20855" width="3.9970004" height="2.0022497" fill="#669df6"/>
            </g>
            <g id="Graphic_634">
              <rect x="438.5446" y="227.20705" width="3.9970004" height="2.0022497" fill="#669df6"/>
            </g>
            <g id="Graphic_633">
              <path d="M 441.5442 225.2123 L 441.5442 239.20555 L 455.53747 239.20555 L 455.53747 225.2123 Z M 453.5427 237.2108 L 443.53897 237.2108 L 443.53897 227.20705 L 453.5427 227.20705 Z" fill="#aecbfa"/>
            </g>
            <g id="Graphic_632">
              <path d="M 445.5412 235.20855 L 451.54047 235.20855 L 448.54084 232.20893 Z" fill="#669df6"/>
            </g>
            <g id="Graphic_631">
              <path d="M 448.54084 232.20893 L 451.54047 235.20855 L 451.54047 229.2093 Z" fill="#4285f4"/>
            </g>
          </g>
        </g>
        <g id="Graphic_628">
          <title>Stroke-21</title>
          <line x1="426.59094" y1="275.86902" x2="554.48324" y2="275.86902" stroke="white" stroke-linecap="butt" stroke-linejoin="round" stroke-width="1.732"/>
        </g>
        <g id="Graphic_627">
          <title>Stroke-22</title>
          <line x1="431.4294" y1="280.53562" x2="549.6448" y2="280.53562" stroke="white" stroke-linecap="butt" stroke-linejoin="round" stroke-width="1.601"/>
        </g>
      </g>
      <g id="Group_600">
        <g id="Group_603">
          <g id="Graphic_625">
            <rect x="421.39874" y="324.4892" width="136" height="87" fill="white"/>
            <rect x="421.39874" y="324.4892" width="136" height="87" stroke="#dfdfdf" stroke-linecap="round" stroke-linejoin="round" stroke-width="2" clip-path="url(#inner_stroke_clip_path_4)"/>
          </g>
          <g id="Graphic_624">
            <rect x="437.39874" y="372.4892" width="104" height="1" fill="#dfdfdf"/>
          </g>
          <g id="Graphic_623">
            <text transform="translate(465.39874 385.4892)" fill="#757575">
              <tspan font-family="Roboto" font-size="10" fill="#757575" x="0" y="9">Standard VM</tspan>
            </text>
          </g>
          <g id="Graphic_622">
            <text transform="translate(446.13604 343.4892)" fill="#212121">
              <tspan font-family="Roboto" font-size="12" fill="#212121" x="0" y="11">Compute Nodes</tspan>
            </text>
          </g>
          <g id="Graphic_621">
            <rect x="421.39874" y="410.4892" width="136" height="20" fill="#dfdfdf"/>
            <text transform="translate(421.39874 414.9892)" fill="#757575">
              <tspan font-family="Roboto" font-size="10" fill="#757575" x="27.228516" y="9">Multiple Instances</tspan>
            </text>
          </g>
          <g id="Group_604">
            <g id="Graphic_620">
              <rect x="444.40286" y="387.98956" width="5.99925" height="5.99925" fill="#aecbfa"/>
            </g>
            <g id="Graphic_619">
              <rect x="446.4051" y="380.99293" width="2.0022497" height="3.9970004" fill="#669df6"/>
            </g>
            <g id="Graphic_618">
              <rect x="442.4006" y="380.99293" width="2.0022497" height="3.9970004" fill="#669df6"/>
            </g>
            <g id="Graphic_617">
              <rect x="450.4021" y="380.99293" width="2.0022497" height="3.9970004" fill="#669df6"/>
            </g>
            <g id="Graphic_616">
              <rect x="446.4051" y="396.98843" width="2.0022497" height="3.9970004" fill="#4285f4"/>
            </g>
            <g id="Graphic_615">
              <rect x="442.4006" y="396.98843" width="2.0022497" height="3.9970004" fill="#4285f4"/>
            </g>
            <g id="Graphic_614">
              <rect x="450.4021" y="396.98843" width="2.0022497" height="3.9970004" fill="#4285f4"/>
            </g>
            <g id="Graphic_613">
              <rect x="453.40174" y="389.9918" width="3.9970004" height="2.0022497" fill="#4285f4"/>
            </g>
            <g id="Graphic_612">
              <rect x="453.40174" y="393.9888" width="3.9970004" height="2.0022497" fill="#4285f4"/>
            </g>
            <g id="Graphic_611">
              <rect x="453.40174" y="385.9873" width="3.9970004" height="2.0022497" fill="#4285f4"/>
            </g>
            <g id="Graphic_610">
              <rect x="437.39874" y="389.9843" width="3.9970004" height="2.0022497" fill="#669df6"/>
            </g>
            <g id="Graphic_609">
              <rect x="437.40624" y="393.9888" width="3.9970004" height="2.0022497" fill="#669df6"/>
            </g>
            <g id="Graphic_608">
              <rect x="437.40624" y="385.9873" width="3.9970004" height="2.0022497" fill="#669df6"/>
            </g>
            <g id="Graphic_607">
              <path d="M 440.40586 383.99256 L 440.40586 397.9858 L 454.3991 397.9858 L 454.3991 383.99256 Z M 452.40436 395.99106 L 442.4006 395.99106 L 442.4006 385.9873 L 452.40436 385.9873 Z" fill="#aecbfa"/>
            </g>
            <g id="Graphic_606">
              <path d="M 444.40286 393.9888 L 450.4021 393.9888 L 447.4025 390.9892 Z" fill="#669df6"/>
            </g>
            <g id="Graphic_605">
              <path d="M 447.4025 390.9892 L 450.4021 393.9888 L 450.4021 387.98956 Z" fill="#4285f4"/>
            </g>
          </g>
        </g>
        <g id="Graphic_602">
          <title>Stroke-21</title>
          <line x1="425.4526" y1="435.8474" x2="553.3449" y2="435.8474" stroke="white" stroke-linecap="butt" stroke-linejoin="round" stroke-width="1.732"/>
        </g>
        <g id="Graphic_601">
          <title>Stroke-22</title>
          <line x1="430.29105" y1="440.514" x2="548.5064" y2="440.514" stroke="white" stroke-linecap="butt" stroke-linejoin="round" stroke-width="1.601"/>
        </g>
      </g>
      <g id="Group_575">
        <g id="Graphic_599">
          <rect x="617.3496" y="233.22394" width="136" height="87" fill="white"/>
          <rect x="617.3496" y="233.22394" width="136" height="87" stroke="#dfdfdf" stroke-linecap="round" stroke-linejoin="round" stroke-width="2" clip-path="url(#inner_stroke_clip_path_5)"/>
        </g>
        <g id="Graphic_598">
          <rect x="633.3496" y="281.22394" width="104" height="1" fill="#dfdfdf"/>
        </g>
        <g id="Graphic_597">
          <text transform="translate(661.3496 294.22394)" fill="#757575">
            <tspan font-family="Roboto" font-size="10" fill="#757575" x="0" y="9">Compute Engine</tspan>
          </text>
        </g>
        <g id="Graphic_596">
          <text transform="translate(654.541 252.22394)" fill="#212121">
            <tspan font-family="Roboto" font-size="12" fill="#212121" x="0" y="11">File System</tspan>
          </text>
        </g>
        <g id="Graphic_595">
          <rect x="617.3496" y="319.22394" width="136" height="28" fill="#dfdfdf"/>
          <text transform="translate(617.3496 322.22394)" fill="#757575">
            <tspan font-family="Roboto" font-size="10" fill="#757575" x="35.729492" y="9">Instances with</tspan>
            <tspan font-family="Roboto" font-size="10" fill="#757575" x="34.618652" y="20">Persistent Disk</tspan>
          </text>
        </g>
        <g id="Group_578">
          <g id="Graphic_594">
            <rect x="640.3537" y="296.7243" width="5.99925" height="5.99925" fill="#aecbfa"/>
          </g>
          <g id="Graphic_593">
            <rect x="642.356" y="289.7277" width="2.0022497" height="3.9970004" fill="#669df6"/>
          </g>
          <g id="Graphic_592">
            <rect x="638.3515" y="289.7277" width="2.0022497" height="3.9970004" fill="#669df6"/>
          </g>
          <g id="Graphic_591">
            <rect x="646.353" y="289.7277" width="2.0022497" height="3.9970004" fill="#669df6"/>
          </g>
          <g id="Graphic_590">
            <rect x="642.356" y="305.7232" width="2.0022497" height="3.9970004" fill="#4285f4"/>
          </g>
          <g id="Graphic_589">
            <rect x="638.3515" y="305.7232" width="2.0022497" height="3.9970004" fill="#4285f4"/>
          </g>
          <g id="Graphic_588">
            <rect x="646.353" y="305.7232" width="2.0022497" height="3.9970004" fill="#4285f4"/>
          </g>
          <g id="Graphic_587">
            <rect x="649.3526" y="298.72657" width="3.9970004" height="2.0022497" fill="#4285f4"/>
          </g>
          <g id="Graphic_586">
            <rect x="649.3526" y="302.72357" width="3.9970004" height="2.0022497" fill="#4285f4"/>
          </g>
          <g id="Graphic_585">
            <rect x="649.3526" y="294.72207" width="3.9970004" height="2.0022497" fill="#4285f4"/>
          </g>
          <g id="Graphic_584">
            <rect x="633.3496" y="298.71907" width="3.9970004" height="2.0022497" fill="#669df6"/>
          </g>
          <g id="Graphic_583">
            <rect x="633.3571" y="302.72357" width="3.9970004" height="2.0022497" fill="#669df6"/>
          </g>
          <g id="Graphic_582">
            <rect x="633.3571" y="294.72207" width="3.9970004" height="2.0022497" fill="#669df6"/>
          </g>
          <g id="Graphic_581">
            <path d="M 636.3567 292.7273 L 636.3567 306.72057 L 650.35 306.72057 L 650.35 292.7273 Z M 648.3552 304.7258 L 638.3515 304.7258 L 638.3515 294.72207 L 648.3552 294.72207 Z" fill="#aecbfa"/>
          </g>
          <g id="Graphic_580">
            <path d="M 640.3537 302.72357 L 646.353 302.72357 L 643.35336 299.72394 Z" fill="#669df6"/>
          </g>
          <g id="Graphic_579">
            <path d="M 643.35336 299.72394 L 646.353 302.72357 L 646.353 296.7243 Z" fill="#4285f4"/>
          </g>
        </g>
      </g>
      <g id="Group_701">
        <g id="Graphic_719">
          <rect x="777.2004" y="165.92926" width="136" height="87" fill="white"/>
          <rect x="777.2004" y="165.92926" width="136" height="87" stroke="#dfdfdf" stroke-linecap="round" stroke-linejoin="round" stroke-width="2" clip-path="url(#inner_stroke_clip_path_6)"/>
        </g>
        <g id="Graphic_718">
          <rect x="793.2004" y="213.92926" width="104" height="1" fill="#dfdfdf"/>
        </g>
        <g id="Graphic_717">
          <text transform="translate(817.6994 187.19396)" fill="#212121">
            <tspan font-family="Roboto" font-size="12" fill="#212121" x="0" y="11">Input Data</tspan>
          </text>
        </g>
        <g id="Group_702">
          <g id="Graphic_716">
            <text transform="translate(825.7652 226.92926)" fill="#757575">
              <tspan font-family="Roboto" font-size="10" fill="#757575" x="0" y="9">Cloud Storage</tspan>
            </text>
          </g>
          <g id="Group_703">
            <g id="Graphic_715">
              <rect x="798.6926" y="224.42776" width="20" height="6.9966254" fill="#aecbfa"/>
            </g>
            <g id="Graphic_714">
              <rect x="816.6903" y="224.42776" width="2.0022497" height="6.9966254" fill="#669df6"/>
            </g>
            <g id="Graphic_713">
              <path d="M 818.6851 224.42776 L 816.6903 224.42776 L 816.6903 231.43188 Z" fill="#4285f4"/>
            </g>
            <g id="Graphic_712">
              <rect x="798.6926" y="224.42776" width="2.0022497" height="6.9966254" fill="#669df6"/>
            </g>
            <g id="Graphic_711">
              <rect x="802.6896" y="227.42738" width="5.99925" height=".9973753" fill="white"/>
            </g>
            <g id="Graphic_710">
              <path d="M 813.1883 226.43 L 813.1883 226.43 C 814.0166 226.43 814.6881 227.1015 814.6881 227.92982 L 814.6881 227.92982 C 814.6881 228.75814 814.0166 229.42963 813.1883 229.42963 L 813.1883 229.42963 C 812.3599 229.42963 811.68845 228.75814 811.68845 227.92982 L 811.68845 227.92982 C 811.68845 227.1015 812.3599 226.43 813.1883 226.43 Z" fill="white"/>
            </g>
            <g id="Graphic_709">
              <rect x="798.6926" y="233.42663" width="20" height="6.9966254" fill="#aecbfa"/>
            </g>
            <g id="Graphic_708">
              <rect x="816.6903" y="233.42663" width="2.0022497" height="6.9966254" fill="#669df6"/>
            </g>
            <g id="Graphic_707">
              <path d="M 818.6851 233.42663 L 816.6903 233.42663 L 816.6903 240.43076 Z" fill="#4285f4"/>
            </g>
            <g id="Graphic_706">
              <rect x="798.6926" y="233.42663" width="2.0022497" height="6.9966254" fill="#669df6"/>
            </g>
            <g id="Graphic_705">
              <rect x="802.6896" y="236.42626" width="5.99925" height=".9973753" fill="white"/>
            </g>
            <g id="Graphic_704">
              <path d="M 813.1883 235.42888 L 813.1883 235.42888 C 814.0166 235.42888 814.6881 236.10037 814.6881 236.9287 L 814.6881 236.9287 C 814.6881 237.75702 814.0166 238.4285 813.1883 238.4285 L 813.1883 238.4285 C 812.3599 238.4285 811.68845 237.75702 811.68845 236.9287 L 811.68845 236.9287 C 811.68845 236.10037 812.3599 235.42888 813.1883 235.42888 Z" fill="white"/>
            </g>
          </g>
        </g>
      </g>
      <g id="Group_679">
        <g id="Group_682">
          <g id="Graphic_700">
            <rect x="777.2004" y="311.42926" width="136" height="87" fill="white"/>
            <rect x="777.2004" y="311.42926" width="136" height="87" stroke="#dfdfdf" stroke-linecap="round" stroke-linejoin="round" stroke-width="2" clip-path="url(#inner_stroke_clip_path_7)"/>
          </g>
          <g id="Graphic_699">
            <rect x="793.2004" y="359.42926" width="104" height="1" fill="#dfdfdf"/>
          </g>
          <g id="Graphic_698">
            <text transform="translate(813.2463 332.69396)" fill="#212121">
              <tspan font-family="Roboto" font-size="12" fill="#212121" x="0" y="11">Output Data</tspan>
            </text>
          </g>
          <g id="Group_683">
            <g id="Graphic_697">
              <text transform="translate(825.7652 372.42926)" fill="#757575">
                <tspan font-family="Roboto" font-size="10" fill="#757575" x="0" y="9">Cloud Storage</tspan>
              </text>
            </g>
            <g id="Group_684">
              <g id="Graphic_696">
                <rect x="798.6926" y="369.92776" width="20" height="6.9966254" fill="#aecbfa"/>
              </g>
              <g id="Graphic_695">
                <rect x="816.6903" y="369.92776" width="2.0022497" height="6.9966254" fill="#669df6"/>
              </g>
              <g id="Graphic_694">
                <path d="M 818.6851 369.92776 L 816.6903 369.92776 L 816.6903 376.9319 Z" fill="#4285f4"/>
              </g>
              <g id="Graphic_693">
                <rect x="798.6926" y="369.92776" width="2.0022497" height="6.9966254" fill="#669df6"/>
              </g>
              <g id="Graphic_692">
                <rect x="802.6896" y="372.9274" width="5.99925" height=".9973753" fill="white"/>
              </g>
              <g id="Graphic_691">
                <path d="M 813.1883 371.93 L 813.1883 371.93 C 814.0166 371.93 814.6881 372.6015 814.6881 373.4298 L 814.6881 373.4298 C 814.6881 374.25814 814.0166 374.92963 813.1883 374.92963 L 813.1883 374.92963 C 812.3599 374.92963 811.68845 374.25814 811.68845 373.4298 L 811.68845 373.4298 C 811.68845 372.6015 812.3599 371.93 813.1883 371.93 Z" fill="white"/>
              </g>
              <g id="Graphic_690">
                <rect x="798.6926" y="378.92663" width="20" height="6.9966254" fill="#aecbfa"/>
              </g>
              <g id="Graphic_689">
                <rect x="816.6903" y="378.92663" width="2.0022497" height="6.9966254" fill="#669df6"/>
              </g>
              <g id="Graphic_688">
                <path d="M 818.6851 378.92663 L 816.6903 378.92663 L 816.6903 385.93076 Z" fill="#4285f4"/>
              </g>
              <g id="Graphic_687">
                <rect x="798.6926" y="378.92663" width="2.0022497" height="6.9966254" fill="#669df6"/>
              </g>
              <g id="Graphic_686">
                <rect x="802.6896" y="381.92626" width="5.99925" height=".9973753" fill="white"/>
              </g>
              <g id="Graphic_685">
                <path d="M 813.1883 380.9289 L 813.1883 380.9289 C 814.0166 380.9289 814.6881 381.60037 814.6881 382.4287 L 814.6881 382.4287 C 814.6881 383.257 814.0166 383.9285 813.1883 383.9285 L 813.1883 383.9285 C 812.3599 383.9285 811.68845 383.257 811.68845 382.4287 L 811.68845 382.4287 C 811.68845 381.60037 812.3599 380.9289 813.1883 380.9289 Z" fill="white"/>
              </g>
            </g>
          </g>
        </g>
        <g id="Graphic_681">
          <title>Stroke-21</title>
          <line x1="781.2542" y1="402.3937" x2="909.1465" y2="402.3937" stroke="white" stroke-linecap="butt" stroke-linejoin="round" stroke-width="1.732"/>
        </g>
        <g id="Graphic_680">
          <title>Stroke-22</title>
          <line x1="786.0927" y1="407.0603" x2="904.3081" y2="407.0603" stroke="white" stroke-linecap="butt" stroke-linejoin="round" stroke-width="1.601"/>
        </g>
      </g>
    </g>
  </g>
</svg>
