<?xml version="1.0" encoding="UTF-8" standalone="no"?>
<!DOCTYPE svg PUBLIC "-//W3C//DTD SVG 1.1//EN" "http://www.w3.org/Graphics/SVG/1.1/DTD/svg11.dtd">
<svg xmlns:xl="http://www.w3.org/1999/xlink" xmlns:dc="http://purl.org/dc/elements/1.1/" version="1.1" xmlns="http://www.w3.org/2000/svg" viewBox="-89 396 1050 681" width="1050" height="681">
  <defs>
    <clipPath id="inner_stroke_clip_path">
      <path d="M 612.1889 458.95037 L 731.1889 458.95037 L 731.1889 514.95037 L 612.1889 514.95037 Z"/>
    </clipPath>
    <clipPath id="inner_stroke_clip_path_2">
      <path d="M 612.1889 534.9504 L 731.8889 534.9504 L 731.8889 590.9504 L 612.1889 590.9504 Z"/>
    </clipPath>
    <clipPath id="inner_stroke_clip_path_3">
      <path d="M 612.1889 610.9504 L 731.1889 610.9504 L 731.1889 666.9504 L 612.1889 666.9504 Z"/>
    </clipPath>
    <clipPath id="inner_stroke_clip_path_4">
      <path d="M 612.1889 826.9504 L 730.8889 826.9504 L 730.8889 882.9504 L 612.1889 882.9504 Z"/>
    </clipPath>
    <clipPath id="inner_stroke_clip_path_5">
      <path d="M 612.1889 902.9504 L 730.8889 902.9504 L 730.8889 958.9504 L 612.1889 958.9504 Z"/>
    </clipPath>
    <clipPath id="inner_stroke_clip_path_6">
      <path d="M 612.1889 978.9504 L 730.8889 978.9504 L 730.8889 1034.9504 L 612.1889 1034.9504 Z"/>
    </clipPath>
    <clipPath id="inner_stroke_clip_path_7">
      <path d="M 801.7 642.9504 L 919.2 642.9504 L 919.2 698.9504 L 801.7 698.9504 Z"/>
    </clipPath>
    <clipPath id="inner_stroke_clip_path_8">
      <path d="M 801.7 718.9504 L 920.7 718.9504 L 920.7 774.9504 L 801.7 774.9504 Z"/>
    </clipPath>
    <clipPath id="inner_stroke_clip_path_9">
      <path d="M 803.2 794.9504 L 920.7 794.9504 L 920.7 850.9504 L 803.2 850.9504 Z"/>
    </clipPath>
    <clipPath id="inner_stroke_clip_path_10">
      <path d="M 612.0389 750.9504 L 730.7389 750.9504 L 730.7389 806.9504 L 612.0389 806.9504 Z"/>
    </clipPath>
    <clipPath id="inner_stroke_clip_path_11">
      <path d="M 241.89999 718.9504 L 366.9 718.9504 L 366.9 774.9504 L 241.89999 774.9504 Z"/>
    </clipPath>
    <clipPath id="inner_stroke_clip_path_12">
      <path d="M 241.89999 642.9504 L 366.9 642.9504 L 366.9 698.9504 L 241.89999 698.9504 Z"/>
    </clipPath>
    <clipPath id="inner_stroke_clip_path_13">
      <path d="M 241.89999 794.9504 L 366.9 794.9504 L 366.9 850.9504 L 241.89999 850.9504 Z"/>
    </clipPath>
    <clipPath id="inner_stroke_clip_path_14">
      <path d="M 427.67776 642.9504 L 541.67776 642.9504 L 541.67776 698.9504 L 427.67776 698.9504 Z"/>
    </clipPath>
  </defs>
  <g id="diagram_3" fill="none" fill-opacity="1" stroke="none" stroke-opacity="1" stroke-dasharray="none">
    <title>diagram_3</title>
    <g id="diagram_3_Layer_1">
      <title>Layer 1</title>
      <g id="Group_542">
        <g id="Graphic_541">
          <rect x="202.29999" y="396" width="758.7" height="681" fill="#eaedef"/>
        </g>
        <g id="Group_533">
          <title>_294x96</title>
          <g id="Graphic_540">
            <path d="M 295.92415 428.228 C 293.76128 428.228 291.9537 427.5135 290.50145 426.08444 C 289.0492 424.6554 288.32823 422.872 288.33857 420.73424 C 288.33857 418.595 289.05953 416.81743 290.50145 415.40146 C 291.94337 413.95934 293.75093 413.2383 295.92415 413.2383 C 298.12396 413.2383 299.91084 414.0196 301.2848 415.58227 L 299.93965 416.86536 C 298.9724 415.6595 297.48597 414.96924 295.92415 415.00063 C 294.40466 414.96266 292.93657 415.54275 291.86654 416.60395 C 290.7925 417.6612 290.25547 419.0409 290.25547 420.74295 C 290.25547 422.445 290.79323 423.81525 291.86876 424.85363 C 292.93616 425.91835 294.4039 426.5018 295.92415 426.46567 C 297.62165 426.46567 299.09903 425.7642 300.35627 424.3613 L 301.72137 425.66836 C 301.0303 426.48264 300.15847 427.13026 299.1729 427.5614 C 298.1518 428.012 297.04337 428.23945 295.92415 428.228 Z M 304.81942 413.5585 L 304.81942 427.9034 L 302.9424 427.9034 L 302.9424 413.5585 Z M 306.17343 422.9976 C 306.17343 421.48724 306.65654 420.2383 307.62274 419.25073 C 308.58525 418.2675 309.92492 417.7289 311.31248 417.7672 C 312.6944 417.7279 314.0283 418.2671 314.98228 419.25073 C 315.9603 420.23973 316.4493 421.4887 316.4493 422.9976 C 316.4493 424.50654 315.9603 425.75623 314.98228 426.7467 C 314.02792 427.7295 312.69405 428.2679 311.31248 428.228 C 309.9252 428.2672 308.58548 427.72933 307.62274 426.7467 C 306.65654 425.7577 306.17343 424.508 306.17343 422.9976 Z M 308.05044 422.9976 C 308.05044 424.05343 308.3629 424.9088 308.98783 425.5638 C 309.5927 426.1927 310.43428 426.549 311.3147 426.549 C 312.1951 426.549 313.0367 426.1927 313.64156 425.5638 C 314.2665 424.9088 314.57895 424.05343 314.57895 422.9976 C 314.57895 421.9418 314.265 421.0937 313.63713 420.4532 C 313.0387 419.81304 312.1947 419.4487 311.31026 419.4487 C 310.4258 419.4487 309.58184 419.81304 308.9834 420.4532 C 308.36142 421.10675 308.05044 421.9549 308.05044 422.9976 Z M 326.55676 427.9034 L 324.76175 427.9034 L 324.76175 426.54627 L 324.67976 426.54627 C 324.3609 427.05693 323.9066 427.47263 323.36564 427.74876 C 322.8024 428.0617 322.16664 428.22673 321.51966 428.228 C 320.2964 428.228 319.3553 427.88455 318.6964 427.1976 C 318.0375 426.5107 317.70803 425.53185 317.70803 424.2611 L 317.70803 418.08745 L 319.58282 418.08745 L 319.58282 424.1413 C 319.6242 425.7388 320.44634 426.53755 322.0493 426.53755 C 322.78255 426.54445 323.47694 426.21403 323.9263 425.6444 C 324.43087 425.04524 324.69843 424.28715 324.67976 423.50955 L 324.67976 418.08745 L 326.55676 418.08745 Z M 332.6487 428.22365 C 331.35365 428.2272 330.12287 427.6693 329.28474 426.69876 C 328.36498 425.6799 327.87033 424.3573 327.8997 422.99544 C 327.871 421.63367 328.36555 420.3113 329.28474 419.2921 C 330.12287 418.3216 331.35365 417.7637 332.6487 417.7672 C 333.34686 417.75895 334.0366 417.91743 334.6587 418.22905 C 335.22757 418.5053 335.70994 418.92757 336.0548 419.45114 L 336.1368 419.45114 L 336.0548 418.08745 L 336.0548 413.5585 L 337.9296 413.5585 L 337.9296 427.9034 L 336.1368 427.9034 L 336.1368 426.54627 L 336.0548 426.54627 C 335.70994 427.06984 335.22757 427.4921 334.6587 427.76836 C 334.0364 428.0792 333.34667 428.23696 332.6487 428.228 Z M 332.95453 426.5419 C 333.82142 426.5662 334.65332 426.20534 335.21935 425.55944 C 335.831 424.90446 336.1368 424.04907 336.1368 422.99326 C 336.17176 422.0612 335.84362 421.1512 335.21935 420.44886 C 334.65716 419.79567 333.8247 419.42734 332.95453 419.4468 C 332.08643 419.4342 331.2575 419.8013 330.69193 420.44886 C 330.06766 421.1512 329.73952 422.0612 329.7745 422.99326 C 329.7745 424.03745 330.0803 424.8863 330.69193 425.53984 C 331.2572 426.18825 332.0859 426.55687 332.95453 426.54627 Z" fill="#5f6368"/>
          </g>
          <g id="Graphic_539">
            <path d="M 225.84343 428.22583 C 221.29607 428.22583 217.47559 424.5835 217.47559 420.1134 C 217.47559 415.64326 221.29607 412.00094 225.84343 412.00094 C 227.9562 411.96857 229.99317 412.77423 231.4944 414.236 L 229.90547 415.8001 C 228.81672 414.76655 227.35686 414.1974 225.84343 414.2164 C 224.26025 414.21683 222.74328 414.84093 221.63174 415.94915 C 220.5202 417.05736 219.90683 418.55724 219.92876 420.1134 C 219.90742 421.66915 220.52107 423.16847 221.63254 424.2762 C 222.74401 425.38395 224.26064 426.00776 225.84343 426.0082 C 227.99523 426.0082 229.2207 425.1586 230.0052 424.38745 C 230.65007 423.75353 231.07112 422.84295 231.2329 421.5969 L 225.7836 421.5969 L 225.7836 419.38144 L 233.43123 419.38144 C 233.51786 419.8375 233.5587 420.3008 233.5531 420.76473 C 233.5531 422.42687 233.08995 424.4855 231.60076 425.9494 C 230.14702 427.4329 228.2966 428.22583 225.84343 428.22583 Z" fill="#4285f4"/>
          </g>
          <g id="Graphic_538">
            <path d="M 244.9902 423.00197 C 244.9902 425.88944 242.609 428.2302 239.67165 428.2302 C 236.7343 428.2302 234.3531 425.88944 234.3531 423.00197 C 234.3531 420.1115 236.73678 417.7683 239.6772 417.7683 C 242.6176 417.7683 245.00128 420.1115 245.00128 423.00197 Z M 242.6589 423.00197 C 242.6589 421.122 241.27387 419.83673 239.66722 419.83673 C 238.06058 419.83673 236.67332 421.122 236.67332 423.00197 C 236.67332 424.88195 238.06058 426.1607 239.66722 426.1607 C 241.27387 426.1607 242.6589 424.85363 242.6589 423.00197 Z" fill="#ea4335"/>
          </g>
          <g id="Graphic_537">
            <path d="M 256.57798 423.00197 C 256.57798 425.88944 254.1968 428.2302 251.25944 428.2302 C 248.3221 428.2302 245.9409 425.88944 245.9409 423.00197 C 245.9409 420.1145 248.3221 417.77376 251.25944 417.77376 C 254.1968 417.77376 256.57798 420.1145 256.57798 423.00197 Z M 254.2467 423.00197 C 254.2467 421.122 252.86165 419.83673 251.255 419.83673 C 249.64836 419.83673 248.2611 421.122 248.2611 423.00197 C 248.2611 424.88195 249.64615 426.1607 251.255 426.1607 C 252.86387 426.1607 254.2467 424.85363 254.2467 423.00197 Z" fill="#fbbc04"/>
          </g>
          <g id="Graphic_536">
            <path d="M 267.66272 418.1005 L 267.66272 427.46774 C 267.66272 431.32573 265.34915 432.9138 262.61454 432.9138 C 260.5522 432.9241 258.6899 431.7028 257.90762 429.82697 L 259.93975 428.99264 C 260.30097 429.8422 261.18518 430.85083 262.61454 430.85083 C 264.363 430.85083 265.4511 429.7834 265.4511 427.7858 L 265.4511 427.03206 L 265.3691 427.03206 C 264.66013 427.81194 263.63828 428.2461 262.57465 428.2193 C 259.91537 428.2193 257.4777 425.94284 257.4777 423.01504 C 257.4777 420.08724 259.91537 417.7716 262.57465 417.7716 C 263.63382 417.74654 264.65244 418.17215 265.3691 418.9392 L 265.4511 418.9392 L 265.4511 418.1005 Z M 265.61065 423.0281 C 265.61065 421.18735 264.363 419.84326 262.7741 419.84326 C 261.18518 419.84326 259.81787 421.18735 259.81787 423.0281 C 259.81787 424.8689 261.16523 426.1607 262.7741 426.1607 C 264.38295 426.1607 265.61065 424.84056 265.61065 423.0216 Z" fill="#4285f4"/>
          </g>
          <g id="Graphic_535">
            <rect x="269.33142" y="412.55426" width="2.3423767" height="15.349167" fill="#34a853"/>
          </g>
          <g id="Graphic_534">
            <path d="M 280.71754 424.72293 L 282.52806 425.91017 C 281.541 427.3658 279.8755 428.23596 278.09594 428.22583 C 275.07988 428.22583 272.82615 425.92977 272.82615 422.9976 C 272.82615 419.8912 275.09982 417.7694 277.83444 417.7694 C 280.56906 417.7694 281.93637 419.92604 282.3796 421.0937 L 282.6278 421.6949 L 275.5364 424.5835 C 276.07932 425.6335 276.92364 426.1672 278.11145 426.1672 C 279.29926 426.1672 280.11477 425.5943 280.71754 424.72293 Z M 275.14636 422.84295 L 279.89316 420.90415 C 279.63167 420.25063 278.84718 419.79534 277.92087 419.79534 C 277.13914 419.83057 276.40467 420.1734 275.8828 420.7466 C 275.36095 421.31985 275.09555 422.0753 275.14636 422.84295 Z" fill="#ea4335"/>
          </g>
        </g>
        <g id="Graphic_32">
          <title>zone external - green</title>
          <rect x="-88.70001" y="598.9504" width="125" height="272" fill="#e2f3ec"/>
          <text transform="translate(-78.70001 613.9504)" fill="#757575">
            <tspan font-family="Roboto" font-weight="bold" font-size="10" fill="#757575" x="0" y="9">Constrained Devices</tspan>
            <tspan font-family="Roboto" font-size="10" fill="#757575" x="0" y="20">Non-TCP (e.g., BLE)</tspan>
          </text>
        </g>
        <g id="Graphic_31">
          <path d="M -32.12277 685.6838 C -32.12277 686.5638 -31.40277 687.2838 -30.52277 687.2838 L -24.12277 687.2838 C -23.24277 687.2838 -22.52277 686.5638 -22.52277 685.6838 L -22.52277 684.0838 L -32.12277 684.0838 Z M -27.32277 655.2838 C -33.509438 655.2838 -38.52277 660.2971 -38.52277 666.4838 C -38.52277 670.2971 -36.629438 673.6304 -33.72277 675.6571 L -33.72277 679.2838 C -33.72277 680.1638 -33.00277 680.8838 -32.12277 680.8838 L -22.52277 680.8838 C -21.64277 680.8838 -20.92277 680.1638 -20.92277 679.2838 L -20.92277 675.6571 C -18.016104 673.6304 -16.122771 670.2971 -16.122771 666.4838 C -16.122771 660.2971 -21.136104 655.2838 -27.32277 655.2838 Z M -22.76277 673.0438 L -24.12277 674.0038 L -24.12277 677.6838 L -30.52277 677.6838 L -30.52277 674.0038 L -31.88277 673.0438 C -34.04277 671.5504 -35.32277 669.0971 -35.32277 666.4838 C -35.32277 662.0571 -31.749438 658.4838 -27.32277 658.4838 C -22.896104 658.4838 -19.32277 662.0571 -19.32277 666.4838 C -19.32277 669.0971 -20.60277 671.5504 -22.76277 673.0438 Z" fill="#616161"/>
        </g>
        <g id="Graphic_30">
          <path d="M -11.700012 816.7068 L -11.700012 813.5068 L -14.900012 813.5068 L -14.900012 810.3068 C -14.900012 808.5468 -16.340012 807.1068 -18.100012 807.1068 L -40.50001 807.1068 C -42.26001 807.1068 -43.70001 808.5468 -43.70001 810.3068 L -43.70001 832.7068 C -43.70001 834.4668 -42.26001 835.9068 -40.50001 835.9068 L -18.100012 835.9068 C -16.340012 835.9068 -14.900012 834.4668 -14.900012 832.7068 L -14.900012 829.5068 L -11.700012 829.5068 L -11.700012 826.3068 L -14.900012 826.3068 L -14.900012 823.1068 L -11.700012 823.1068 L -11.700012 819.9068 L -14.900012 819.9068 L -14.900012 816.7068 Z M -18.100012 832.7068 L -40.50001 832.7068 L -40.50001 810.3068 L -18.100012 810.3068 Z M -37.30001 823.1068 L -29.300012 823.1068 L -29.300012 829.5068 L -37.30001 829.5068 Z M -27.700012 813.5068 L -21.300012 813.5068 L -21.300012 818.3068 L -27.700012 818.3068 Z M -37.30001 813.5068 L -29.300012 813.5068 L -29.300012 821.5068 L -37.30001 821.5068 Z M -27.700012 819.9068 L -21.300012 819.9068 L -21.300012 829.5068 L -27.700012 829.5068 Z" fill="#616161"/>
        </g>
        <g id="Graphic_29">
          <path d="M -19.32277 731.1953 L -35.32277 731.1953 C -37.08277 731.1953 -38.52277 732.6353 -38.52277 734.3953 L -38.52277 759.9953 C -38.52277 761.7553 -37.08277 763.1686 -35.32277 763.1686 L -19.32277 763.1953 C -17.562771 763.1953 -16.122771 761.7553 -16.122771 759.9953 L -16.122771 734.3953 C -16.122771 732.6353 -17.562771 731.1953 -19.32277 731.1953 Z M -27.32277 734.3953 C -25.56277 734.3953 -24.12277 735.8353 -24.12277 737.5953 C -24.12277 739.3553 -25.56277 740.7953 -27.32277 740.7953 C -29.109438 740.7953 -30.52277 739.3553 -30.52277 737.5953 C -30.52277 735.8353 -29.109438 734.3953 -27.32277 734.3953 Z M -27.32277 759.9953 C -31.749438 759.9953 -35.32277 756.422 -35.32277 751.9953 C -35.32277 747.5686 -31.749438 743.9953 -27.32277 743.9953 C -22.896104 743.9953 -19.32277 747.5686 -19.32277 751.9953 C -19.32277 756.422 -22.896104 759.9953 -27.32277 759.9953 Z M -27.32277 747.1953 C -29.989438 747.1953 -32.12277 749.3286 -32.12277 751.9953 C -32.12277 754.662 -29.989438 756.7953 -27.32277 756.7953 C -24.656104 756.7953 -22.52277 754.662 -22.52277 751.9953 C -22.52277 749.3286 -24.656104 747.1953 -27.32277 747.1953 Z" fill="#616161"/>
        </g>
        <g id="Graphic_28">
          <title>zone external - green</title>
          <rect x="56.29999" y="598.9504" width="125" height="272" fill="#ede7f7"/>
          <text transform="translate(66.29999 613.9504)" fill="#757575">
            <tspan font-family="Roboto" font-weight="bold" font-size="10" fill="#757575" x="0" y="9">Standard Devices</tspan>
            <tspan font-family="Roboto" font-size="10" fill="#757575" x="0" y="20">HTTPS</tspan>
          </text>
        </g>
        <g id="Graphic_27">
          <path d="M 106.20908 812.77955 L 132.3909 812.77955 L 132.3909 809.8705 L 106.20908 809.8705 C 104.60908 809.8705 103.29999 811.17955 103.29999 812.77955 L 103.29999 830.2341 C 103.29999 831.8341 104.60908 833.1432 106.20908 833.1432 L 112.02726 833.1432 L 112.02726 830.2341 L 106.20908 830.2341 Z M 120.75453 821.5068 L 114.93635 821.5068 L 114.93635 824.1008 C 113.14241 825.6765 112.99696 828.3917 114.57272 830.1856 C 114.69393 830.3068 114.81514 830.4523 114.93635 830.5492 L 114.93635 833.1432 L 120.75453 833.1432 L 120.75453 830.5492 C 122.54847 828.9735 122.69393 826.2583 121.11817 824.4644 C 120.99696 824.3432 120.87575 824.1977 120.75453 824.1008 Z M 117.84544 829.5068 C 116.63332 829.5068 115.66362 828.5371 115.66362 827.325 C 115.66362 826.1129 116.63332 825.1432 117.84544 825.1432 C 119.05756 825.1432 120.02726 826.1129 120.02726 827.325 C 120.02726 828.5371 119.05756 829.5068 117.84544 829.5068 Z M 133.84544 815.6886 L 125.11817 815.6886 C 124.34241 815.7371 123.71211 816.3674 123.66362 817.1432 L 123.66362 831.6886 C 123.71211 832.4644 124.34241 833.0947 125.11817 833.1432 L 133.84544 833.1432 C 134.6212 833.0947 135.2515 832.4644 135.29999 831.6886 L 135.29999 817.1432 C 135.2515 816.3674 134.6212 815.7371 133.84544 815.6886 Z M 132.3909 830.2341 L 126.57272 830.2341 L 126.57272 818.5977 L 132.3909 818.5977 Z" fill="#616161"/>
        </g>
        <g id="Graphic_26">
          <path d="M 126.31098 679.2838 C 127.77765 679.2838 128.97765 678.0838 128.97765 676.6171 L 128.97765 663.2838 C 128.97765 661.8171 127.77765 660.6171 126.31098 660.6171 L 104.97765 660.6171 C 103.51098 660.6171 102.31098 661.8171 102.31098 663.2838 L 102.31098 676.6171 C 102.31098 678.0838 103.51098 679.2838 104.97765 679.2838 L 99.64432 679.2838 L 99.64432 681.9504 L 131.64432 681.9504 L 131.64432 679.2838 Z M 104.97765 663.2838 L 126.31098 663.2838 L 126.31098 676.6171 L 104.97765 676.6171 Z" fill="#616161"/>
        </g>
        <g id="Graphic_24">
          <path d="M 128.08876 740.0842 L 103.19987 740.0842 C 101.24432 740.0842 99.64432 741.6842 99.64432 743.6397 L 99.64432 750.75085 C 99.64432 752.7064 101.24432 754.3064 103.19987 754.3064 L 128.08876 754.3064 C 130.04432 754.3064 131.64432 752.7064 131.64432 750.75085 L 131.64432 743.6397 C 131.64432 741.6842 130.04432 740.0842 128.08876 740.0842 Z M 108.5332 748.9731 L 104.97765 748.9731 L 104.97765 745.4175 L 108.5332 745.4175 Z M 114.75543 748.9731 L 111.19987 748.9731 L 111.19987 745.4175 L 114.75543 745.4175 Z M 120.97765 748.9731 L 117.4221 748.9731 L 117.4221 745.4175 L 120.97765 745.4175 Z" fill="#616161"/>
        </g>
        <g id="Graphic_23">
          <text transform="translate(92.53787 759.3064)" fill="#212121">
            <tspan font-family="Roboto" font-size="12" fill="#212121" x="0" y="11">Gateway</tspan>
          </text>
        </g>
        <g id="Group_365">
          <g id="Graphic_137">
            <title>zone internal - blue</title>
            <rect x="591.5889" y="414.95037" width="159.6" height="272" fill="#e1f6fe"/>
            <rect x="591.5889" y="414.95037" width="159.6" height="272" stroke="white" stroke-linecap="round" stroke-linejoin="round" stroke-width="2"/>
            <text transform="translate(601.5889 429.95037)" fill="#757575">
              <tspan font-family="Roboto" font-size="10" fill="#757575" x="0" y="9">Storage</tspan>
            </text>
          </g>
          <g id="Group_309">
            <g id="Graphic_136">
              <rect x="612.1889" y="458.95037" width="119" height="56" fill="white"/>
              <rect x="612.1889" y="458.95037" width="119" height="56" stroke="#dfdfdf" stroke-linecap="round" stroke-linejoin="round" stroke-width="2" clip-path="url(#inner_stroke_clip_path)"/>
              <text transform="translate(663.1889 472.95037)" fill="#212121">
                <tspan font-family="Roboto" font-size="12" fill="#212121" x="0" y="11">Cloud</tspan>
                <tspan font-family="Roboto" font-size="12" fill="#212121" x="0" y="25">Storage</tspan>
              </text>
            </g>
            <g id="Group_264">
              <g id="Graphic_276">
                <rect x="627.37054" y="475.75037" width="28" height="9.8" fill="#aecbfa"/>
              </g>
              <g id="Graphic_275">
                <rect x="652.57054" y="475.75037" width="2.8" height="9.8" fill="#669df6"/>
              </g>
              <g id="Graphic_274">
                <path d="M 655.37054 475.75037 L 652.57054 475.75037 L 652.57054 485.55037 Z" fill="#4285f4"/>
              </g>
              <g id="Graphic_273">
                <rect x="627.37054" y="475.75037" width="2.8" height="9.8" fill="#669df6"/>
              </g>
              <g id="Graphic_272">
                <rect x="632.97054" y="479.95037" width="8.4" height="1.4" fill="white"/>
              </g>
              <g id="Graphic_271">
                <path d="M 647.07054 478.55037 L 648.27054 478.55037 C 649.099 478.55037 649.77054 479.22194 649.77054 480.05037 L 649.77054 481.25037 C 649.77054 482.0788 649.099 482.75037 648.27054 482.75037 L 647.07054 482.75037 C 646.2421 482.75037 645.57054 482.0788 645.57054 481.25037 L 645.57054 480.05037 C 645.57054 479.22194 646.2421 478.55037 647.07054 478.55037 Z" fill="white"/>
              </g>
              <g id="Graphic_270">
                <rect x="627.37054" y="488.35037" width="28" height="9.8" fill="#aecbfa"/>
              </g>
              <g id="Graphic_269">
                <rect x="652.57054" y="488.35037" width="2.8" height="9.8" fill="#669df6"/>
              </g>
              <g id="Graphic_268">
                <path d="M 655.37054 488.35037 L 652.57054 488.35037 L 652.57054 498.15037 Z" fill="#4285f4"/>
              </g>
              <g id="Graphic_267">
                <rect x="627.37054" y="488.35037" width="2.8" height="9.8" fill="#669df6"/>
              </g>
              <g id="Graphic_266">
                <rect x="632.97054" y="492.55037" width="8.4" height="1.4" fill="white"/>
              </g>
              <g id="Graphic_265">
                <path d="M 647.07054 491.15037 L 648.27054 491.15037 C 649.099 491.15037 649.77054 491.82194 649.77054 492.65037 L 649.77054 493.85037 C 649.77054 494.6788 649.099 495.35037 648.27054 495.35037 L 647.07054 495.35037 C 646.2421 495.35037 645.57054 494.6788 645.57054 493.85037 L 645.57054 492.65037 C 645.57054 491.82194 646.2421 491.15037 647.07054 491.15037 Z" fill="white"/>
              </g>
            </g>
          </g>
          <g id="Group_310">
            <g id="Graphic_129">
              <rect x="612.1889" y="534.9504" width="119.7" height="56" fill="white"/>
              <rect x="612.1889" y="534.9504" width="119.7" height="56" stroke="#dfdfdf" stroke-linecap="round" stroke-linejoin="round" stroke-width="2" clip-path="url(#inner_stroke_clip_path_2)"/>
              <text transform="translate(663.1889 555.9504)" fill="#212121">
                <tspan font-family="Roboto" font-size="12" fill="#212121" x="0" y="11">Datastore</tspan>
              </text>
            </g>
            <g id="Group_308">
              <g id="Graphic_307">
                <path d="M 634.37054 554.5504 L 635.77054 553.1504 L 627.37054 553.1504 L 628.77054 554.5504 Z" fill="#aecbfa"/>
              </g>
              <g id="Graphic_306">
                <path d="M 634.37054 554.5504 L 634.37054 560.1504 L 635.77054 561.5504 L 635.77054 553.1504 Z" fill="#669df6"/>
              </g>
              <g id="Graphic_305">
                <path d="M 628.77054 554.5504 L 627.37054 553.1504 L 627.37054 561.5504 L 628.77054 560.1504 Z" fill="#aecbfa"/>
              </g>
              <g id="Graphic_304">
                <path d="M 628.77054 560.1504 L 627.37054 561.5504 L 635.77054 561.5504 L 634.37054 560.1504 Z" fill="#4285f4"/>
              </g>
              <g id="Graphic_303">
                <rect x="628.77054" y="554.5504" width="5.6" height="5.6" fill="#aecbfa"/>
              </g>
              <g id="Graphic_302">
                <path d="M 644.17054 554.5504 L 645.57054 553.1504 L 637.17054 553.1504 L 638.57054 554.5504 Z" fill="#4285f4"/>
              </g>
              <g id="Graphic_301">
                <path d="M 644.17054 554.5504 L 644.17054 560.1504 L 645.57054 561.5504 L 645.57054 553.1504 Z" fill="#669df6"/>
              </g>
              <g id="Graphic_300">
                <path d="M 638.57054 554.5504 L 637.17054 553.1504 L 637.17054 561.5504 L 638.57054 560.1504 Z" fill="#4285f4"/>
              </g>
              <g id="Graphic_299">
                <path d="M 638.57054 560.1504 L 637.17054 561.5504 L 645.57054 561.5504 L 644.17054 560.1504 Z" fill="#669df6"/>
              </g>
              <g id="Graphic_298">
                <rect x="638.57054" y="554.5504" width="5.6" height="5.6" fill="white"/>
              </g>
              <g id="Graphic_297">
                <path d="M 653.97054 554.5504 L 655.37054 553.1504 L 646.97054 553.1504 L 648.37054 554.5504 Z" fill="#4285f4"/>
              </g>
              <g id="Graphic_296">
                <path d="M 653.97054 554.5504 L 653.97054 560.1504 L 655.37054 561.5504 L 655.37054 553.1504 Z" fill="#669df6"/>
              </g>
              <g id="Graphic_295">
                <path d="M 648.37054 554.5504 L 646.97054 553.1504 L 646.97054 561.5504 L 648.37054 560.1504 Z" fill="#4285f4"/>
              </g>
              <g id="Graphic_294">
                <path d="M 648.37054 560.1504 L 646.97054 561.5504 L 655.37054 561.5504 L 653.97054 560.1504 Z" fill="#669df6"/>
              </g>
              <g id="Graphic_293">
                <rect x="648.37054" y="554.5504" width="5.6" height="5.6" fill="white"/>
              </g>
              <g id="Graphic_292">
                <path d="M 634.37054 565.7504 L 635.77054 564.3504 L 627.37054 564.3504 L 628.77054 565.7504 Z" fill="#4285f4"/>
              </g>
              <g id="Graphic_291">
                <path d="M 634.37054 565.7504 L 634.37054 571.3504 L 635.77054 572.7504 L 635.77054 564.3504 Z" fill="#669df6"/>
              </g>
              <g id="Graphic_290">
                <path d="M 628.77054 565.7504 L 627.37054 564.3504 L 627.37054 572.7504 L 628.77054 571.3504 Z" fill="#4285f4"/>
              </g>
              <g id="Graphic_289">
                <path d="M 628.77054 571.3504 L 627.37054 572.7504 L 635.77054 572.7504 L 634.37054 571.3504 Z" fill="#669df6"/>
              </g>
              <g id="Graphic_288">
                <rect x="628.77054" y="565.7504" width="5.6" height="5.6" fill="white"/>
              </g>
              <g id="Graphic_287">
                <path d="M 644.17054 565.7504 L 645.57054 564.3504 L 637.17054 564.3504 L 638.57054 565.7504 Z" fill="#aecbfa"/>
              </g>
              <g id="Graphic_286">
                <path d="M 644.17054 565.7504 L 644.17054 571.3504 L 645.57054 572.7504 L 645.57054 564.3504 Z" fill="#669df6"/>
              </g>
              <g id="Graphic_285">
                <path d="M 638.57054 565.7504 L 637.17054 564.3504 L 637.17054 572.7504 L 638.57054 571.3504 Z" fill="#aecbfa"/>
              </g>
              <g id="Graphic_284">
                <path d="M 638.57054 571.3504 L 637.17054 572.7504 L 645.57054 572.7504 L 644.17054 571.3504 Z" fill="#4285f4"/>
              </g>
              <g id="Graphic_283">
                <rect x="638.57054" y="565.7504" width="5.6" height="5.6" fill="#aecbfa"/>
              </g>
              <g id="Graphic_282">
                <path d="M 653.97054 565.7504 L 655.37054 564.3504 L 646.97054 564.3504 L 648.37054 565.7504 Z" fill="#aecbfa"/>
              </g>
              <g id="Graphic_281">
                <path d="M 653.97054 565.7504 L 653.97054 571.3504 L 655.37054 572.7504 L 655.37054 564.3504 Z" fill="#669df6"/>
              </g>
              <g id="Graphic_280">
                <path d="M 648.37054 565.7504 L 646.97054 564.3504 L 646.97054 572.7504 L 648.37054 571.3504 Z" fill="#aecbfa"/>
              </g>
              <g id="Graphic_279">
                <path d="M 648.37054 571.3504 L 646.97054 572.7504 L 655.37054 572.7504 L 653.97054 571.3504 Z" fill="#4285f4"/>
              </g>
              <g id="Graphic_278">
                <rect x="648.37054" y="565.7504" width="5.6" height="5.6" fill="#aecbfa"/>
              </g>
            </g>
          </g>
          <g id="Group_351">
            <g id="Graphic_118">
              <rect x="612.1889" y="610.9504" width="119" height="56" fill="white"/>
              <rect x="612.1889" y="610.9504" width="119" height="56" stroke="#dfdfdf" stroke-linecap="round" stroke-linejoin="round" stroke-width="2" clip-path="url(#inner_stroke_clip_path_3)"/>
              <text transform="translate(663.1889 624.9504)" fill="#212121">
                <tspan font-family="Roboto" font-size="12" fill="#212121" x="0" y="11">Cloud</tspan>
                <tspan font-family="Roboto" font-size="12" fill="#212121" x="0" y="25">Bigtable</tspan>
              </text>
            </g>
            <g id="Group_331">
              <title>Shape</title>
              <g id="Graphic_350">
                <path d="M 648.7645 630.2901 L 642.18654 626.3724 C 641.2182 625.7691 640.5188 624.8167 640.2329 623.71215 C 640.2329 623.6394 640.4823 623.21335 640.8252 623.39 L 648.96195 628.23256 C 649.9388 628.8041 649.34645 631.3501 649.34645 631.3501 C 649.3587 630.91745 649.1361 630.512 648.7645 630.2901 Z" fill="#669df6"/>
              </g>
              <g id="Graphic_349">
                <path d="M 650.7493 639.9752 C 650.7644 640.17756 650.669 640.37225 650.4999 640.4844 L 648.858 641.5236 L 648.858 629.199 C 648.858 628.7729 649.1178 628.3157 648.7645 628.10786 L 650.1986 629.147 C 650.5582 629.3668 650.7694 629.7652 650.7493 630.1862 Z" fill="#aecbfa"/>
              </g>
              <g id="Graphic_348">
                <path d="M 642.18654 641.4301 C 642.07576 641.4298 641.96745 641.3973 641.8748 641.33654 L 636.4815 638.1255 L 636.4815 639.5284 L 642.18654 642.9369 L 642.6438 642.0432 C 642.6438 642.0432 642.29046 641.4301 642.18654 641.4301 Z" fill="#669df6"/>
              </g>
              <g id="Graphic_347">
                <path d="M 642.4983 644.2462 C 642.3054 644.3576 642.0677 644.3576 641.8748 644.2462 L 636.4815 641.0144 L 636.4815 642.0536 C 636.4812 642.2738 636.5953 642.4784 636.78284 642.59394 L 641.8852 645.6387 C 642.0698 645.75326 642.3033 645.75326 642.4879 645.6387 C 642.63095 645.38525 642.736 645.11215 642.79965 644.8282 L 642.4983 644.2358 Z" fill="#669df6"/>
              </g>
              <g id="Graphic_346">
                <path d="M 642.18654 640.07914 L 647.8916 636.67065 L 647.8916 636.016 C 647.8961 635.79465 647.7809 635.5881 647.59025 635.4756 L 642.4879 632.4204 C 642.30034 632.3169 642.07274 632.3169 641.8852 632.4204 L 636.78284 635.4756 C 636.5922 635.5881 636.477 635.79465 636.4815 636.016 L 636.4815 636.67065 Z" fill="#aecbfa"/>
              </g>
              <g id="Graphic_345">
                <path d="M 642.18654 638.6659 L 636.78284 635.4756 C 636.5922 635.5881 636.477 635.79465 636.4815 636.016 L 636.4815 636.67065 L 642.18654 640.07914 L 642.623 639.19584 Z" fill="#669df6"/>
              </g>
              <g id="Graphic_344">
                <path d="M 642.18654 641.4301 L 642.18654 642.9369 L 647.8916 639.5284 L 647.8916 638.1255 L 642.4983 641.33654 C 642.3999 641.3839 642.2947 641.41546 642.18654 641.4301 Z" fill="#4285f4"/>
              </g>
              <g id="Graphic_343">
                <path d="M 642.4983 644.2462 C 642.4028 644.2991 642.2957 644.32766 642.18654 644.32936 C 642.18654 644.7658 642.1242 645.73224 642.18654 645.73224 C 642.3029 645.7356 642.418 645.7068 642.5191 645.6491 L 647.6214 642.6043 C 647.8089 642.4888 647.923 642.2842 647.9228 642.06396 L 647.9228 641.0144 L 642.5295 644.2358 Z" fill="#4285f4"/>
              </g>
              <g id="Graphic_342">
                <path d="M 647.59025 635.4756 L 642.18654 638.6659 L 642.18654 640.07914 L 647.8916 636.67065 L 647.8916 636.016 C 647.8961 635.79465 647.7809 635.5881 647.59025 635.4756 Z" fill="#4285f4"/>
              </g>
              <g id="Graphic_341">
                <path d="M 635.6086 647.5612 L 642.0826 651.4061 C 643.1107 652.0262 643.8338 653.0468 644.0778 654.2223 C 644.09826 654.3341 644.0492 654.4472 643.95355 654.5087 C 643.8579 654.5702 643.73465 654.5679 643.6414 654.5029 L 635.14094 649.4733 C 634.3096 648.98486 635.037 646.5532 635.037 646.5532 C 635.043 646.9647 635.2585 647.3448 635.6086 647.5612 Z" fill="#669df6"/>
              </g>
              <g id="Graphic_340">
                <path d="M 633.63414 647.86255 L 633.63414 637.6475 C 633.6306 637.4372 633.73695 637.2403 633.9147 637.1279 L 635.5358 636.203 L 635.5358 648.538 C 635.5358 648.9537 635.5358 649.5772 635.858 649.8266 L 634.1953 648.7874 C 633.8714 648.5863 633.66296 648.2427 633.63414 647.86255 Z" fill="#aecbfa"/>
              </g>
              <g id="Graphic_339">
                <path d="M 639.3288 628.74175 C 638.9725 628.5335 638.5316 628.5335 638.1753 628.74175 L 631.61814 632.6283 C 630.638 633.2003 629.4667 633.3467 628.3759 633.03354 C 628.2608 632.9721 628.1889 632.8523 628.1889 632.7218 C 628.1889 632.5913 628.2608 632.47144 628.3759 632.41 L 638.16494 626.5699 C 638.52865 626.36205 639.3288 628.74175 639.3288 628.74175 Z" fill="#669df6"/>
              </g>
              <g id="Graphic_338">
                <path d="M 639.308 626.60106 L 647.6214 631.50596 C 647.8062 631.58936 647.9273 631.7709 647.9332 631.9736 L 647.9332 633.8129 L 637.5414 627.661 C 637.1877 627.4436 636.7417 627.4436 636.38795 627.661 L 638.16494 626.5699 C 638.51615 626.3567 638.9568 626.3567 639.308 626.5699 Z" fill="#aecbfa"/>
              </g>
              <g id="Graphic_337">
                <path d="M 645.0339 649.0576 C 645.38764 649.275 645.8336 649.275 646.18736 649.0576 L 652.7238 645.1711 C 653.7141 644.5835 654.9061 644.4402 656.00755 644.7762 C 656.1188 644.833 656.1889 644.9474 656.1889 645.0724 C 656.1889 645.1973 656.1188 645.3117 656.00755 645.3685 L 646.1458 651.2191 C 645.7821 651.4269 644.9923 649.0368 644.9923 649.0368 Z" fill="#669df6"/>
              </g>
              <g id="Graphic_336">
                <path d="M 636.7413 646.34536 C 636.60704 646.2004 636.5169 646.02014 636.4815 645.8258 L 636.4815 644.0072 L 646.8732 650.1487 C 647.2295 650.35695 647.6704 650.35695 648.0267 650.1487 L 646.18736 651.2399 C 645.83106 651.4481 645.3902 651.4481 645.0339 651.2399 Z" fill="#aecbfa"/>
              </g>
              <g id="Graphic_335">
                <path d="M 633.24965 635.5172 C 632.88136 635.7322 632.6586 636.13 632.6677 636.55634 L 632.6677 644.319 C 632.66055 645.4987 632.1727 646.6245 631.3168 647.4365 C 631.23794 647.5148 631.1203 647.5392 631.01684 647.4987 C 630.9134 647.4582 630.8435 647.36045 630.8388 647.2494 C 630.8388 646.96886 630.8388 635.4444 630.8388 635.4444 C 630.8388 635.0184 633.26004 635.5068 633.26004 635.5068 Z" fill="#669df6"/>
              </g>
              <g id="Graphic_334">
                <path d="M 638.7053 630.39404 C 638.8783 630.2916 639.0934 630.2916 639.2665 630.39404 L 640.8148 631.3085 L 631.35835 636.8577 C 630.9853 637.0706 630.7552 637.4673 630.7556 637.8969 L 630.7556 635.7146 C 630.7509 635.28665 630.9773 634.8894 631.34796 634.6754 Z" fill="#aecbfa"/>
              </g>
              <g id="Graphic_333">
                <path d="M 651.7989 641.1807 L 651.7989 633.4492 C 651.7999 632.27655 652.2716 631.1534 653.10826 630.3317 C 653.10826 630.3317 653.62784 630.1654 653.5967 630.6642 C 653.5655 631.163 653.5967 642.1471 653.5967 642.1471 C 653.10826 642.71864 651.0819 642.1471 651.0819 642.1471 C 651.4708 641.9692 651.7414 641.60445 651.7989 641.1807 Z" fill="#669df6"/>
              </g>
              <g id="Graphic_332">
                <path d="M 653.0667 643.0096 L 645.68856 647.4573 C 645.5085 647.5612 645.2867 647.5612 645.1066 647.4573 L 643.56864 646.5532 L 653.0667 640.82734 C 653.431 640.6097 653.6495 640.2124 653.6382 639.7882 L 653.6382 641.96004 C 653.61745 642.4069 653.0667 643.0096 653.0667 643.0096 Z" fill="#aecbfa"/>
              </g>
            </g>
          </g>
        </g>
        <g id="Graphic_103">
          <title>zone internal - blue</title>
          <rect x="591.5889" y="706.9504" width="159.6" height="348" fill="#e1f6fe"/>
          <rect x="591.5889" y="706.9504" width="159.6" height="348" stroke="white" stroke-linecap="round" stroke-linejoin="round" stroke-width="2"/>
          <text transform="translate(601.5889 721.9504)" fill="#757575">
            <tspan font-family="Roboto" font-size="10" fill="#757575" x="0" y="9">Analytics</tspan>
          </text>
        </g>
        <g id="Group_372">
          <g id="Graphic_91">
            <rect x="612.1889" y="826.9504" width="118.69999" height="56" fill="white"/>
            <rect x="612.1889" y="826.9504" width="118.69999" height="56" stroke="#dfdfdf" stroke-linecap="round" stroke-linejoin="round" stroke-width="2" clip-path="url(#inner_stroke_clip_path_4)"/>
            <text transform="translate(663.1889 847.9504)" fill="#212121">
              <tspan font-family="Roboto" font-size="12" fill="#212121" x="0" y="11">BigQuery</tspan>
            </text>
          </g>
          <g id="Group_366">
            <title>Shape</title>
            <g id="Graphic_371">
              <path d="M 634.8443 853.3107 L 634.8443 857.039 C 635.4245 858.0306 636.241 858.8631 637.2211 859.4624 L 637.2211 853.3107 Z" fill="#aecbfa"/>
            </g>
            <g id="Graphic_370">
              <path d="M 639.253 849.9273 L 639.253 860.4505 C 639.7557 860.5289 640.2635 860.5694 640.7723 860.5716 C 641.234 860.5706 641.695 860.5364 642.15176 860.4691 L 642.15176 849.9273 Z" fill="#669df6"/>
            </g>
            <g id="Graphic_369">
              <path d="M 644.5006 854.7648 L 644.5006 859.3599 C 645.4948 858.7287 646.3101 857.8525 646.8681 856.8153 L 646.8681 854.7648 Z" fill="#aecbfa"/>
            </g>
            <g id="Graphic_368">
              <path d="M 650.2329 860.9817 L 648.2382 862.9764 C 648.0133 863.2108 648.0133 863.5808 648.2382 863.8153 L 653.1969 868.7553 C 653.3057 868.8674 653.45535 868.9308 653.61165 868.9308 C 653.76795 868.9308 653.9176 868.8674 654.0264 868.7553 L 656.0211 866.7699 C 656.2448 866.5387 656.2448 866.1716 656.0211 865.9404 L 651.0624 860.9817 C 650.83116 860.758 650.4641 860.758 650.2329 860.9817" fill="#4285f4"/>
            </g>
            <g id="Graphic_367">
              <path d="M 640.8282 840.97 C 635.7279 840.9549 631.1215 844.0157 629.1592 848.7234 C 627.19696 853.4311 628.2659 858.8574 631.867 862.4692 C 635.4681 866.081 640.8912 867.166 645.6047 865.2177 C 650.3182 863.2694 653.3926 858.672 653.3926 853.5717 C 653.39264 846.6265 647.7734 840.9906 640.8282 840.97 M 640.8282 862.9018 C 635.6805 862.9018 631.5074 858.7288 631.5074 853.581 C 631.5074 848.4333 635.6805 844.2603 640.8282 844.2603 C 645.9759 844.2603 650.149 848.4333 650.149 853.581 C 650.149 858.7288 645.9759 862.9018 640.8282 862.9018" fill="#669df6"/>
            </g>
          </g>
        </g>
        <g id="Group_388">
          <g id="Graphic_81">
            <rect x="612.1889" y="902.9504" width="118.69999" height="56" fill="white"/>
            <rect x="612.1889" y="902.9504" width="118.69999" height="56" stroke="#dfdfdf" stroke-linecap="round" stroke-linejoin="round" stroke-width="2" clip-path="url(#inner_stroke_clip_path_5)"/>
            <text transform="translate(663.1889 923.9504)" fill="#212121">
              <tspan font-family="Roboto" font-size="12" fill="#212121" x="0" y="11">Dataproc</tspan>
            </text>
          </g>
          <g id="Group_374">
            <title>Shape</title>
            <g id="Graphic_386">
              <title>Rectangle-path</title>
              <path d="M 650.78674 934.5588 L 636.5929 942.7665 L 635.2358 940.4241 L 649.4296 932.2164 Z" fill="#aecbfa"/>
            </g>
            <g id="Graphic_385">
              <path d="M 636.5464 940.0988 L 636.53714 923.702 L 639.1398 923.6927 L 639.1491 938.1189 Z" fill="#aecbfa"/>
            </g>
            <g id="Graphic_384">
              <path d="M 639.24206 928.2845 L 638.87025 924.9847 L 653.0734 933.1738 L 651.7163 935.5255 Z" fill="#aecbfa"/>
            </g>
            <g id="Graphic_383">
              <path d="M 645.9718 929.0839 L 638.9167 924.994 L 639.2885 928.2938 L 641.38926 929.4929 C 642.92246 930.0451 644.62046 929.899 646.0369 929.0932 Z" fill="#4285f4"/>
            </g>
            <g id="Graphic_382">
              <path d="M 637.2343 926.3232 C 636.0506 924.2588 636.3972 921.6571 638.08015 919.9746 C 639.0624 918.9824 640.4021 918.4265 641.79825 918.4316 C 644.359 918.4275 646.5521 920.2647 646.9969 922.7866 C 647.4417 925.3084 646.0094 927.785 643.6017 928.6572 C 641.1941 929.5295 638.5079 928.5448 637.2343 926.3232 Z M 644.0198 922.4192 C 643.5602 921.6269 642.7142 921.1385 641.79825 921.1365 C 640.3907 921.1466 639.2522 922.2852 639.24206 923.6927 C 639.2365 924.1496 639.3554 924.5995 639.586 924.994 C 640.2893 926.2184 641.852 926.6408 643.07634 925.9375 C 644.3007 925.2342 644.7231 923.6715 644.0198 922.4471 Z" fill="#aecbfa"/>
            </g>
            <g id="Graphic_381">
              <path d="M 636.53714 932.8113 L 636.53714 940.0988 L 639.1491 938.1189 L 639.1491 935.8509 C 638.7924 934.4898 637.829 933.3688 636.53714 932.8113 Z" fill="#4285f4"/>
            </g>
            <g id="Graphic_380">
              <path d="M 644.4939 938.2026 L 650.796 934.5588 L 647.7193 933.211 L 645.9811 934.2149 C 645.0098 935.3148 644.48 936.7353 644.4939 938.2026 Z" fill="#4285f4"/>
            </g>
            <g id="Graphic_379">
              <path d="M 629.3984 940.8424 C 628.3298 938.997 628.4785 936.6895 629.7752 934.9966 C 631.07184 933.3036 633.2609 932.5589 635.32096 933.1098 C 637.381 933.6608 638.9061 935.3988 639.18456 937.513 C 639.463 939.6272 638.44005 941.7009 636.5929 942.7665 C 634.0738 944.2139 630.8587 943.354 629.3984 940.8424 Z M 636.1746 936.9291 C 635.46876 935.7047 633.904 935.2844 632.6796 935.9903 C 631.45525 936.6962 631.0349 938.2609 631.7408 939.4853 C 632.4467 940.7097 634.01144 941.13 635.2358 940.4241 C 636.4602 939.7182 636.8805 938.1535 636.1746 936.9291 Z" fill="#aecbfa"/>
            </g>
            <g id="Graphic_378">
              <path d="M 645.88815 940.3776 C 644.5711 938.0951 645.14954 935.1899 647.24044 933.5859 C 649.33135 931.982 652.2872 932.1759 654.1506 934.0393 C 656.014 935.9027 656.20794 938.8586 654.60396 940.9495 C 653 943.0404 650.0948 943.6188 647.8123 942.3018 C 647.0138 941.8395 646.3504 941.1761 645.88815 940.3776 Z M 652.6551 936.455 C 652.1119 935.5378 651.0564 935.0539 650.0069 935.241 C 648.9574 935.4282 648.1342 936.247 647.9415 937.2955 C 647.7488 938.344 648.2271 939.402 649.1415 939.9501 C 649.7261 940.2927 650.4235 940.3872 651.0783 940.2126 C 651.733 940.038 652.2908 939.6088 652.6272 939.0205 C 653.0819 938.2291 653.0819 937.2557 652.6272 936.4643 Z" fill="#aecbfa"/>
            </g>
            <g id="Graphic_377">
              <path d="M 639.1398 937.2823 C 639.1398 937.2823 635.8679 940.0709 635.2358 940.4241 L 639.2142 938.1189 C 639.2125 937.8385 639.1876 937.5587 639.1398 937.2823 Z" fill="#669df6"/>
            </g>
            <g id="Graphic_376">
              <path d="M 640.05074 928.647 C 640.05074 928.647 639.23276 924.1482 639.23276 923.6927 L 639.23276 928.2845 C 639.4916 928.428 639.7621 928.5493 640.04145 928.647 Z" fill="#669df6"/>
            </g>
            <g id="Graphic_375">
              <path d="M 647.2824 933.5549 C 647.2824 933.5549 651.1307 935.1537 651.7627 935.5255 L 647.7844 933.2296 C 647.6043 933.317 647.43575 933.4263 647.2824 933.5549 Z" fill="#669df6"/>
            </g>
          </g>
        </g>
        <g id="Group_394">
          <g id="Graphic_70">
            <rect x="612.1889" y="978.9504" width="118.69999" height="56" fill="white"/>
            <rect x="612.1889" y="978.9504" width="118.69999" height="56" stroke="#dfdfdf" stroke-linecap="round" stroke-linejoin="round" stroke-width="2" clip-path="url(#inner_stroke_clip_path_6)"/>
            <text transform="translate(663.1889 999.9504)" fill="#212121">
              <tspan font-family="Roboto" font-size="12" fill="#212121" x="0" y="11">Datalab</tspan>
            </text>
          </g>
          <g id="Group_389">
            <title>24x24</title>
            <g id="Graphic_390">
              <title>Combined-Shape</title>
              <path d="M 648.9444 1001.4293 C 649.05055 1001.4293 649.1406 1001.503 649.17235 1001.6052 L 649.1846 1001.6866 L 649.1846 1003.1021 C 649.1846 1003.2157 649.1158 1003.3122 649.0203 1003.3463 L 648.9444 1003.3594 L 647.9835 1003.3594 L 647.9835 1005.8954 C 647.9835 1005.9692 647.9956 1006.0422 648.019 1006.1112 L 648.0625 1006.211 L 654.5421 1018.1475 C 654.72256 1018.4824 654.74834 1018.8838 654.6194 1019.2376 L 654.5421 1019.4101 L 652.1917 1023.8191 C 652.01125 1024.1539 651.69955 1024.3786 651.34906 1024.4359 L 651.171 1024.4504 L 637.229 1024.4504 C 636.868 1024.4504 636.5306 1024.2736 636.309 1023.977 L 636.2083 1023.8191 L 633.8579 1019.4101 C 633.6774 1019.0752 633.65165 1018.6738 633.7806 1018.32 L 633.8579 1018.1475 L 640.3204 1006.211 C 640.3549 1006.147 640.38604 1006.0773 640.403 1006.0051 L 640.4164 1005.8954 L 640.4164 1003.3594 L 639.4555 1003.3594 C 639.3494 1003.3594 639.2593 1003.2856 639.2275 1003.1834 L 639.2153 1003.1021 L 639.2153 1001.6866 C 639.2153 1001.5729 639.28416 1001.4764 639.3796 1001.4424 L 639.4555 1001.4293 Z M 646.1818 1003.3594 L 642.2181 1003.3594 L 642.2181 1006.2889 C 642.2181 1006.4552 642.1875 1006.6192 642.12855 1006.7718 L 642.06026 1006.9203 L 635.8651 1018.4845 C 635.7809 1018.6407 635.7641 1018.826 635.8147 1018.9939 L 635.8652 1019.1158 L 637.4672 1022.088 C 637.55134 1022.2443 637.6927 1022.3525 637.8537 1022.3896 L 637.9775 1022.4036 L 639.951 1022.4029 L 638.2067 1019.164 C 638.12256 1019.0078 638.1057 1018.8225 638.1562 1018.6546 L 638.2067 1018.5327 L 639.7266 1015.7124 L 651.04775 1015.7109 L 650.14825 1014.0326 L 645.95934 1014.033 L 645.2781 1012.7689 L 649.471 1012.7674 L 648.211 1010.4136 L 643.9804 1010.414 L 643.2991 1009.1499 L 647.532 1009.1484 L 646.3397 1006.9203 C 646.2622 1006.7763 646.2121 1006.6178 646.1919 1006.4541 L 646.1818 1006.2889 Z M 651.80725 1017.1266 L 647.6232 1017.1278 L 648.30445 1018.4146 L 652.49675 1018.4129 Z M 641.80355 996.0527 C 642.45444 996.0527 642.9821 996.6181 642.9821 997.3154 C 642.9821 998.0128 642.45444 998.578 641.80355 998.578 C 641.1527 998.578 640.625 998.0128 640.625 997.3154 C 640.625 996.6181 641.1527 996.0527 641.80355 996.0527 Z M 646.2503 993.3435 C 647.2267 993.3435 648.01824 994.1914 648.01824 995.2374 C 648.01824 996.2833 647.2267 997.1313 646.2503 997.1313 C 645.2739 997.1313 644.4825 996.2833 644.4825 995.2374 C 644.4825 994.1914 645.2739 993.3435 646.2503 993.3435 Z M 643.5713 989.4504 C 644.2222 989.4504 644.75 990.0158 644.75 990.7131 C 644.75 991.4104 644.2222 991.9757 643.5713 991.9757 C 642.92056 991.9757 642.3928 991.4104 642.3928 990.7131 C 642.3928 990.0158 642.92056 989.4504 643.5713 989.4504 Z" fill="#4285f4"/>
            </g>
          </g>
        </g>
        <g id="Group_519">
          <g id="Graphic_56">
            <title>zone internal - blue</title>
            <rect x="781.1" y="598.9504" width="159.6" height="272" fill="#e1f6fe"/>
            <rect x="781.1" y="598.9504" width="159.6" height="272" stroke="white" stroke-linecap="round" stroke-linejoin="round" stroke-width="2"/>
            <text transform="translate(791.1 613.9504)" fill="#757575">
              <tspan font-family="Roboto" font-size="10" fill="#757575" x="0" y="9">Application &amp; Presentation</tspan>
            </text>
          </g>
          <g id="Group_446">
            <g id="Graphic_55">
              <rect x="801.7" y="642.9504" width="117.5" height="56" fill="white"/>
              <rect x="801.7" y="642.9504" width="117.5" height="56" stroke="#dfdfdf" stroke-linecap="round" stroke-linejoin="round" stroke-width="2" clip-path="url(#inner_stroke_clip_path_7)"/>
              <text transform="translate(852.7 656.9504)" fill="#212121">
                <tspan font-family="Roboto" font-size="12" fill="#212121" x="0" y="11">App </tspan>
                <tspan font-family="Roboto" font-size="12" fill="#212121" x="0" y="25">Engine</tspan>
              </text>
            </g>
            <g id="Group_395">
              <title>Shape</title>
              <g id="Graphic_401">
                <path d="M 834.457 669.84424 L 832.749 671.55224 C 833.3309 671.9976 833.6752 672.6862 833.68235 673.4189 C 833.6774 674.0617 833.4167 674.676 832.9579 675.1261 C 832.499 675.5762 831.8797 675.82504 831.237 675.8176 C 830.5043 675.8104 829.8157 675.4661 829.37035 674.88424 L 827.66235 676.59224 C 828.5638 677.62515 829.8661 678.2202 831.237 678.2256 C 833.8968 678.2256 836.053 676.0694 836.053 673.4096 C 836.0544 672.0478 835.4736 670.7503 834.457 669.84424 Z" fill="#4285f4"/>
              </g>
              <g id="Graphic_400">
                <path d="M 831.237 664.6549 C 827.6952 664.6511 824.5001 666.78174 823.1421 670.0528 C 821.7841 673.3239 822.5308 677.091 825.0339 679.59675 C 827.537 682.1025 831.3032 682.8532 834.5758 681.4987 C 837.8483 680.1442 839.9823 676.95136 839.9824 673.4096 C 839.9824 668.57815 836.0684 664.6601 831.237 664.6549 M 831.237 679.58824 C 828.7183 679.5882 826.4477 678.0705 825.4847 675.7431 C 824.5217 673.4157 825.056 670.7373 826.8384 668.9576 C 828.6207 667.1779 831.2999 666.6476 833.6258 667.6141 C 835.9518 668.5806 837.4661 670.8535 837.4624 673.37224 C 837.4698 675.02815 836.8172 676.6188 835.6489 677.7923 C 834.4806 678.9659 832.8929 679.6256 831.237 679.6256" fill="#aecbfa"/>
              </g>
              <g id="Graphic_399">
                <path d="M 844.705 672.56024 L 841.121 671.4309 C 841.2749 672.1361 841.3531 672.8558 841.3544 673.5776 C 841.3552 674.0806 841.3178 674.5829 841.2424 675.08024 L 844.705 675.08024 C 845.0224 674.9869 845.237 674.7909 845.237 674.5016 L 845.237 673.1389 C 845.2182 672.84474 844.9966 672.6036 844.705 672.56024" fill="#669df6"/>
              </g>
              <g id="Graphic_398">
                <path d="M 831.237 663.6189 C 831.9428 663.6217 832.6465 663.6968 833.337 663.8429 L 832.0117 660.2776 C 831.9682 659.9809 831.723 659.7551 831.4237 659.73624 L 830.88235 659.73624 C 830.5831 659.7551 830.3379 659.9809 830.29435 660.2776 L 829.1837 663.82424 C 829.8595 663.687 830.5474 663.6182 831.237 663.6189" fill="#669df6"/>
              </g>
              <g id="Graphic_397">
                <path d="M 821.1197 673.5776 C 821.1209 672.8558 821.1992 672.1361 821.353 671.4309 L 817.769 672.56024 C 817.4775 672.6036 817.2558 672.84474 817.237 673.1389 L 817.237 674.5016 C 817.237 674.7909 817.4517 674.9869 817.769 675.08024 L 821.2317 675.08024 C 821.1562 674.5829 821.1188 674.0806 821.1197 673.5776" fill="#669df6"/>
              </g>
              <g id="Graphic_396">
                <path d="M 831.237 669.90024 C 829.304 669.90024 827.737 671.46725 827.737 673.40024 C 827.737 675.3332 829.304 676.90024 831.237 676.90024 C 833.17 676.90024 834.737 675.3332 834.737 673.40024 C 834.737 671.46725 833.17 669.90024 831.237 669.90024 Z M 831.237 675.1549 C 830.5265 675.1587 829.8838 674.7336 829.6093 674.0782 C 829.3347 673.42285 829.4826 672.6666 829.9836 672.16284 C 830.4847 671.6591 831.2402 671.5072 831.897 671.7783 C 832.5538 672.0493 832.9823 672.6897 832.98235 673.40024 C 832.9873 673.8664 832.8057 674.3151 832.4778 674.6465 C 832.1499 674.9778 831.7032 675.1643 831.237 675.16424 Z" fill="#aecbfa"/>
              </g>
            </g>
          </g>
          <g id="Group_447">
            <g id="Graphic_45">
              <rect x="801.7" y="718.9504" width="119" height="56" fill="white"/>
              <rect x="801.7" y="718.9504" width="119" height="56" stroke="#dfdfdf" stroke-linecap="round" stroke-linejoin="round" stroke-width="2" clip-path="url(#inner_stroke_clip_path_8)"/>
              <text transform="translate(852.7 725.9504)" fill="#212121">
                <tspan font-family="Roboto" font-size="12" fill="#212121" x="0" y="11">Google </tspan>
                <tspan font-family="Roboto" font-size="12" fill="#212121" x="0" y="25">Kubernetes </tspan>
                <tspan font-family="Roboto" font-size="12" fill="#212121" x="0" y="39">Engine</tspan>
              </text>
            </g>
            <g id="Group_403">
              <title>Shape</title>
              <g id="Graphic_410">
                <path d="M 835.9992 748.4658 L 842.5089 752.22105 L 842.5089 753.6412 L 835.4369 749.5619 Z" fill="#4285f4"/>
              </g>
              <g id="Graphic_409">
                <path d="M 829.2893 749.3045 L 821.8265 753.6126 L 821.369 752.4593 L 828.6317 748.2657 Z" fill="#669df6"/>
              </g>
              <g id="Graphic_408">
                <title>Rectangle-path</title>
                <rect x="831.5291" y="734.4933" width="1.2295082" height="8.263439" fill="#aecbfa"/>
              </g>
              <g id="Graphic_407">
                <path d="M 819.6629 739.8021 L 819.6629 754.0987 L 832.1677 761.247 L 844.6629 754.0987 L 844.6629 739.8021 L 832.1677 732.6538 Z M 841.9942 752.507 L 832.1677 758.0731 L 822.3412 752.507 L 822.3412 741.39375 L 832.1677 735.8276 L 841.9847 741.39375 L 841.9847 752.507 Z" fill="#aecbfa"/>
              </g>
              <g id="Graphic_406">
                <path d="M 832.1486 746.2451 L 837.8292 742.95685 L 832.1486 739.6782 L 826.4586 742.95685 Z" fill="#aecbfa"/>
              </g>
              <g id="Graphic_405">
                <path d="M 831.4815 747.3793 L 825.963 744.1006 L 825.963 750.658 L 831.4815 753.9462 Z" fill="#669df6"/>
              </g>
              <g id="Graphic_404">
                <path d="M 832.8539 747.3793 L 832.8539 753.9462 L 838.3724 750.658 L 838.3724 744.1006 Z" fill="#4285f4"/>
              </g>
            </g>
          </g>
          <g id="Group_448">
            <g id="Graphic_39">
              <rect x="803.2" y="794.9504" width="117.5" height="56" fill="white"/>
              <rect x="803.2" y="794.9504" width="117.5" height="56" stroke="#dfdfdf" stroke-linecap="round" stroke-linejoin="round" stroke-width="2" clip-path="url(#inner_stroke_clip_path_9)"/>
              <text transform="translate(852.2 808.9504)" fill="#212121">
                <tspan font-family="Roboto" font-size="12" fill="#212121" x="0" y="11">Compute</tspan>
                <tspan font-family="Roboto" font-size="12" fill="#212121" x="0" y="25">Engine</tspan>
              </text>
            </g>
            <g id="Group_429">
              <g id="Graphic_445">
                <rect x="828.4129" y="819.2004" width="7.5" height="7.5" fill="#aecbfa"/>
              </g>
              <g id="Graphic_444">
                <rect x="830.9129" y="810.4504" width="2.5" height="5" fill="#669df6"/>
              </g>
              <g id="Graphic_443">
                <rect x="825.9129" y="810.4504" width="2.5" height="5" fill="#669df6"/>
              </g>
              <g id="Graphic_442">
                <rect x="835.9129" y="810.4504" width="2.5" height="5" fill="#669df6"/>
              </g>
              <g id="Graphic_441">
                <rect x="830.9129" y="830.4504" width="2.5" height="5" fill="#4285f4"/>
              </g>
              <g id="Graphic_440">
                <rect x="825.9129" y="830.4504" width="2.5" height="5" fill="#4285f4"/>
              </g>
              <g id="Graphic_439">
                <rect x="835.9129" y="830.4504" width="2.5" height="5" fill="#4285f4"/>
              </g>
              <g id="Graphic_438">
                <rect x="839.6629" y="821.7004" width="5" height="2.5" fill="#4285f4"/>
              </g>
              <g id="Graphic_437">
                <rect x="839.6629" y="826.7004" width="5" height="2.5" fill="#4285f4"/>
              </g>
              <g id="Graphic_436">
                <rect x="839.6629" y="816.7004" width="5" height="2.5" fill="#4285f4"/>
              </g>
              <g id="Graphic_435">
                <rect x="819.6629" y="821.7004" width="5" height="2.5" fill="#669df6"/>
              </g>
              <g id="Graphic_434">
                <rect x="819.6629" y="826.7004" width="5" height="2.5" fill="#669df6"/>
              </g>
              <g id="Graphic_433">
                <rect x="819.6629" y="816.7004" width="5" height="2.5" fill="#669df6"/>
              </g>
              <g id="Graphic_432">
                <path d="M 823.4129 814.2004 L 823.4129 831.7004 L 840.9129 831.7004 L 840.9129 814.2004 Z M 838.4129 829.2004 L 825.9129 829.2004 L 825.9129 816.7004 L 838.4129 816.7004 Z" fill="#aecbfa"/>
              </g>
              <g id="Graphic_431">
                <path d="M 828.4129 826.7004 L 835.9129 826.7004 L 832.1629 822.9504 Z" fill="#669df6"/>
              </g>
              <g id="Graphic_430">
                <path d="M 832.1629 822.9504 L 835.9129 826.7004 L 835.9129 819.2004 Z" fill="#4285f4"/>
              </g>
            </g>
          </g>
        </g>
        <g id="Group_245">
          <title>Shape</title>
          <g id="Graphic_257">
            <path d="M 461.81667 662.242 L 461.475 661.0754 L 459.70833 660.992 L 457.56667 662.192 L 459.46667 664.0587 L 459.44167 666.2254 L 460.70833 666.242 L 460.73333 664.0754 L 466.04167 667.2837 L 466.025 668.617 L 468.23333 668.6504 L 468.23333 666.0837 Z" fill="#669df6"/>
          </g>
          <g id="Graphic_256">
            <path d="M 459.70833 660.992 L 457.925 661.417 L 457.56667 662.192 L 450.98333 665.8504 L 450.95 668.417 L 453.175 668.4504 L 453.19167 667.1087 L 458.59167 664.0504 L 458.56667 666.217 L 459.63333 666.2254 Z" fill="#aecbfa"/>
          </g>
          <g id="Graphic_255">
            <path d="M 459.70833 660.992 L 455.43333 658.4504 L 453.26667 659.6337 L 457.56667 662.192 L 459.70833 660.992 Z" fill="#669df6"/>
          </g>
          <g id="Graphic_254">
            <path d="M 465.94167 674.7837 L 460.55833 677.842 L 460.58333 675.6837 L 458.44167 675.6587 L 458.40833 677.817 L 459.44167 680.9087 L 461.21667 680.767 L 461.58333 679.7087 L 468.16667 676.042 L 468.2 673.4254 L 465.95833 673.392 Z" fill="#669df6"/>
          </g>
          <g id="Graphic_253">
            <path d="M 459.44167 680.9087 L 455.10833 683.3337 L 455.05 683.3337 L 452.96667 682.1004 L 457.33333 679.6504 L 459.44167 680.9087 Z" fill="#669df6"/>
          </g>
          <g id="Graphic_252">
            <path d="M 461.81667 662.242 L 466.18333 659.8004 L 464.1 658.567 L 464.04167 658.567 L 459.70833 660.992 Z" fill="#4285f4"/>
          </g>
          <g id="Graphic_251">
            <path d="M 461.58333 679.7087 L 465.88333 682.267 L 463.775 683.4504 L 463.70833 683.4504 L 459.44167 680.9087 Z" fill="#4285f4"/>
          </g>
          <g id="Graphic_250">
            <path d="M 459.44167 680.9087 L 457.33333 679.6504 L 450.91667 675.817 L 450.91667 673.3087 L 453.11667 673.3087 L 453.09167 674.617 L 458.40833 677.817 L 458.44167 675.6587 L 459.51667 675.6754 Z" fill="#aecbfa"/>
          </g>
          <g id="Graphic_249">
            <title>Oval</title>
            <circle cx="467.225" cy="671.0004" r="1.42500227701022" fill="#aecbfa"/>
          </g>
          <g id="Graphic_248">
            <circle cx="451.925" cy="670.792" r="1.4250022770102" fill="#aecbfa"/>
          </g>
          <g id="Graphic_247">
            <circle cx="459.65833" cy="668.442" r="1.4250022770102" fill="#aecbfa"/>
          </g>
          <g id="Graphic_246">
            <circle cx="459.54167" cy="673.4587" r="1.42500227701022" fill="#aecbfa"/>
          </g>
        </g>
        <g id="Group_514">
          <g id="Graphic_102">
            <rect x="612.0389" y="750.9504" width="118.69999" height="56" fill="white"/>
            <rect x="612.0389" y="750.9504" width="118.69999" height="56" stroke="#dfdfdf" stroke-linecap="round" stroke-linejoin="round" stroke-width="2" clip-path="url(#inner_stroke_clip_path_10)"/>
            <text transform="translate(663.0389 771.9504)" fill="#212121">
              <tspan font-family="Roboto" font-size="12" fill="#212121" x="0" y="11">Dataflow</tspan>
            </text>
          </g>
          <g id="Group_501">
            <title>Shape</title>
            <g id="Graphic_513">
              <path d="M 644.4305 770.242 L 644.0889 769.0754 L 642.3222 768.992 L 640.1805 770.192 L 642.0805 772.0587 L 642.0555 774.2254 L 643.3222 774.242 L 643.3472 772.0754 L 648.6555 775.2837 L 648.6389 776.617 L 650.8472 776.6504 L 650.8472 774.0837 Z" fill="#669df6"/>
            </g>
            <g id="Graphic_512">
              <path d="M 642.3222 768.992 L 640.5389 769.417 L 640.1805 770.192 L 633.5972 773.8504 L 633.5639 776.417 L 635.7889 776.4504 L 635.80554 775.1087 L 641.2055 772.0504 L 641.1805 774.217 L 642.2472 774.2254 Z" fill="#aecbfa"/>
            </g>
            <g id="Graphic_511">
              <path d="M 642.3222 768.992 L 638.0472 766.4504 L 635.88054 767.6337 L 640.1805 770.192 L 642.3222 768.992 Z" fill="#669df6"/>
            </g>
            <g id="Graphic_510">
              <path d="M 648.5555 782.7837 L 643.1722 785.842 L 643.1972 783.6837 L 641.0555 783.6587 L 641.0222 785.817 L 642.0555 788.9087 L 643.8305 788.767 L 644.1972 787.7087 L 650.7805 784.042 L 650.8139 781.4254 L 648.5722 781.392 Z" fill="#669df6"/>
            </g>
            <g id="Graphic_509">
              <path d="M 642.0555 788.9087 L 637.7222 791.3337 L 637.6639 791.3337 L 635.58054 790.1004 L 639.9472 787.6504 L 642.0555 788.9087 Z" fill="#669df6"/>
            </g>
            <g id="Graphic_508">
              <path d="M 644.4305 770.242 L 648.7972 767.8004 L 646.7139 766.567 L 646.6555 766.567 L 642.3222 768.992 Z" fill="#4285f4"/>
            </g>
            <g id="Graphic_507">
              <path d="M 644.1972 787.7087 L 648.4972 790.267 L 646.3889 791.4504 L 646.3222 791.4504 L 642.0555 788.9087 Z" fill="#4285f4"/>
            </g>
            <g id="Graphic_506">
              <path d="M 642.0555 788.9087 L 639.9472 787.6504 L 633.53054 783.817 L 633.53054 781.3087 L 635.73054 781.3087 L 635.70554 782.617 L 641.0222 785.817 L 641.0555 783.6587 L 642.1305 783.6754 Z" fill="#aecbfa"/>
            </g>
            <g id="Graphic_505">
              <title>Oval</title>
              <circle cx="649.8389" cy="779.0004" r="1.4250022770102" fill="#aecbfa"/>
            </g>
            <g id="Graphic_504">
              <circle cx="634.5389" cy="778.792" r="1.42500227701022" fill="#aecbfa"/>
            </g>
            <g id="Graphic_503">
              <circle cx="642.2722" cy="776.442" r="1.42500227701022" fill="#aecbfa"/>
            </g>
            <g id="Graphic_502">
              <circle cx="642.1555" cy="781.4587" r="1.42500227701022" fill="#aecbfa"/>
            </g>
          </g>
        </g>
        <g id="Graphic_520">
          <path d="M 762.0889 823.9504 L 764.2556 823.9504 C 764.53175 823.9504 764.7556 823.7265 764.7556 823.4504 L 764.7556 550.9504 C 764.7556 550.6742 764.53175 550.4504 764.2556 550.4504 L 762.0889 550.4504 C 761.8127 550.4504 761.5889 550.6742 761.5889 550.9504 C 761.5889 551.2265 761.8127 551.4504 762.0889 551.4504 L 764.2556 551.4504 L 763.7556 550.9504 L 763.7556 823.4504 L 764.2556 822.9504 L 762.0889 822.9504 C 761.8127 822.9504 761.5889 823.1742 761.5889 823.4504 C 761.5889 823.7265 761.8127 823.9504 762.0889 823.9504 Z M 754.0889 551.4504 L 762.0889 551.4504 L 762.0889 550.4504 L 754.0889 550.4504 Z M 758.4424 554.5968 L 754.4424 550.5968 L 754.4424 551.3039 L 758.4424 547.3039 L 757.7353 546.5968 L 753.7353 550.5968 L 753.3818 550.9504 L 753.7353 551.3039 L 757.7353 555.3039 Z M 754.0889 823.9504 L 762.0889 823.9504 L 762.0889 822.9504 L 754.0889 822.9504 Z M 758.4424 827.0968 L 754.4424 823.0968 L 754.4424 823.8039 L 758.4424 819.8039 L 757.7353 819.0968 L 753.7353 823.0968 L 753.3818 823.4504 L 753.7353 823.8039 L 757.7353 827.8039 Z" fill="#616161"/>
        </g>
        <g id="Graphic_521">
          <path d="M 764.4635 734.9504 L 771.2 734.9504 C 771.4761 734.9504 771.7 734.7265 771.7 734.4504 C 771.7 734.1742 771.4761 733.9504 771.2 733.9504 L 764.4635 733.9504 C 764.1873 733.9504 763.9635 734.1742 763.9635 734.4504 C 763.9635 734.7265 764.1873 734.9504 764.4635 734.9504 Z M 779.2 733.9504 L 771.2 733.9504 L 771.2 734.9504 L 779.2 734.9504 Z M 774.8464 730.8039 L 778.8464 734.8039 L 778.8464 734.0968 L 774.8464 738.0968 L 775.5535 738.8039 L 779.5535 734.8039 L 779.9071 734.4504 L 779.5535 734.0968 L 775.5535 730.0968 Z" fill="#616161"/>
        </g>
        <g id="Graphic_522">
          <path d="M 581.59995 794.01205 L 577.2103 794.01205 L 577.7103 794.51205 L 577.7103 551.2634 L 577.2103 551.7634 L 581.59995 551.7634 C 581.8761 551.7634 582.09995 551.5395 582.09995 551.2634 C 582.09995 550.98723 581.8761 550.7634 581.59995 550.7634 L 577.2103 550.7634 C 576.9341 550.7634 576.7103 550.98723 576.7103 551.2634 L 576.7103 794.51205 C 576.7103 794.7882 576.9341 795.01205 577.2103 795.01205 L 581.59995 795.01205 C 581.8761 795.01205 582.09995 794.7882 582.09995 794.51205 C 582.09995 794.2359 581.8761 794.01205 581.59995 794.01205 Z M 589.59995 550.7634 L 581.59995 550.7634 L 581.59995 551.7634 L 589.59995 551.7634 Z M 585.2464 547.6169 L 589.2464 551.6169 L 589.2464 550.9098 L 585.2464 554.9098 L 585.9535 555.6169 L 589.9535 551.6169 L 590.30705 551.2634 L 589.9535 550.9098 L 585.9535 546.9098 Z M 589.59995 794.01205 L 581.59995 794.01205 L 581.59995 795.01205 L 589.59995 795.01205 Z M 585.2464 790.8656 L 589.2464 794.8656 L 589.2464 794.1585 L 585.2464 798.1585 L 585.9535 798.8656 L 589.9535 794.8656 L 590.30705 794.51205 L 589.9535 794.1585 L 585.9535 790.1585 Z" fill="#616161"/>
        </g>
        <g id="Graphic_523">
          <path d="M 562.6787 658.8042 L 577.2112 658.77704 C 577.48734 658.7765 577.7108 658.55225 577.7103 658.2761 C 577.70975 658 577.4855 657.7765 577.20934 657.77704 L 562.67684 657.8042 C 562.4007 657.8047 562.17726 658.029 562.1778 658.3051 C 562.1783 658.58125 562.40256 658.8047 562.6787 658.8042 Z" fill="#616161"/>
        </g>
        <g id="Graphic_524">
          <path d="M 366.89953 823.5074 L 447.9495 823.5813 L 581.5995 823.7033 C 581.87564 823.7035 582.0997 823.4799 582.09995 823.2037 C 582.1002 822.9276 581.87655 822.7035 581.6004 822.7033 L 447.9504 822.5813 L 366.90044 822.5074 C 366.6243 822.5071 366.40024 822.7308 366.4 823.0069 C 366.39973 823.2831 366.6234 823.5071 366.89953 823.5074 Z M 589.6004 822.7106 L 581.6004 822.7033 L 581.5995 823.7033 L 589.5995 823.7106 Z M 585.2497 819.5602 L 589.2461 823.5638 L 589.2467 822.8567 L 585.2431 826.8531 L 585.9495 827.5608 L 589.9532 823.5645 L 590.30705 823.2112 L 589.9538 822.85735 L 585.9575 818.8537 Z" fill="#616161"/>
        </g>
        <g id="Graphic_525">
          <path d="M 366.9 671.4504 L 396.04284 671.4504 C 396.319 671.4504 396.54284 671.2265 396.54284 670.9504 C 396.54284 670.6742 396.319 670.4504 396.04284 670.4504 L 366.9 670.4504 C 366.62384 670.4504 366.4 670.6742 366.4 670.9504 C 366.4 671.2265 366.62384 671.4504 366.9 671.4504 Z M 404.04284 670.4504 L 396.04284 670.4504 L 396.04284 671.4504 L 404.04284 671.4504 Z M 399.6893 667.3039 L 403.6893 671.3039 L 403.6893 670.5968 L 399.6893 674.5968 L 400.3964 675.3039 L 404.3964 671.3039 L 404.74995 670.9504 L 404.3964 670.5968 L 400.3964 666.5968 Z" fill="#616161"/>
        </g>
        <g id="Graphic_526">
          <path d="M 181.03702 735.4504 L 211.53437 735.4504 C 211.8105 735.4504 212.03437 735.2265 212.03437 734.9504 C 212.03437 734.6742 211.8105 734.4504 211.53437 734.4504 L 181.03702 734.4504 C 180.76087 734.4504 180.53702 734.6742 180.53702 734.9504 C 180.53702 735.2265 180.76087 735.4504 181.03702 735.4504 Z M 219.53437 734.4504 L 211.53437 734.4504 L 211.53437 735.4504 L 219.53437 735.4504 Z M 215.1808 731.3039 L 219.1808 735.3039 L 219.1808 734.5968 L 215.1808 738.5968 L 215.88792 739.3039 L 219.88792 735.3039 L 220.24147 734.9504 L 219.88792 734.5968 L 215.88792 730.5968 Z" fill="#616161"/>
        </g>
        <g id="Graphic_527">
          <path d="M 36.299988 735.4504 L 46.39999 735.4504 C 46.67613 735.4504 46.89999 735.2265 46.89999 734.9504 C 46.89999 734.6742 46.67613 734.4504 46.39999 734.4504 L 36.299988 734.4504 C 36.023845 734.4504 35.799988 734.6742 35.799988 734.9504 C 35.799988 735.2265 36.023845 735.4504 36.299988 735.4504 Z M 54.39999 734.4504 L 46.39999 734.4504 L 46.39999 735.4504 L 54.39999 735.4504 Z M 50.046434 731.3039 L 54.046434 735.3039 L 54.046434 734.5968 L 50.046434 738.5968 L 50.75354 739.3039 L 54.75354 735.3039 L 55.107095 734.9504 L 54.75354 734.5968 L 50.75354 730.5968 Z" fill="#616161"/>
        </g>
        <g id="Group_528">
          <g id="Graphic_175">
            <title>zone internal - blue</title>
            <rect x="221.3" y="598.9504" width="165.6" height="272" fill="#e1f6fe"/>
            <rect x="221.3" y="598.9504" width="165.6" height="272" stroke="white" stroke-linecap="round" stroke-linejoin="round" stroke-width="2"/>
            <text transform="translate(231.3 613.9504)" fill="#757575">
              <tspan font-family="Roboto" font-size="10" fill="#757575" x="0" y="9">Ingestion</tspan>
            </text>
          </g>
          <g id="Group_260">
            <g id="Graphic_159">
              <rect x="241.89999" y="718.9504" width="125" height="56" fill="white"/>
              <rect x="241.89999" y="718.9504" width="125" height="56" stroke="#dfdfdf" stroke-linecap="round" stroke-linejoin="round" stroke-width="2" clip-path="url(#inner_stroke_clip_path_11)"/>
              <text transform="translate(292.9 732.9504)" fill="#212121">
                <tspan font-family="Roboto" font-size="12" fill="#212121" x="0" y="11">Cloud</tspan>
                <tspan font-family="Roboto" font-size="12" fill="#212121" x="0" y="25">Monitoring</tspan>
              </text>
            </g>
            <g id="Group_231">
              <g id="Graphic_230">
                <rect x="269.75996" y="752.3264" width="3.2666667" height="3.696" fill="#669df6"/>
              </g>
              <g id="Graphic_229">
                <path d="M 280.4653 749.573 C 280.2533 749.5722 280.0509 749.4845 279.9053 749.3304 L 274.1933 743.4037 L 270.34796 747.445 C 270.07068 747.7433 269.60983 747.7759 269.2933 747.5197 L 266.39063 745.1677 L 263.31063 749.265 C 263.1591 749.4565 262.92945 749.5696 262.6853 749.573 L 257.3933 749.573 L 257.3933 751.9717 C 257.3933 752.5439 257.85713 753.0077 258.4293 753.0077 L 284.3573 753.0077 C 284.92946 753.0077 285.3933 752.5439 285.3933 751.9717 L 285.3933 749.573 Z" fill="#4285f4"/>
              </g>
              <g id="Graphic_228">
                <path d="M 262.28396 748.0144 L 265.61596 743.5904 C 265.7464 743.4239 265.9379 743.3164 266.14796 743.2917 C 266.35606 743.2615 266.56706 743.3228 266.72663 743.4597 L 269.70396 745.8584 L 273.61463 741.7424 C 273.76264 741.5917 273.9635 741.5047 274.17463 741.4997 C 274.38664 741.50055 274.58903 741.5883 274.73463 741.7424 L 280.79196 748.0144 L 285.3933 748.0144 L 285.3933 738.485 C 285.3933 737.9129 284.92946 737.449 284.3573 737.449 L 258.4293 737.449 C 258.15453 737.449 257.89102 737.5582 257.69673 737.7525 C 257.50245 737.9468 257.3933 738.2103 257.3933 738.485 L 257.3933 748.0144 Z" fill="#669df6"/>
              </g>
              <g id="Graphic_227">
                <path d="M 267.02663 755.6024 L 275.75996 755.6024 C 275.92565 755.6024 276.05996 755.7367 276.05996 755.9024 L 276.05996 756.1517 C 276.05996 756.3174 275.92565 756.4517 275.75996 756.4517 L 267.02663 756.4517 C 266.86094 756.4517 266.72663 756.3174 266.72663 756.1517 L 266.72663 755.9024 C 266.72663 755.7367 266.86094 755.6024 267.02663 755.6024 Z" fill="#4285f4"/>
              </g>
            </g>
          </g>
          <g id="Group_217">
            <g id="Graphic_174">
              <rect x="241.89999" y="642.9504" width="125" height="56" fill="white"/>
              <rect x="241.89999" y="642.9504" width="125" height="56" stroke="#dfdfdf" stroke-linecap="round" stroke-linejoin="round" stroke-width="2" clip-path="url(#inner_stroke_clip_path_12)"/>
              <text transform="translate(292.9 663.9504)" fill="#212121">
                <tspan font-family="Roboto" font-size="12" fill="#212121" x="0" y="11">Pub/Sub</tspan>
              </text>
            </g>
            <g id="Group_205">
              <g id="Graphic_216">
                <circle cx="281.41382" cy="665.7792" r="2.35797900452109" fill="#669df6"/>
              </g>
              <g id="Graphic_215">
                <circle cx="262.38615" cy="665.7792" r="2.35797900452109" fill="#669df6"/>
              </g>
              <g id="Graphic_214">
                <circle cx="271.9" cy="682.2486" r="2.35797900452104" fill="#669df6"/>
              </g>
              <g id="Group_210">
                <g id="Graphic_213">
                  <path d="M 271.3548 672.2126 L 272.44275 670.32825 L 281.95925 675.8226 L 280.8713 677.707 Z" fill="#4285f4"/>
                </g>
                <g id="Graphic_212">
                  <path d="M 261.84173 675.819 L 271.35823 670.3247 L 272.44618 672.20905 L 262.92967 677.7034 Z" fill="#4285f4"/>
                </g>
                <g id="Graphic_211">
                  <rect x="270.8166" y="660.2803" width="2.1758922" height="10.988711" fill="#4285f4"/>
                </g>
              </g>
              <g id="Graphic_209">
                <circle cx="271.9" cy="671.269" r="3.8055414049799" fill="#aecbfa"/>
              </g>
              <g id="Graphic_208">
                <circle cx="262.38615" cy="676.7588" r="2.98616646132392" fill="#aecbfa"/>
              </g>
              <g id="Graphic_207">
                <circle cx="281.41382" cy="676.7588" r="2.98616646132393" fill="#aecbfa"/>
              </g>
              <g id="Graphic_206">
                <circle cx="271.9" cy="660.2803" r="2.98616646132402" fill="#aecbfa"/>
              </g>
            </g>
          </g>
          <g id="Group_244">
            <g id="Graphic_150">
              <rect x="241.89999" y="794.9504" width="125" height="56" fill="white"/>
              <rect x="241.89999" y="794.9504" width="125" height="56" stroke="#dfdfdf" stroke-linecap="round" stroke-linejoin="round" stroke-width="2" clip-path="url(#inner_stroke_clip_path_13)"/>
              <text transform="translate(292.9 808.9504)" fill="#212121">
                <tspan font-family="Roboto" font-size="12" fill="#212121" x="0" y="11">Cloud</tspan>
                <tspan font-family="Roboto" font-size="12" fill="#212121" x="0" y="25">Logging</tspan>
              </text>
            </g>
            <g id="Group_243">
              <g id="Graphic_242">
                <rect x="266.4" y="821.7837" width="4.6666667" height="2.3333333" fill="#4285f4"/>
              </g>
              <g id="Graphic_241">
                <rect x="264.06665" y="829.9504" width="7" height="2.3333333" fill="#4285f4"/>
              </g>
              <g id="Group_233">
                <title>colored-32_logs</title>
                <g id="Graphic_240">
                  <title>Container</title>
                </g>
                <g id="Group_234">
                  <title>Shape</title>
                  <g id="Graphic_239">
                    <title>Fill-3</title>
                    <rect x="264.06665" y="815.9504" width="2.3333333" height="14" fill="#4285f4"/>
                  </g>
                  <g id="Graphic_238">
                    <title>Fill-4</title>
                    <rect x="269.9" y="812.4504" width="15.166667" height="4.6666667" fill="#669df6"/>
                  </g>
                  <g id="Graphic_237">
                    <title>Fill-4-2</title>
                    <rect x="269.9" y="820.617" width="15.166667" height="4.6666667" fill="#669df6"/>
                  </g>
                  <g id="Graphic_236">
                    <title>Fill-4-3</title>
                    <rect x="269.9" y="828.7837" width="15.166667" height="4.6666667" fill="#669df6"/>
                  </g>
                  <g id="Graphic_235">
                    <title>Fill-7</title>
                    <rect x="261.73332" y="811.2837" width="7" height="7" fill="#aecbfa"/>
                  </g>
                </g>
              </g>
            </g>
          </g>
        </g>
        <g id="Group_530">
          <g id="Graphic_15">
            <title>zone internal - blue</title>
            <rect x="407.07777" y="598.9504" width="154.6" height="119" fill="#e1f6fe"/>
            <rect x="407.07777" y="598.9504" width="154.6" height="119" stroke="white" stroke-linecap="round" stroke-linejoin="round" stroke-width="2"/>
            <text transform="translate(417.07777 613.9504)" fill="#757575">
              <tspan font-family="Roboto" font-size="10" fill="#757575" x="0" y="9">Pipelines</tspan>
            </text>
          </g>
          <g id="Group_529">
            <g id="Graphic_14">
              <rect x="427.67776" y="642.9504" width="114" height="56" fill="white"/>
              <rect x="427.67776" y="642.9504" width="114" height="56" stroke="#dfdfdf" stroke-linecap="round" stroke-linejoin="round" stroke-width="2" clip-path="url(#inner_stroke_clip_path_14)"/>
              <text transform="translate(478.67776 663.9504)" fill="#212121">
                <tspan font-family="Roboto" font-size="12" fill="#212121" x="0" y="11">Dataflow</tspan>
              </text>
            </g>
            <g id="Group_488">
              <title>Shape</title>
              <g id="Graphic_500">
                <path d="M 461.92667 662.352 L 461.585 661.1854 L 459.81833 661.102 L 457.67667 662.302 L 459.57667 664.1687 L 459.55167 666.3354 L 460.81833 666.352 L 460.84333 664.1854 L 466.15167 667.3937 L 466.135 668.727 L 468.34333 668.7604 L 468.34333 666.1937 Z" fill="#669df6"/>
              </g>
              <g id="Graphic_499">
                <path d="M 459.81833 661.102 L 458.035 661.527 L 457.67667 662.302 L 451.09333 665.9604 L 451.06 668.527 L 453.285 668.5604 L 453.30167 667.2187 L 458.70167 664.1604 L 458.67667 666.327 L 459.74333 666.3354 Z" fill="#aecbfa"/>
              </g>
              <g id="Graphic_498">
                <path d="M 459.81833 661.102 L 455.54333 658.5604 L 453.37667 659.7437 L 457.67667 662.302 L 459.81833 661.102 Z" fill="#669df6"/>
              </g>
              <g id="Graphic_497">
                <path d="M 466.05167 674.8937 L 460.66833 677.952 L 460.69333 675.7937 L 458.55167 675.7687 L 458.51833 677.927 L 459.55167 681.0187 L 461.32667 680.877 L 461.69333 679.8187 L 468.27667 676.152 L 468.31 673.5354 L 466.06833 673.502 Z" fill="#669df6"/>
              </g>
              <g id="Graphic_496">
                <path d="M 459.55167 681.0187 L 455.21833 683.4437 L 455.16 683.4437 L 453.07667 682.2104 L 457.44333 679.7604 L 459.55167 681.0187 Z" fill="#669df6"/>
              </g>
              <g id="Graphic_495">
                <path d="M 461.92667 662.352 L 466.29333 659.9104 L 464.21 658.677 L 464.15167 658.677 L 459.81833 661.102 Z" fill="#4285f4"/>
              </g>
              <g id="Graphic_494">
                <path d="M 461.69333 679.8187 L 465.99333 682.377 L 463.885 683.5604 L 463.81833 683.5604 L 459.55167 681.0187 Z" fill="#4285f4"/>
              </g>
              <g id="Graphic_493">
                <path d="M 459.55167 681.0187 L 457.44333 679.7604 L 451.02667 675.927 L 451.02667 673.4187 L 453.22667 673.4187 L 453.20167 674.727 L 458.51833 677.927 L 458.55167 675.7687 L 459.62667 675.7854 Z" fill="#aecbfa"/>
              </g>
              <g id="Graphic_492">
                <title>Oval</title>
                <circle cx="467.335" cy="671.1104" r="1.4250022770102" fill="#aecbfa"/>
              </g>
              <g id="Graphic_491">
                <circle cx="452.035" cy="670.902" r="1.4250022770102" fill="#aecbfa"/>
              </g>
              <g id="Graphic_490">
                <circle cx="459.76833" cy="668.552" r="1.42500227701019" fill="#aecbfa"/>
              </g>
              <g id="Graphic_489">
                <circle cx="459.65167" cy="673.5687" r="1.42500227701019" fill="#aecbfa"/>
              </g>
            </g>
          </g>
        </g>
      </g>
    </g>
  </g>
</svg>
